G75*
%MOIN*%
%OFA0B0*%
%FSLAX25Y25*%
%IPPOS*%
%LPD*%
%AMOC8*
5,1,8,0,0,1.08239X$1,22.5*
%
%ADD10C,0.05000*%
%ADD11C,0.01200*%
%ADD12C,0.00600*%
%ADD13C,0.00000*%
%ADD14C,0.00500*%
%ADD15C,0.00400*%
%ADD16C,0.00200*%
%ADD17C,0.01000*%
%ADD18R,0.08268X0.01181*%
%ADD19R,0.00886X0.00984*%
%ADD20C,0.00700*%
%ADD21R,0.05000X0.03500*%
%ADD22C,0.00300*%
D10*
X0022000Y0281800D02*
X0022002Y0281899D01*
X0022008Y0281999D01*
X0022018Y0282098D01*
X0022032Y0282196D01*
X0022049Y0282294D01*
X0022071Y0282391D01*
X0022096Y0282487D01*
X0022125Y0282582D01*
X0022158Y0282676D01*
X0022195Y0282768D01*
X0022235Y0282859D01*
X0022279Y0282948D01*
X0022327Y0283036D01*
X0022378Y0283121D01*
X0022432Y0283204D01*
X0022489Y0283286D01*
X0022550Y0283364D01*
X0022614Y0283441D01*
X0022680Y0283514D01*
X0022750Y0283585D01*
X0022822Y0283653D01*
X0022897Y0283719D01*
X0022975Y0283781D01*
X0023055Y0283840D01*
X0023137Y0283896D01*
X0023221Y0283948D01*
X0023308Y0283997D01*
X0023396Y0284043D01*
X0023486Y0284085D01*
X0023578Y0284124D01*
X0023671Y0284159D01*
X0023765Y0284190D01*
X0023861Y0284217D01*
X0023958Y0284240D01*
X0024055Y0284260D01*
X0024153Y0284276D01*
X0024252Y0284288D01*
X0024351Y0284296D01*
X0024450Y0284300D01*
X0024550Y0284300D01*
X0024649Y0284296D01*
X0024748Y0284288D01*
X0024847Y0284276D01*
X0024945Y0284260D01*
X0025042Y0284240D01*
X0025139Y0284217D01*
X0025235Y0284190D01*
X0025329Y0284159D01*
X0025422Y0284124D01*
X0025514Y0284085D01*
X0025604Y0284043D01*
X0025692Y0283997D01*
X0025779Y0283948D01*
X0025863Y0283896D01*
X0025945Y0283840D01*
X0026025Y0283781D01*
X0026103Y0283719D01*
X0026178Y0283653D01*
X0026250Y0283585D01*
X0026320Y0283514D01*
X0026386Y0283441D01*
X0026450Y0283364D01*
X0026511Y0283286D01*
X0026568Y0283204D01*
X0026622Y0283121D01*
X0026673Y0283036D01*
X0026721Y0282948D01*
X0026765Y0282859D01*
X0026805Y0282768D01*
X0026842Y0282676D01*
X0026875Y0282582D01*
X0026904Y0282487D01*
X0026929Y0282391D01*
X0026951Y0282294D01*
X0026968Y0282196D01*
X0026982Y0282098D01*
X0026992Y0281999D01*
X0026998Y0281899D01*
X0027000Y0281800D01*
X0026998Y0281701D01*
X0026992Y0281601D01*
X0026982Y0281502D01*
X0026968Y0281404D01*
X0026951Y0281306D01*
X0026929Y0281209D01*
X0026904Y0281113D01*
X0026875Y0281018D01*
X0026842Y0280924D01*
X0026805Y0280832D01*
X0026765Y0280741D01*
X0026721Y0280652D01*
X0026673Y0280564D01*
X0026622Y0280479D01*
X0026568Y0280396D01*
X0026511Y0280314D01*
X0026450Y0280236D01*
X0026386Y0280159D01*
X0026320Y0280086D01*
X0026250Y0280015D01*
X0026178Y0279947D01*
X0026103Y0279881D01*
X0026025Y0279819D01*
X0025945Y0279760D01*
X0025863Y0279704D01*
X0025779Y0279652D01*
X0025692Y0279603D01*
X0025604Y0279557D01*
X0025514Y0279515D01*
X0025422Y0279476D01*
X0025329Y0279441D01*
X0025235Y0279410D01*
X0025139Y0279383D01*
X0025042Y0279360D01*
X0024945Y0279340D01*
X0024847Y0279324D01*
X0024748Y0279312D01*
X0024649Y0279304D01*
X0024550Y0279300D01*
X0024450Y0279300D01*
X0024351Y0279304D01*
X0024252Y0279312D01*
X0024153Y0279324D01*
X0024055Y0279340D01*
X0023958Y0279360D01*
X0023861Y0279383D01*
X0023765Y0279410D01*
X0023671Y0279441D01*
X0023578Y0279476D01*
X0023486Y0279515D01*
X0023396Y0279557D01*
X0023308Y0279603D01*
X0023221Y0279652D01*
X0023137Y0279704D01*
X0023055Y0279760D01*
X0022975Y0279819D01*
X0022897Y0279881D01*
X0022822Y0279947D01*
X0022750Y0280015D01*
X0022680Y0280086D01*
X0022614Y0280159D01*
X0022550Y0280236D01*
X0022489Y0280314D01*
X0022432Y0280396D01*
X0022378Y0280479D01*
X0022327Y0280564D01*
X0022279Y0280652D01*
X0022235Y0280741D01*
X0022195Y0280832D01*
X0022158Y0280924D01*
X0022125Y0281018D01*
X0022096Y0281113D01*
X0022071Y0281209D01*
X0022049Y0281306D01*
X0022032Y0281404D01*
X0022018Y0281502D01*
X0022008Y0281601D01*
X0022002Y0281701D01*
X0022000Y0281800D01*
X0112000Y0381800D02*
X0112002Y0381899D01*
X0112008Y0381999D01*
X0112018Y0382098D01*
X0112032Y0382196D01*
X0112049Y0382294D01*
X0112071Y0382391D01*
X0112096Y0382487D01*
X0112125Y0382582D01*
X0112158Y0382676D01*
X0112195Y0382768D01*
X0112235Y0382859D01*
X0112279Y0382948D01*
X0112327Y0383036D01*
X0112378Y0383121D01*
X0112432Y0383204D01*
X0112489Y0383286D01*
X0112550Y0383364D01*
X0112614Y0383441D01*
X0112680Y0383514D01*
X0112750Y0383585D01*
X0112822Y0383653D01*
X0112897Y0383719D01*
X0112975Y0383781D01*
X0113055Y0383840D01*
X0113137Y0383896D01*
X0113221Y0383948D01*
X0113308Y0383997D01*
X0113396Y0384043D01*
X0113486Y0384085D01*
X0113578Y0384124D01*
X0113671Y0384159D01*
X0113765Y0384190D01*
X0113861Y0384217D01*
X0113958Y0384240D01*
X0114055Y0384260D01*
X0114153Y0384276D01*
X0114252Y0384288D01*
X0114351Y0384296D01*
X0114450Y0384300D01*
X0114550Y0384300D01*
X0114649Y0384296D01*
X0114748Y0384288D01*
X0114847Y0384276D01*
X0114945Y0384260D01*
X0115042Y0384240D01*
X0115139Y0384217D01*
X0115235Y0384190D01*
X0115329Y0384159D01*
X0115422Y0384124D01*
X0115514Y0384085D01*
X0115604Y0384043D01*
X0115692Y0383997D01*
X0115779Y0383948D01*
X0115863Y0383896D01*
X0115945Y0383840D01*
X0116025Y0383781D01*
X0116103Y0383719D01*
X0116178Y0383653D01*
X0116250Y0383585D01*
X0116320Y0383514D01*
X0116386Y0383441D01*
X0116450Y0383364D01*
X0116511Y0383286D01*
X0116568Y0383204D01*
X0116622Y0383121D01*
X0116673Y0383036D01*
X0116721Y0382948D01*
X0116765Y0382859D01*
X0116805Y0382768D01*
X0116842Y0382676D01*
X0116875Y0382582D01*
X0116904Y0382487D01*
X0116929Y0382391D01*
X0116951Y0382294D01*
X0116968Y0382196D01*
X0116982Y0382098D01*
X0116992Y0381999D01*
X0116998Y0381899D01*
X0117000Y0381800D01*
X0116998Y0381701D01*
X0116992Y0381601D01*
X0116982Y0381502D01*
X0116968Y0381404D01*
X0116951Y0381306D01*
X0116929Y0381209D01*
X0116904Y0381113D01*
X0116875Y0381018D01*
X0116842Y0380924D01*
X0116805Y0380832D01*
X0116765Y0380741D01*
X0116721Y0380652D01*
X0116673Y0380564D01*
X0116622Y0380479D01*
X0116568Y0380396D01*
X0116511Y0380314D01*
X0116450Y0380236D01*
X0116386Y0380159D01*
X0116320Y0380086D01*
X0116250Y0380015D01*
X0116178Y0379947D01*
X0116103Y0379881D01*
X0116025Y0379819D01*
X0115945Y0379760D01*
X0115863Y0379704D01*
X0115779Y0379652D01*
X0115692Y0379603D01*
X0115604Y0379557D01*
X0115514Y0379515D01*
X0115422Y0379476D01*
X0115329Y0379441D01*
X0115235Y0379410D01*
X0115139Y0379383D01*
X0115042Y0379360D01*
X0114945Y0379340D01*
X0114847Y0379324D01*
X0114748Y0379312D01*
X0114649Y0379304D01*
X0114550Y0379300D01*
X0114450Y0379300D01*
X0114351Y0379304D01*
X0114252Y0379312D01*
X0114153Y0379324D01*
X0114055Y0379340D01*
X0113958Y0379360D01*
X0113861Y0379383D01*
X0113765Y0379410D01*
X0113671Y0379441D01*
X0113578Y0379476D01*
X0113486Y0379515D01*
X0113396Y0379557D01*
X0113308Y0379603D01*
X0113221Y0379652D01*
X0113137Y0379704D01*
X0113055Y0379760D01*
X0112975Y0379819D01*
X0112897Y0379881D01*
X0112822Y0379947D01*
X0112750Y0380015D01*
X0112680Y0380086D01*
X0112614Y0380159D01*
X0112550Y0380236D01*
X0112489Y0380314D01*
X0112432Y0380396D01*
X0112378Y0380479D01*
X0112327Y0380564D01*
X0112279Y0380652D01*
X0112235Y0380741D01*
X0112195Y0380832D01*
X0112158Y0380924D01*
X0112125Y0381018D01*
X0112096Y0381113D01*
X0112071Y0381209D01*
X0112049Y0381306D01*
X0112032Y0381404D01*
X0112018Y0381502D01*
X0112008Y0381601D01*
X0112002Y0381701D01*
X0112000Y0381800D01*
X0212000Y0281800D02*
X0212002Y0281899D01*
X0212008Y0281999D01*
X0212018Y0282098D01*
X0212032Y0282196D01*
X0212049Y0282294D01*
X0212071Y0282391D01*
X0212096Y0282487D01*
X0212125Y0282582D01*
X0212158Y0282676D01*
X0212195Y0282768D01*
X0212235Y0282859D01*
X0212279Y0282948D01*
X0212327Y0283036D01*
X0212378Y0283121D01*
X0212432Y0283204D01*
X0212489Y0283286D01*
X0212550Y0283364D01*
X0212614Y0283441D01*
X0212680Y0283514D01*
X0212750Y0283585D01*
X0212822Y0283653D01*
X0212897Y0283719D01*
X0212975Y0283781D01*
X0213055Y0283840D01*
X0213137Y0283896D01*
X0213221Y0283948D01*
X0213308Y0283997D01*
X0213396Y0284043D01*
X0213486Y0284085D01*
X0213578Y0284124D01*
X0213671Y0284159D01*
X0213765Y0284190D01*
X0213861Y0284217D01*
X0213958Y0284240D01*
X0214055Y0284260D01*
X0214153Y0284276D01*
X0214252Y0284288D01*
X0214351Y0284296D01*
X0214450Y0284300D01*
X0214550Y0284300D01*
X0214649Y0284296D01*
X0214748Y0284288D01*
X0214847Y0284276D01*
X0214945Y0284260D01*
X0215042Y0284240D01*
X0215139Y0284217D01*
X0215235Y0284190D01*
X0215329Y0284159D01*
X0215422Y0284124D01*
X0215514Y0284085D01*
X0215604Y0284043D01*
X0215692Y0283997D01*
X0215779Y0283948D01*
X0215863Y0283896D01*
X0215945Y0283840D01*
X0216025Y0283781D01*
X0216103Y0283719D01*
X0216178Y0283653D01*
X0216250Y0283585D01*
X0216320Y0283514D01*
X0216386Y0283441D01*
X0216450Y0283364D01*
X0216511Y0283286D01*
X0216568Y0283204D01*
X0216622Y0283121D01*
X0216673Y0283036D01*
X0216721Y0282948D01*
X0216765Y0282859D01*
X0216805Y0282768D01*
X0216842Y0282676D01*
X0216875Y0282582D01*
X0216904Y0282487D01*
X0216929Y0282391D01*
X0216951Y0282294D01*
X0216968Y0282196D01*
X0216982Y0282098D01*
X0216992Y0281999D01*
X0216998Y0281899D01*
X0217000Y0281800D01*
X0216998Y0281701D01*
X0216992Y0281601D01*
X0216982Y0281502D01*
X0216968Y0281404D01*
X0216951Y0281306D01*
X0216929Y0281209D01*
X0216904Y0281113D01*
X0216875Y0281018D01*
X0216842Y0280924D01*
X0216805Y0280832D01*
X0216765Y0280741D01*
X0216721Y0280652D01*
X0216673Y0280564D01*
X0216622Y0280479D01*
X0216568Y0280396D01*
X0216511Y0280314D01*
X0216450Y0280236D01*
X0216386Y0280159D01*
X0216320Y0280086D01*
X0216250Y0280015D01*
X0216178Y0279947D01*
X0216103Y0279881D01*
X0216025Y0279819D01*
X0215945Y0279760D01*
X0215863Y0279704D01*
X0215779Y0279652D01*
X0215692Y0279603D01*
X0215604Y0279557D01*
X0215514Y0279515D01*
X0215422Y0279476D01*
X0215329Y0279441D01*
X0215235Y0279410D01*
X0215139Y0279383D01*
X0215042Y0279360D01*
X0214945Y0279340D01*
X0214847Y0279324D01*
X0214748Y0279312D01*
X0214649Y0279304D01*
X0214550Y0279300D01*
X0214450Y0279300D01*
X0214351Y0279304D01*
X0214252Y0279312D01*
X0214153Y0279324D01*
X0214055Y0279340D01*
X0213958Y0279360D01*
X0213861Y0279383D01*
X0213765Y0279410D01*
X0213671Y0279441D01*
X0213578Y0279476D01*
X0213486Y0279515D01*
X0213396Y0279557D01*
X0213308Y0279603D01*
X0213221Y0279652D01*
X0213137Y0279704D01*
X0213055Y0279760D01*
X0212975Y0279819D01*
X0212897Y0279881D01*
X0212822Y0279947D01*
X0212750Y0280015D01*
X0212680Y0280086D01*
X0212614Y0280159D01*
X0212550Y0280236D01*
X0212489Y0280314D01*
X0212432Y0280396D01*
X0212378Y0280479D01*
X0212327Y0280564D01*
X0212279Y0280652D01*
X0212235Y0280741D01*
X0212195Y0280832D01*
X0212158Y0280924D01*
X0212125Y0281018D01*
X0212096Y0281113D01*
X0212071Y0281209D01*
X0212049Y0281306D01*
X0212032Y0281404D01*
X0212018Y0281502D01*
X0212008Y0281601D01*
X0212002Y0281701D01*
X0212000Y0281800D01*
D11*
X0264500Y0001800D02*
X0004500Y0001800D01*
X0004500Y0391800D01*
X0264500Y0391800D01*
X0264500Y0001800D01*
D12*
X0259500Y0009300D02*
X0257000Y0006800D01*
X0252000Y0006800D01*
X0249500Y0009300D01*
X0247000Y0006800D01*
X0242000Y0006800D01*
X0239500Y0009300D01*
X0237000Y0006800D01*
X0232000Y0006800D01*
X0229500Y0009300D01*
X0227000Y0006800D01*
X0222000Y0006800D01*
X0219500Y0009300D01*
X0219500Y0014300D01*
X0222000Y0016800D01*
X0227000Y0016800D01*
X0229500Y0014300D01*
X0232000Y0016800D01*
X0237000Y0016800D01*
X0239500Y0014300D01*
X0242000Y0016800D01*
X0247000Y0016800D01*
X0249500Y0014300D01*
X0252000Y0016800D01*
X0257000Y0016800D01*
X0259500Y0014300D01*
X0259500Y0009300D01*
X0227500Y0044300D02*
X0227500Y0051800D01*
X0224000Y0051800D01*
X0224000Y0057800D01*
X0227500Y0057800D01*
X0227500Y0106800D01*
X0186500Y0106800D01*
X0186500Y0057800D01*
X0190000Y0057800D01*
X0190000Y0051800D01*
X0186500Y0051800D01*
X0186500Y0044300D01*
X0227500Y0044300D01*
X0199900Y0057800D02*
X0199902Y0057974D01*
X0199909Y0058148D01*
X0199919Y0058322D01*
X0199934Y0058496D01*
X0199953Y0058669D01*
X0199977Y0058842D01*
X0200005Y0059014D01*
X0200036Y0059185D01*
X0200073Y0059356D01*
X0200113Y0059525D01*
X0200157Y0059694D01*
X0200206Y0059861D01*
X0200258Y0060027D01*
X0200315Y0060192D01*
X0200376Y0060355D01*
X0200440Y0060517D01*
X0200509Y0060677D01*
X0200582Y0060836D01*
X0200658Y0060992D01*
X0200738Y0061147D01*
X0200822Y0061300D01*
X0200910Y0061450D01*
X0201002Y0061598D01*
X0201097Y0061745D01*
X0201195Y0061888D01*
X0201297Y0062029D01*
X0201403Y0062168D01*
X0201512Y0062304D01*
X0201624Y0062438D01*
X0201739Y0062568D01*
X0201858Y0062696D01*
X0201980Y0062820D01*
X0202104Y0062942D01*
X0202232Y0063061D01*
X0202362Y0063176D01*
X0202496Y0063288D01*
X0202632Y0063397D01*
X0202771Y0063503D01*
X0202912Y0063605D01*
X0203055Y0063703D01*
X0203202Y0063798D01*
X0203350Y0063890D01*
X0203500Y0063978D01*
X0203653Y0064062D01*
X0203808Y0064142D01*
X0203964Y0064218D01*
X0204123Y0064291D01*
X0204283Y0064360D01*
X0204445Y0064424D01*
X0204608Y0064485D01*
X0204773Y0064542D01*
X0204939Y0064594D01*
X0205106Y0064643D01*
X0205275Y0064687D01*
X0205444Y0064727D01*
X0205615Y0064764D01*
X0205786Y0064795D01*
X0205958Y0064823D01*
X0206131Y0064847D01*
X0206304Y0064866D01*
X0206478Y0064881D01*
X0206652Y0064891D01*
X0206826Y0064898D01*
X0207000Y0064900D01*
X0207174Y0064898D01*
X0207348Y0064891D01*
X0207522Y0064881D01*
X0207696Y0064866D01*
X0207869Y0064847D01*
X0208042Y0064823D01*
X0208214Y0064795D01*
X0208385Y0064764D01*
X0208556Y0064727D01*
X0208725Y0064687D01*
X0208894Y0064643D01*
X0209061Y0064594D01*
X0209227Y0064542D01*
X0209392Y0064485D01*
X0209555Y0064424D01*
X0209717Y0064360D01*
X0209877Y0064291D01*
X0210036Y0064218D01*
X0210192Y0064142D01*
X0210347Y0064062D01*
X0210500Y0063978D01*
X0210650Y0063890D01*
X0210798Y0063798D01*
X0210945Y0063703D01*
X0211088Y0063605D01*
X0211229Y0063503D01*
X0211368Y0063397D01*
X0211504Y0063288D01*
X0211638Y0063176D01*
X0211768Y0063061D01*
X0211896Y0062942D01*
X0212020Y0062820D01*
X0212142Y0062696D01*
X0212261Y0062568D01*
X0212376Y0062438D01*
X0212488Y0062304D01*
X0212597Y0062168D01*
X0212703Y0062029D01*
X0212805Y0061888D01*
X0212903Y0061745D01*
X0212998Y0061598D01*
X0213090Y0061450D01*
X0213178Y0061300D01*
X0213262Y0061147D01*
X0213342Y0060992D01*
X0213418Y0060836D01*
X0213491Y0060677D01*
X0213560Y0060517D01*
X0213624Y0060355D01*
X0213685Y0060192D01*
X0213742Y0060027D01*
X0213794Y0059861D01*
X0213843Y0059694D01*
X0213887Y0059525D01*
X0213927Y0059356D01*
X0213964Y0059185D01*
X0213995Y0059014D01*
X0214023Y0058842D01*
X0214047Y0058669D01*
X0214066Y0058496D01*
X0214081Y0058322D01*
X0214091Y0058148D01*
X0214098Y0057974D01*
X0214100Y0057800D01*
X0214098Y0057626D01*
X0214091Y0057452D01*
X0214081Y0057278D01*
X0214066Y0057104D01*
X0214047Y0056931D01*
X0214023Y0056758D01*
X0213995Y0056586D01*
X0213964Y0056415D01*
X0213927Y0056244D01*
X0213887Y0056075D01*
X0213843Y0055906D01*
X0213794Y0055739D01*
X0213742Y0055573D01*
X0213685Y0055408D01*
X0213624Y0055245D01*
X0213560Y0055083D01*
X0213491Y0054923D01*
X0213418Y0054764D01*
X0213342Y0054608D01*
X0213262Y0054453D01*
X0213178Y0054300D01*
X0213090Y0054150D01*
X0212998Y0054002D01*
X0212903Y0053855D01*
X0212805Y0053712D01*
X0212703Y0053571D01*
X0212597Y0053432D01*
X0212488Y0053296D01*
X0212376Y0053162D01*
X0212261Y0053032D01*
X0212142Y0052904D01*
X0212020Y0052780D01*
X0211896Y0052658D01*
X0211768Y0052539D01*
X0211638Y0052424D01*
X0211504Y0052312D01*
X0211368Y0052203D01*
X0211229Y0052097D01*
X0211088Y0051995D01*
X0210945Y0051897D01*
X0210798Y0051802D01*
X0210650Y0051710D01*
X0210500Y0051622D01*
X0210347Y0051538D01*
X0210192Y0051458D01*
X0210036Y0051382D01*
X0209877Y0051309D01*
X0209717Y0051240D01*
X0209555Y0051176D01*
X0209392Y0051115D01*
X0209227Y0051058D01*
X0209061Y0051006D01*
X0208894Y0050957D01*
X0208725Y0050913D01*
X0208556Y0050873D01*
X0208385Y0050836D01*
X0208214Y0050805D01*
X0208042Y0050777D01*
X0207869Y0050753D01*
X0207696Y0050734D01*
X0207522Y0050719D01*
X0207348Y0050709D01*
X0207174Y0050702D01*
X0207000Y0050700D01*
X0206826Y0050702D01*
X0206652Y0050709D01*
X0206478Y0050719D01*
X0206304Y0050734D01*
X0206131Y0050753D01*
X0205958Y0050777D01*
X0205786Y0050805D01*
X0205615Y0050836D01*
X0205444Y0050873D01*
X0205275Y0050913D01*
X0205106Y0050957D01*
X0204939Y0051006D01*
X0204773Y0051058D01*
X0204608Y0051115D01*
X0204445Y0051176D01*
X0204283Y0051240D01*
X0204123Y0051309D01*
X0203964Y0051382D01*
X0203808Y0051458D01*
X0203653Y0051538D01*
X0203500Y0051622D01*
X0203350Y0051710D01*
X0203202Y0051802D01*
X0203055Y0051897D01*
X0202912Y0051995D01*
X0202771Y0052097D01*
X0202632Y0052203D01*
X0202496Y0052312D01*
X0202362Y0052424D01*
X0202232Y0052539D01*
X0202104Y0052658D01*
X0201980Y0052780D01*
X0201858Y0052904D01*
X0201739Y0053032D01*
X0201624Y0053162D01*
X0201512Y0053296D01*
X0201403Y0053432D01*
X0201297Y0053571D01*
X0201195Y0053712D01*
X0201097Y0053855D01*
X0201002Y0054002D01*
X0200910Y0054150D01*
X0200822Y0054300D01*
X0200738Y0054453D01*
X0200658Y0054608D01*
X0200582Y0054764D01*
X0200509Y0054923D01*
X0200440Y0055083D01*
X0200376Y0055245D01*
X0200315Y0055408D01*
X0200258Y0055573D01*
X0200206Y0055739D01*
X0200157Y0055906D01*
X0200113Y0056075D01*
X0200073Y0056244D01*
X0200036Y0056415D01*
X0200005Y0056586D01*
X0199977Y0056758D01*
X0199953Y0056931D01*
X0199934Y0057104D01*
X0199919Y0057278D01*
X0199909Y0057452D01*
X0199902Y0057626D01*
X0199900Y0057800D01*
X0177000Y0016800D02*
X0172000Y0016800D01*
X0169500Y0014300D01*
X0167000Y0016800D01*
X0162000Y0016800D01*
X0159500Y0014300D01*
X0157000Y0016800D01*
X0152000Y0016800D01*
X0149500Y0014300D01*
X0147000Y0016800D01*
X0142000Y0016800D01*
X0139500Y0014300D01*
X0139500Y0009300D01*
X0142000Y0006800D01*
X0147000Y0006800D01*
X0149500Y0009300D01*
X0152000Y0006800D01*
X0157000Y0006800D01*
X0159500Y0009300D01*
X0162000Y0006800D01*
X0167000Y0006800D01*
X0169500Y0009300D01*
X0172000Y0006800D01*
X0177000Y0006800D01*
X0179500Y0009300D01*
X0179500Y0014300D01*
X0177000Y0016800D01*
X0129500Y0014300D02*
X0129500Y0009300D01*
X0127000Y0006800D01*
X0122000Y0006800D01*
X0119500Y0009300D01*
X0117000Y0006800D01*
X0112000Y0006800D01*
X0109500Y0009300D01*
X0107000Y0006800D01*
X0102000Y0006800D01*
X0099500Y0009300D01*
X0099500Y0014300D01*
X0102000Y0016800D01*
X0107000Y0016800D01*
X0109500Y0014300D01*
X0112000Y0016800D01*
X0117000Y0016800D01*
X0119500Y0014300D01*
X0122000Y0016800D01*
X0127000Y0016800D01*
X0129500Y0014300D01*
X0110388Y0049600D02*
X0108253Y0049600D01*
X0107185Y0050668D01*
X0107185Y0054938D01*
X0108253Y0056005D01*
X0110388Y0056005D01*
X0111456Y0054938D01*
X0111456Y0052803D02*
X0109321Y0052803D01*
X0111456Y0052803D02*
X0111456Y0050668D01*
X0110388Y0049600D01*
X0105010Y0049600D02*
X0105010Y0056005D01*
X0105037Y0060100D02*
X0108240Y0060100D01*
X0109307Y0061168D01*
X0109307Y0065438D01*
X0108240Y0066505D01*
X0105037Y0066505D01*
X0105037Y0060100D01*
X0102862Y0060100D02*
X0098591Y0060100D01*
X0098591Y0066505D01*
X0096416Y0065438D02*
X0095349Y0066505D01*
X0093214Y0066505D01*
X0092146Y0065438D01*
X0092146Y0061168D01*
X0093214Y0060100D01*
X0095349Y0060100D01*
X0096416Y0061168D01*
X0096416Y0065438D01*
X0097511Y0070600D02*
X0099646Y0070600D01*
X0100713Y0071668D01*
X0100713Y0073803D01*
X0098578Y0073803D01*
X0096443Y0075938D02*
X0096443Y0071668D01*
X0097511Y0070600D01*
X0094281Y0070600D02*
X0092146Y0070600D01*
X0093214Y0070600D02*
X0093214Y0077005D01*
X0094281Y0077005D02*
X0092146Y0077005D01*
X0089971Y0077005D02*
X0089971Y0070600D01*
X0085700Y0077005D01*
X0085700Y0070600D01*
X0083525Y0070600D02*
X0081390Y0072735D01*
X0082458Y0072735D02*
X0079255Y0072735D01*
X0079255Y0070600D02*
X0079255Y0077005D01*
X0082458Y0077005D01*
X0083525Y0075938D01*
X0083525Y0073803D01*
X0082458Y0072735D01*
X0077080Y0070600D02*
X0072809Y0070600D01*
X0072809Y0077005D01*
X0077080Y0077005D01*
X0074945Y0073803D02*
X0072809Y0073803D01*
X0070634Y0075938D02*
X0069567Y0077005D01*
X0067432Y0077005D01*
X0066364Y0075938D01*
X0066364Y0071668D01*
X0067432Y0070600D01*
X0069567Y0070600D01*
X0070634Y0071668D01*
X0070634Y0066505D02*
X0066364Y0066505D01*
X0066364Y0060100D01*
X0070634Y0060100D01*
X0072809Y0060100D02*
X0072809Y0066505D01*
X0077080Y0066505D02*
X0077080Y0060100D01*
X0074945Y0062235D01*
X0072809Y0060100D01*
X0071715Y0056005D02*
X0069580Y0056005D01*
X0068512Y0054938D01*
X0068512Y0050668D01*
X0069580Y0049600D01*
X0071715Y0049600D01*
X0072783Y0050668D01*
X0072783Y0052803D01*
X0070648Y0052803D01*
X0072783Y0054938D02*
X0071715Y0056005D01*
X0074958Y0056005D02*
X0074958Y0049600D01*
X0074958Y0052803D02*
X0079228Y0052803D01*
X0079228Y0056005D02*
X0079228Y0049600D01*
X0087849Y0049600D02*
X0089984Y0051735D01*
X0092119Y0049600D01*
X0092119Y0056005D01*
X0094294Y0054938D02*
X0094294Y0050668D01*
X0095362Y0049600D01*
X0097497Y0049600D01*
X0098565Y0050668D01*
X0098565Y0054938D01*
X0097497Y0056005D01*
X0095362Y0056005D01*
X0094294Y0054938D01*
X0100740Y0056005D02*
X0100740Y0049600D01*
X0105010Y0049600D02*
X0100740Y0056005D01*
X0102888Y0070600D02*
X0107159Y0070600D01*
X0109334Y0070600D02*
X0111469Y0070600D01*
X0110402Y0070600D02*
X0110402Y0077005D01*
X0111469Y0077005D02*
X0109334Y0077005D01*
X0109334Y0081100D02*
X0109334Y0087505D01*
X0113604Y0081100D01*
X0113604Y0087505D01*
X0113604Y0091600D02*
X0109334Y0091600D01*
X0111469Y0091600D02*
X0111469Y0098005D01*
X0109334Y0095870D01*
X0107159Y0096938D02*
X0102888Y0092668D01*
X0103956Y0091600D01*
X0106091Y0091600D01*
X0107159Y0092668D01*
X0107159Y0096938D01*
X0106091Y0098005D01*
X0103956Y0098005D01*
X0102888Y0096938D01*
X0102888Y0092668D01*
X0100713Y0091600D02*
X0096443Y0091600D01*
X0100713Y0095870D01*
X0100713Y0096938D01*
X0099646Y0098005D01*
X0097511Y0098005D01*
X0096443Y0096938D01*
X0095349Y0087505D02*
X0092146Y0087505D01*
X0092146Y0081100D01*
X0092146Y0083235D02*
X0095349Y0083235D01*
X0096416Y0084303D01*
X0096416Y0086438D01*
X0095349Y0087505D01*
X0098591Y0087505D02*
X0100727Y0087505D01*
X0099659Y0087505D02*
X0099659Y0081100D01*
X0098591Y0081100D02*
X0100727Y0081100D01*
X0102888Y0081100D02*
X0102888Y0085370D01*
X0105024Y0087505D01*
X0107159Y0085370D01*
X0107159Y0081100D01*
X0107159Y0084303D02*
X0102888Y0084303D01*
X0096416Y0081100D02*
X0094281Y0083235D01*
X0089971Y0081100D02*
X0085700Y0081100D01*
X0085700Y0087505D01*
X0089971Y0087505D01*
X0087836Y0084303D02*
X0085700Y0084303D01*
X0083525Y0085370D02*
X0082458Y0084303D01*
X0079255Y0084303D01*
X0079255Y0087505D02*
X0079255Y0081100D01*
X0082458Y0081100D01*
X0083525Y0082168D01*
X0083525Y0083235D01*
X0082458Y0084303D01*
X0083525Y0085370D02*
X0083525Y0086438D01*
X0082458Y0087505D01*
X0079255Y0087505D01*
X0081377Y0091600D02*
X0081377Y0098005D01*
X0083552Y0095870D02*
X0083552Y0091600D01*
X0081377Y0091600D02*
X0077106Y0098005D01*
X0077106Y0091600D01*
X0074931Y0092668D02*
X0074931Y0096938D01*
X0073864Y0098005D01*
X0071729Y0098005D01*
X0070661Y0096938D01*
X0070661Y0092668D01*
X0071729Y0091600D01*
X0073864Y0091600D01*
X0074931Y0092668D01*
X0070634Y0087505D02*
X0066364Y0081100D01*
X0064189Y0081100D02*
X0059918Y0081100D01*
X0059918Y0087505D01*
X0064189Y0087505D01*
X0066364Y0087505D02*
X0070634Y0081100D01*
X0062054Y0084303D02*
X0059918Y0084303D01*
X0057743Y0081100D02*
X0053473Y0081100D01*
X0053473Y0087505D01*
X0051298Y0085370D02*
X0051298Y0081100D01*
X0051298Y0084303D02*
X0047027Y0084303D01*
X0047027Y0085370D02*
X0049163Y0087505D01*
X0051298Y0085370D01*
X0047027Y0085370D02*
X0047027Y0081100D01*
X0047027Y0077005D02*
X0047027Y0070600D01*
X0051298Y0070600D01*
X0053473Y0070600D02*
X0057743Y0070600D01*
X0055608Y0073803D02*
X0053473Y0073803D01*
X0053473Y0077005D02*
X0053473Y0070600D01*
X0053473Y0066505D02*
X0057743Y0066505D01*
X0055608Y0066505D02*
X0055608Y0060100D01*
X0057770Y0056005D02*
X0057770Y0049600D01*
X0062040Y0049600D01*
X0064215Y0049600D02*
X0066351Y0049600D01*
X0065283Y0049600D02*
X0065283Y0056005D01*
X0064215Y0056005D02*
X0066351Y0056005D01*
X0062040Y0056005D02*
X0057770Y0056005D01*
X0057770Y0052803D02*
X0059905Y0052803D01*
X0055595Y0049600D02*
X0051324Y0049600D01*
X0051324Y0056005D01*
X0049149Y0054938D02*
X0048082Y0056005D01*
X0045947Y0056005D01*
X0044879Y0054938D01*
X0044879Y0053870D01*
X0045947Y0052803D01*
X0048082Y0052803D01*
X0049149Y0051735D01*
X0049149Y0050668D01*
X0048082Y0049600D01*
X0045947Y0049600D01*
X0044879Y0050668D01*
X0042704Y0049600D02*
X0042704Y0056005D01*
X0038433Y0056005D02*
X0042704Y0049600D01*
X0038433Y0049600D02*
X0038433Y0056005D01*
X0036272Y0056005D02*
X0034136Y0056005D01*
X0035204Y0056005D02*
X0035204Y0049600D01*
X0034136Y0049600D02*
X0036272Y0049600D01*
X0031961Y0049600D02*
X0028759Y0052803D01*
X0027691Y0051735D02*
X0031961Y0056005D01*
X0027691Y0056005D02*
X0027691Y0049600D01*
X0034136Y0060100D02*
X0034136Y0066505D01*
X0036272Y0064370D01*
X0038407Y0066505D01*
X0038407Y0060100D01*
X0040582Y0060100D02*
X0040582Y0064370D01*
X0042717Y0066505D01*
X0044852Y0064370D01*
X0044852Y0060100D01*
X0044852Y0063303D02*
X0040582Y0063303D01*
X0042717Y0070600D02*
X0042717Y0073803D01*
X0044852Y0075938D01*
X0044852Y0077005D01*
X0042717Y0073803D02*
X0040582Y0075938D01*
X0040582Y0077005D01*
X0038407Y0077005D02*
X0034136Y0072735D01*
X0035204Y0073803D02*
X0038407Y0070600D01*
X0034136Y0070600D02*
X0034136Y0077005D01*
X0034136Y0091600D02*
X0034136Y0098005D01*
X0031961Y0096938D02*
X0030894Y0098005D01*
X0028759Y0098005D01*
X0027691Y0096938D01*
X0027691Y0092668D01*
X0028759Y0091600D01*
X0030894Y0091600D01*
X0031961Y0092668D01*
X0034136Y0093735D02*
X0038407Y0098005D01*
X0035204Y0094803D02*
X0038407Y0091600D01*
X0047027Y0091600D02*
X0047027Y0095870D01*
X0049163Y0098005D01*
X0051298Y0095870D01*
X0051298Y0091600D01*
X0053473Y0091600D02*
X0053473Y0098005D01*
X0056676Y0098005D01*
X0057743Y0096938D01*
X0057743Y0094803D01*
X0056676Y0093735D01*
X0053473Y0093735D01*
X0055608Y0093735D02*
X0057743Y0091600D01*
X0059918Y0091600D02*
X0062054Y0091600D01*
X0060986Y0091600D02*
X0060986Y0098005D01*
X0059918Y0098005D02*
X0062054Y0098005D01*
X0064215Y0098005D02*
X0068486Y0098005D01*
X0068486Y0096938D01*
X0064215Y0092668D01*
X0064215Y0091600D01*
X0068486Y0091600D01*
X0057743Y0077005D02*
X0053473Y0077005D01*
X0051298Y0066505D02*
X0047027Y0066505D01*
X0049163Y0066505D02*
X0049163Y0060100D01*
X0059918Y0060100D02*
X0059918Y0066505D01*
X0059918Y0063303D02*
X0064189Y0063303D01*
X0066364Y0063303D02*
X0068499Y0063303D01*
X0064189Y0066505D02*
X0064189Y0060100D01*
X0085700Y0061168D02*
X0086768Y0060100D01*
X0088903Y0060100D01*
X0089971Y0061168D01*
X0089971Y0063303D01*
X0087836Y0063303D01*
X0089971Y0065438D02*
X0088903Y0066505D01*
X0086768Y0066505D01*
X0085700Y0065438D01*
X0085700Y0061168D01*
X0087849Y0056005D02*
X0087849Y0049600D01*
X0102888Y0070600D02*
X0102888Y0077005D01*
X0100713Y0075938D02*
X0099646Y0077005D01*
X0097511Y0077005D01*
X0096443Y0075938D01*
X0087822Y0091600D02*
X0087822Y0095870D01*
X0085687Y0098005D01*
X0083552Y0095870D01*
X0083552Y0094803D02*
X0087822Y0094803D01*
X0113631Y0074870D02*
X0113631Y0070600D01*
X0113631Y0073803D02*
X0117901Y0073803D01*
X0117901Y0074870D02*
X0115766Y0077005D01*
X0113631Y0074870D01*
X0117901Y0074870D02*
X0117901Y0070600D01*
X0115779Y0091600D02*
X0115779Y0092668D01*
X0120050Y0096938D01*
X0120050Y0098005D01*
X0115779Y0098005D01*
X0088594Y0134753D02*
X0075406Y0134753D01*
X0089579Y0135599D02*
X0089579Y0135698D01*
X0088594Y0153847D02*
X0075445Y0153847D01*
X0102000Y0196800D02*
X0099500Y0199300D01*
X0099500Y0204300D01*
X0102000Y0206800D01*
X0107000Y0206800D01*
X0109500Y0204300D01*
X0112000Y0206800D01*
X0117000Y0206800D01*
X0119500Y0204300D01*
X0119500Y0199300D01*
X0117000Y0196800D01*
X0112000Y0196800D01*
X0109500Y0199300D01*
X0109500Y0204300D01*
X0109500Y0199300D01*
X0107000Y0196800D01*
X0102000Y0196800D01*
X0099500Y0206800D02*
X0099500Y0215800D01*
X0100500Y0216800D01*
X0099500Y0217800D01*
X0099500Y0225800D01*
X0100500Y0226800D01*
X0099500Y0227800D01*
X0099500Y0235800D01*
X0100500Y0236800D01*
X0099500Y0237800D01*
X0099500Y0245800D01*
X0100500Y0246800D01*
X0099500Y0247800D01*
X0099500Y0255800D01*
X0100500Y0256800D01*
X0099500Y0257800D01*
X0099500Y0265800D01*
X0100500Y0266800D01*
X0099500Y0267800D01*
X0099500Y0275800D01*
X0100500Y0276800D01*
X0099500Y0277800D01*
X0099500Y0285800D01*
X0100500Y0286800D01*
X0099500Y0287800D01*
X0099500Y0295800D01*
X0100500Y0296800D01*
X0099500Y0297800D01*
X0099500Y0306800D01*
X0099500Y0315800D01*
X0100500Y0316800D01*
X0099500Y0317800D01*
X0099500Y0325800D01*
X0100500Y0326800D01*
X0099500Y0327800D01*
X0099500Y0335800D01*
X0100500Y0336800D01*
X0099500Y0337800D01*
X0099500Y0345800D01*
X0100500Y0346800D01*
X0099500Y0347800D01*
X0099500Y0355800D01*
X0100500Y0356800D01*
X0099500Y0357800D01*
X0099500Y0366800D01*
X0109500Y0366800D01*
X0109500Y0357800D01*
X0108500Y0356800D01*
X0109500Y0355800D01*
X0109500Y0347800D01*
X0108500Y0346800D01*
X0109500Y0345800D01*
X0109500Y0337800D01*
X0108500Y0336800D01*
X0109500Y0335800D01*
X0109500Y0327800D01*
X0108500Y0326800D01*
X0109500Y0325800D01*
X0109500Y0317800D01*
X0108500Y0316800D01*
X0109500Y0315800D01*
X0109500Y0306800D01*
X0099500Y0306800D01*
X0109500Y0306800D01*
X0109500Y0297800D01*
X0108500Y0296800D01*
X0109500Y0295800D01*
X0109500Y0287800D01*
X0108500Y0286800D01*
X0109500Y0285800D01*
X0109500Y0277800D01*
X0108500Y0276800D01*
X0109500Y0275800D01*
X0109500Y0267800D01*
X0108500Y0266800D01*
X0109500Y0265800D01*
X0109500Y0257800D01*
X0108500Y0256800D01*
X0109500Y0255800D01*
X0109500Y0247800D01*
X0108500Y0246800D01*
X0109500Y0245800D01*
X0109500Y0237800D01*
X0108500Y0236800D01*
X0109500Y0235800D01*
X0109500Y0227800D01*
X0108500Y0226800D01*
X0109500Y0225800D01*
X0109500Y0217800D01*
X0108500Y0216800D01*
X0109500Y0215800D01*
X0109500Y0206800D01*
X0099500Y0206800D01*
X0109500Y0186800D02*
X0118500Y0186800D01*
X0119500Y0185800D01*
X0120500Y0186800D01*
X0128500Y0186800D01*
X0129500Y0185800D01*
X0130500Y0186800D01*
X0138500Y0186800D01*
X0139500Y0185800D01*
X0140500Y0186800D01*
X0148500Y0186800D01*
X0149500Y0185800D01*
X0150500Y0186800D01*
X0159500Y0186800D01*
X0159500Y0176800D01*
X0150500Y0176800D01*
X0149500Y0177800D01*
X0148500Y0176800D01*
X0140500Y0176800D01*
X0139500Y0177800D01*
X0138500Y0176800D01*
X0130500Y0176800D01*
X0129500Y0177800D01*
X0128500Y0176800D01*
X0120500Y0176800D01*
X0119500Y0177800D01*
X0118500Y0176800D01*
X0109500Y0176800D01*
X0109500Y0186800D01*
X0069500Y0226800D02*
X0069500Y0235800D01*
X0068500Y0236800D01*
X0069500Y0237800D01*
X0069500Y0245800D01*
X0068500Y0246800D01*
X0069500Y0247800D01*
X0069500Y0255800D01*
X0068500Y0256800D01*
X0069500Y0257800D01*
X0069500Y0265800D01*
X0068500Y0266800D01*
X0069500Y0267800D01*
X0069500Y0275800D01*
X0068500Y0276800D01*
X0069500Y0277800D01*
X0069500Y0286800D01*
X0059500Y0286800D01*
X0059500Y0277800D01*
X0060500Y0276800D01*
X0059500Y0275800D01*
X0059500Y0267800D01*
X0060500Y0266800D01*
X0059500Y0265800D01*
X0059500Y0257800D01*
X0060500Y0256800D01*
X0059500Y0255800D01*
X0059500Y0247800D01*
X0060500Y0246800D01*
X0059500Y0245800D01*
X0059500Y0237800D01*
X0060500Y0236800D01*
X0059500Y0235800D01*
X0059500Y0226800D01*
X0069500Y0226800D01*
X0019500Y0226800D02*
X0019500Y0235800D01*
X0018500Y0236800D01*
X0019500Y0237800D01*
X0019500Y0245800D01*
X0018500Y0246800D01*
X0019500Y0247800D01*
X0019500Y0255800D01*
X0018500Y0256800D01*
X0019500Y0257800D01*
X0019500Y0265800D01*
X0018500Y0266800D01*
X0019500Y0267800D01*
X0019500Y0275800D01*
X0018500Y0276800D01*
X0019500Y0277800D01*
X0019500Y0286800D01*
X0009500Y0286800D01*
X0009500Y0277800D01*
X0010500Y0276800D01*
X0009500Y0275800D01*
X0009500Y0267800D01*
X0010500Y0266800D01*
X0009500Y0265800D01*
X0009500Y0257800D01*
X0010500Y0256800D01*
X0009500Y0255800D01*
X0009500Y0247800D01*
X0010500Y0246800D01*
X0009500Y0245800D01*
X0009500Y0237800D01*
X0010500Y0236800D01*
X0009500Y0235800D01*
X0009500Y0226800D01*
X0019500Y0226800D01*
X0017000Y0306800D02*
X0012000Y0306800D01*
X0009500Y0309300D01*
X0009500Y0314300D01*
X0012000Y0316800D01*
X0009500Y0319300D01*
X0009500Y0324300D01*
X0012000Y0326800D01*
X0009500Y0329300D01*
X0009500Y0334300D01*
X0012000Y0336800D01*
X0009500Y0339300D01*
X0009500Y0344300D01*
X0012000Y0346800D01*
X0009500Y0349300D01*
X0009500Y0354300D01*
X0012000Y0356800D01*
X0009500Y0359300D01*
X0009500Y0364300D01*
X0012000Y0366800D01*
X0009500Y0369300D01*
X0009500Y0374300D01*
X0012000Y0376800D01*
X0009500Y0379300D01*
X0009500Y0384300D01*
X0012000Y0386800D01*
X0017000Y0386800D01*
X0019500Y0384300D01*
X0019500Y0379300D01*
X0017000Y0376800D01*
X0019500Y0374300D01*
X0019500Y0369300D01*
X0017000Y0366800D01*
X0019500Y0364300D01*
X0019500Y0359300D01*
X0017000Y0356800D01*
X0019500Y0354300D01*
X0019500Y0349300D01*
X0017000Y0346800D01*
X0019500Y0344300D01*
X0019500Y0339300D01*
X0017000Y0336800D01*
X0019500Y0334300D01*
X0019500Y0329300D01*
X0017000Y0326800D01*
X0019500Y0324300D01*
X0019500Y0319300D01*
X0017000Y0316800D01*
X0019500Y0314300D01*
X0019500Y0309300D01*
X0017000Y0306800D01*
X0159500Y0305800D02*
X0159500Y0297800D01*
X0160500Y0296800D01*
X0159500Y0295800D01*
X0159500Y0286800D01*
X0159500Y0277800D01*
X0160500Y0276800D01*
X0159500Y0275800D01*
X0159500Y0267800D01*
X0160500Y0266800D01*
X0159500Y0265800D01*
X0159500Y0257800D01*
X0160500Y0256800D01*
X0159500Y0255800D01*
X0159500Y0247800D01*
X0160500Y0246800D01*
X0159500Y0245800D01*
X0159500Y0237800D01*
X0160500Y0236800D01*
X0159500Y0235800D01*
X0159500Y0227800D01*
X0160500Y0226800D01*
X0159500Y0225800D01*
X0159500Y0216800D01*
X0169500Y0216800D01*
X0169500Y0225800D01*
X0168500Y0226800D01*
X0169500Y0227800D01*
X0169500Y0235800D01*
X0168500Y0236800D01*
X0169500Y0237800D01*
X0169500Y0245800D01*
X0168500Y0246800D01*
X0169500Y0247800D01*
X0169500Y0255800D01*
X0168500Y0256800D01*
X0169500Y0257800D01*
X0169500Y0265800D01*
X0168500Y0266800D01*
X0169500Y0267800D01*
X0169500Y0275800D01*
X0168500Y0276800D01*
X0169500Y0277800D01*
X0169500Y0286800D01*
X0159500Y0286800D01*
X0169500Y0286800D01*
X0169500Y0295800D01*
X0168500Y0296800D01*
X0169500Y0297800D01*
X0169500Y0305800D01*
X0168500Y0306800D01*
X0169500Y0307800D01*
X0169500Y0315800D01*
X0168500Y0316800D01*
X0169500Y0317800D01*
X0169500Y0325800D01*
X0168500Y0326800D01*
X0169500Y0327800D01*
X0169500Y0335800D01*
X0168500Y0336800D01*
X0169500Y0337800D01*
X0169500Y0345800D01*
X0168500Y0346800D01*
X0169500Y0347800D01*
X0169500Y0355800D01*
X0168500Y0356800D01*
X0169500Y0357800D01*
X0169500Y0365800D01*
X0168500Y0366800D01*
X0169500Y0367800D01*
X0169500Y0375800D01*
X0168500Y0376800D01*
X0169500Y0377800D01*
X0169500Y0386800D01*
X0159500Y0386800D01*
X0159500Y0377800D01*
X0160500Y0376800D01*
X0159500Y0375800D01*
X0159500Y0367800D01*
X0160500Y0366800D01*
X0159500Y0365800D01*
X0159500Y0357800D01*
X0160500Y0356800D01*
X0159500Y0355800D01*
X0159500Y0347800D01*
X0160500Y0346800D01*
X0159500Y0345800D01*
X0159500Y0337800D01*
X0160500Y0336800D01*
X0159500Y0335800D01*
X0159500Y0327800D01*
X0160500Y0326800D01*
X0159500Y0325800D01*
X0159500Y0317800D01*
X0160500Y0316800D01*
X0159500Y0315800D01*
X0159500Y0307800D01*
X0160500Y0306800D01*
X0159500Y0305800D01*
X0199500Y0286800D02*
X0199500Y0277800D01*
X0200500Y0276800D01*
X0199500Y0275800D01*
X0199500Y0267800D01*
X0200500Y0266800D01*
X0199500Y0265800D01*
X0199500Y0257800D01*
X0200500Y0256800D01*
X0199500Y0255800D01*
X0199500Y0247800D01*
X0200500Y0246800D01*
X0199500Y0245800D01*
X0199500Y0237800D01*
X0200500Y0236800D01*
X0199500Y0235800D01*
X0199500Y0226800D01*
X0209500Y0226800D01*
X0209500Y0235800D01*
X0208500Y0236800D01*
X0209500Y0237800D01*
X0209500Y0245800D01*
X0208500Y0246800D01*
X0209500Y0247800D01*
X0209500Y0255800D01*
X0208500Y0256800D01*
X0209500Y0257800D01*
X0209500Y0265800D01*
X0208500Y0266800D01*
X0209500Y0267800D01*
X0209500Y0275800D01*
X0208500Y0276800D01*
X0209500Y0277800D01*
X0209500Y0286800D01*
X0199500Y0286800D01*
X0249500Y0286800D02*
X0249500Y0277800D01*
X0250500Y0276800D01*
X0249500Y0275800D01*
X0249500Y0267800D01*
X0250500Y0266800D01*
X0249500Y0265800D01*
X0249500Y0257800D01*
X0250500Y0256800D01*
X0249500Y0255800D01*
X0249500Y0247800D01*
X0250500Y0246800D01*
X0249500Y0245800D01*
X0249500Y0237800D01*
X0250500Y0236800D01*
X0249500Y0235800D01*
X0249500Y0226800D01*
X0259500Y0226800D01*
X0259500Y0235800D01*
X0258500Y0236800D01*
X0259500Y0237800D01*
X0259500Y0245800D01*
X0258500Y0246800D01*
X0259500Y0247800D01*
X0259500Y0255800D01*
X0258500Y0256800D01*
X0259500Y0257800D01*
X0259500Y0265800D01*
X0258500Y0266800D01*
X0259500Y0267800D01*
X0259500Y0275800D01*
X0258500Y0276800D01*
X0259500Y0277800D01*
X0259500Y0286800D01*
X0249500Y0286800D01*
X0178594Y0153847D02*
X0165445Y0153847D01*
X0165406Y0134753D02*
X0178594Y0134753D01*
X0179579Y0135599D02*
X0179579Y0135698D01*
X0051298Y0094803D02*
X0047027Y0094803D01*
X0025516Y0094803D02*
X0021245Y0094803D01*
X0021245Y0095870D02*
X0023381Y0098005D01*
X0025516Y0095870D01*
X0025516Y0091600D01*
X0021245Y0091600D02*
X0021245Y0095870D01*
X0019070Y0094803D02*
X0014800Y0094803D01*
X0014800Y0098005D02*
X0014800Y0091600D01*
X0019070Y0091600D02*
X0019070Y0098005D01*
X0017000Y0016800D02*
X0012000Y0016800D01*
X0009500Y0014300D01*
X0009500Y0009300D01*
X0012000Y0006800D01*
X0017000Y0006800D01*
X0019500Y0009300D01*
X0022000Y0006800D01*
X0027000Y0006800D01*
X0029500Y0009300D01*
X0032000Y0006800D01*
X0037000Y0006800D01*
X0039500Y0009300D01*
X0042000Y0006800D01*
X0047000Y0006800D01*
X0049500Y0009300D01*
X0049500Y0014300D01*
X0047000Y0016800D01*
X0042000Y0016800D01*
X0039500Y0014300D01*
X0037000Y0016800D01*
X0032000Y0016800D01*
X0029500Y0014300D01*
X0027000Y0016800D01*
X0022000Y0016800D01*
X0019500Y0014300D01*
X0017000Y0016800D01*
D13*
X0008988Y0031800D02*
X0008990Y0031948D01*
X0008996Y0032096D01*
X0009006Y0032244D01*
X0009020Y0032391D01*
X0009038Y0032538D01*
X0009059Y0032684D01*
X0009085Y0032830D01*
X0009115Y0032975D01*
X0009148Y0033119D01*
X0009186Y0033262D01*
X0009227Y0033404D01*
X0009272Y0033545D01*
X0009320Y0033685D01*
X0009373Y0033824D01*
X0009429Y0033961D01*
X0009489Y0034096D01*
X0009552Y0034230D01*
X0009619Y0034362D01*
X0009690Y0034492D01*
X0009764Y0034620D01*
X0009841Y0034746D01*
X0009922Y0034870D01*
X0010006Y0034992D01*
X0010093Y0035111D01*
X0010184Y0035228D01*
X0010278Y0035343D01*
X0010374Y0035455D01*
X0010474Y0035565D01*
X0010576Y0035671D01*
X0010682Y0035775D01*
X0010790Y0035876D01*
X0010901Y0035974D01*
X0011014Y0036070D01*
X0011130Y0036162D01*
X0011248Y0036251D01*
X0011369Y0036336D01*
X0011492Y0036419D01*
X0011617Y0036498D01*
X0011744Y0036574D01*
X0011873Y0036646D01*
X0012004Y0036715D01*
X0012137Y0036780D01*
X0012272Y0036841D01*
X0012408Y0036899D01*
X0012545Y0036954D01*
X0012684Y0037004D01*
X0012825Y0037051D01*
X0012966Y0037094D01*
X0013109Y0037134D01*
X0013253Y0037169D01*
X0013397Y0037201D01*
X0013543Y0037228D01*
X0013689Y0037252D01*
X0013836Y0037272D01*
X0013983Y0037288D01*
X0014130Y0037300D01*
X0014278Y0037308D01*
X0014426Y0037312D01*
X0014574Y0037312D01*
X0014722Y0037308D01*
X0014870Y0037300D01*
X0015017Y0037288D01*
X0015164Y0037272D01*
X0015311Y0037252D01*
X0015457Y0037228D01*
X0015603Y0037201D01*
X0015747Y0037169D01*
X0015891Y0037134D01*
X0016034Y0037094D01*
X0016175Y0037051D01*
X0016316Y0037004D01*
X0016455Y0036954D01*
X0016592Y0036899D01*
X0016728Y0036841D01*
X0016863Y0036780D01*
X0016996Y0036715D01*
X0017127Y0036646D01*
X0017256Y0036574D01*
X0017383Y0036498D01*
X0017508Y0036419D01*
X0017631Y0036336D01*
X0017752Y0036251D01*
X0017870Y0036162D01*
X0017986Y0036070D01*
X0018099Y0035974D01*
X0018210Y0035876D01*
X0018318Y0035775D01*
X0018424Y0035671D01*
X0018526Y0035565D01*
X0018626Y0035455D01*
X0018722Y0035343D01*
X0018816Y0035228D01*
X0018907Y0035111D01*
X0018994Y0034992D01*
X0019078Y0034870D01*
X0019159Y0034746D01*
X0019236Y0034620D01*
X0019310Y0034492D01*
X0019381Y0034362D01*
X0019448Y0034230D01*
X0019511Y0034096D01*
X0019571Y0033961D01*
X0019627Y0033824D01*
X0019680Y0033685D01*
X0019728Y0033545D01*
X0019773Y0033404D01*
X0019814Y0033262D01*
X0019852Y0033119D01*
X0019885Y0032975D01*
X0019915Y0032830D01*
X0019941Y0032684D01*
X0019962Y0032538D01*
X0019980Y0032391D01*
X0019994Y0032244D01*
X0020004Y0032096D01*
X0020010Y0031948D01*
X0020012Y0031800D01*
X0020010Y0031652D01*
X0020004Y0031504D01*
X0019994Y0031356D01*
X0019980Y0031209D01*
X0019962Y0031062D01*
X0019941Y0030916D01*
X0019915Y0030770D01*
X0019885Y0030625D01*
X0019852Y0030481D01*
X0019814Y0030338D01*
X0019773Y0030196D01*
X0019728Y0030055D01*
X0019680Y0029915D01*
X0019627Y0029776D01*
X0019571Y0029639D01*
X0019511Y0029504D01*
X0019448Y0029370D01*
X0019381Y0029238D01*
X0019310Y0029108D01*
X0019236Y0028980D01*
X0019159Y0028854D01*
X0019078Y0028730D01*
X0018994Y0028608D01*
X0018907Y0028489D01*
X0018816Y0028372D01*
X0018722Y0028257D01*
X0018626Y0028145D01*
X0018526Y0028035D01*
X0018424Y0027929D01*
X0018318Y0027825D01*
X0018210Y0027724D01*
X0018099Y0027626D01*
X0017986Y0027530D01*
X0017870Y0027438D01*
X0017752Y0027349D01*
X0017631Y0027264D01*
X0017508Y0027181D01*
X0017383Y0027102D01*
X0017256Y0027026D01*
X0017127Y0026954D01*
X0016996Y0026885D01*
X0016863Y0026820D01*
X0016728Y0026759D01*
X0016592Y0026701D01*
X0016455Y0026646D01*
X0016316Y0026596D01*
X0016175Y0026549D01*
X0016034Y0026506D01*
X0015891Y0026466D01*
X0015747Y0026431D01*
X0015603Y0026399D01*
X0015457Y0026372D01*
X0015311Y0026348D01*
X0015164Y0026328D01*
X0015017Y0026312D01*
X0014870Y0026300D01*
X0014722Y0026292D01*
X0014574Y0026288D01*
X0014426Y0026288D01*
X0014278Y0026292D01*
X0014130Y0026300D01*
X0013983Y0026312D01*
X0013836Y0026328D01*
X0013689Y0026348D01*
X0013543Y0026372D01*
X0013397Y0026399D01*
X0013253Y0026431D01*
X0013109Y0026466D01*
X0012966Y0026506D01*
X0012825Y0026549D01*
X0012684Y0026596D01*
X0012545Y0026646D01*
X0012408Y0026701D01*
X0012272Y0026759D01*
X0012137Y0026820D01*
X0012004Y0026885D01*
X0011873Y0026954D01*
X0011744Y0027026D01*
X0011617Y0027102D01*
X0011492Y0027181D01*
X0011369Y0027264D01*
X0011248Y0027349D01*
X0011130Y0027438D01*
X0011014Y0027530D01*
X0010901Y0027626D01*
X0010790Y0027724D01*
X0010682Y0027825D01*
X0010576Y0027929D01*
X0010474Y0028035D01*
X0010374Y0028145D01*
X0010278Y0028257D01*
X0010184Y0028372D01*
X0010093Y0028489D01*
X0010006Y0028608D01*
X0009922Y0028730D01*
X0009841Y0028854D01*
X0009764Y0028980D01*
X0009690Y0029108D01*
X0009619Y0029238D01*
X0009552Y0029370D01*
X0009489Y0029504D01*
X0009429Y0029639D01*
X0009373Y0029776D01*
X0009320Y0029915D01*
X0009272Y0030055D01*
X0009227Y0030196D01*
X0009186Y0030338D01*
X0009148Y0030481D01*
X0009115Y0030625D01*
X0009085Y0030770D01*
X0009059Y0030916D01*
X0009038Y0031062D01*
X0009020Y0031209D01*
X0009006Y0031356D01*
X0008996Y0031504D01*
X0008990Y0031652D01*
X0008988Y0031800D01*
X0008988Y0296800D02*
X0008990Y0296948D01*
X0008996Y0297096D01*
X0009006Y0297244D01*
X0009020Y0297391D01*
X0009038Y0297538D01*
X0009059Y0297684D01*
X0009085Y0297830D01*
X0009115Y0297975D01*
X0009148Y0298119D01*
X0009186Y0298262D01*
X0009227Y0298404D01*
X0009272Y0298545D01*
X0009320Y0298685D01*
X0009373Y0298824D01*
X0009429Y0298961D01*
X0009489Y0299096D01*
X0009552Y0299230D01*
X0009619Y0299362D01*
X0009690Y0299492D01*
X0009764Y0299620D01*
X0009841Y0299746D01*
X0009922Y0299870D01*
X0010006Y0299992D01*
X0010093Y0300111D01*
X0010184Y0300228D01*
X0010278Y0300343D01*
X0010374Y0300455D01*
X0010474Y0300565D01*
X0010576Y0300671D01*
X0010682Y0300775D01*
X0010790Y0300876D01*
X0010901Y0300974D01*
X0011014Y0301070D01*
X0011130Y0301162D01*
X0011248Y0301251D01*
X0011369Y0301336D01*
X0011492Y0301419D01*
X0011617Y0301498D01*
X0011744Y0301574D01*
X0011873Y0301646D01*
X0012004Y0301715D01*
X0012137Y0301780D01*
X0012272Y0301841D01*
X0012408Y0301899D01*
X0012545Y0301954D01*
X0012684Y0302004D01*
X0012825Y0302051D01*
X0012966Y0302094D01*
X0013109Y0302134D01*
X0013253Y0302169D01*
X0013397Y0302201D01*
X0013543Y0302228D01*
X0013689Y0302252D01*
X0013836Y0302272D01*
X0013983Y0302288D01*
X0014130Y0302300D01*
X0014278Y0302308D01*
X0014426Y0302312D01*
X0014574Y0302312D01*
X0014722Y0302308D01*
X0014870Y0302300D01*
X0015017Y0302288D01*
X0015164Y0302272D01*
X0015311Y0302252D01*
X0015457Y0302228D01*
X0015603Y0302201D01*
X0015747Y0302169D01*
X0015891Y0302134D01*
X0016034Y0302094D01*
X0016175Y0302051D01*
X0016316Y0302004D01*
X0016455Y0301954D01*
X0016592Y0301899D01*
X0016728Y0301841D01*
X0016863Y0301780D01*
X0016996Y0301715D01*
X0017127Y0301646D01*
X0017256Y0301574D01*
X0017383Y0301498D01*
X0017508Y0301419D01*
X0017631Y0301336D01*
X0017752Y0301251D01*
X0017870Y0301162D01*
X0017986Y0301070D01*
X0018099Y0300974D01*
X0018210Y0300876D01*
X0018318Y0300775D01*
X0018424Y0300671D01*
X0018526Y0300565D01*
X0018626Y0300455D01*
X0018722Y0300343D01*
X0018816Y0300228D01*
X0018907Y0300111D01*
X0018994Y0299992D01*
X0019078Y0299870D01*
X0019159Y0299746D01*
X0019236Y0299620D01*
X0019310Y0299492D01*
X0019381Y0299362D01*
X0019448Y0299230D01*
X0019511Y0299096D01*
X0019571Y0298961D01*
X0019627Y0298824D01*
X0019680Y0298685D01*
X0019728Y0298545D01*
X0019773Y0298404D01*
X0019814Y0298262D01*
X0019852Y0298119D01*
X0019885Y0297975D01*
X0019915Y0297830D01*
X0019941Y0297684D01*
X0019962Y0297538D01*
X0019980Y0297391D01*
X0019994Y0297244D01*
X0020004Y0297096D01*
X0020010Y0296948D01*
X0020012Y0296800D01*
X0020010Y0296652D01*
X0020004Y0296504D01*
X0019994Y0296356D01*
X0019980Y0296209D01*
X0019962Y0296062D01*
X0019941Y0295916D01*
X0019915Y0295770D01*
X0019885Y0295625D01*
X0019852Y0295481D01*
X0019814Y0295338D01*
X0019773Y0295196D01*
X0019728Y0295055D01*
X0019680Y0294915D01*
X0019627Y0294776D01*
X0019571Y0294639D01*
X0019511Y0294504D01*
X0019448Y0294370D01*
X0019381Y0294238D01*
X0019310Y0294108D01*
X0019236Y0293980D01*
X0019159Y0293854D01*
X0019078Y0293730D01*
X0018994Y0293608D01*
X0018907Y0293489D01*
X0018816Y0293372D01*
X0018722Y0293257D01*
X0018626Y0293145D01*
X0018526Y0293035D01*
X0018424Y0292929D01*
X0018318Y0292825D01*
X0018210Y0292724D01*
X0018099Y0292626D01*
X0017986Y0292530D01*
X0017870Y0292438D01*
X0017752Y0292349D01*
X0017631Y0292264D01*
X0017508Y0292181D01*
X0017383Y0292102D01*
X0017256Y0292026D01*
X0017127Y0291954D01*
X0016996Y0291885D01*
X0016863Y0291820D01*
X0016728Y0291759D01*
X0016592Y0291701D01*
X0016455Y0291646D01*
X0016316Y0291596D01*
X0016175Y0291549D01*
X0016034Y0291506D01*
X0015891Y0291466D01*
X0015747Y0291431D01*
X0015603Y0291399D01*
X0015457Y0291372D01*
X0015311Y0291348D01*
X0015164Y0291328D01*
X0015017Y0291312D01*
X0014870Y0291300D01*
X0014722Y0291292D01*
X0014574Y0291288D01*
X0014426Y0291288D01*
X0014278Y0291292D01*
X0014130Y0291300D01*
X0013983Y0291312D01*
X0013836Y0291328D01*
X0013689Y0291348D01*
X0013543Y0291372D01*
X0013397Y0291399D01*
X0013253Y0291431D01*
X0013109Y0291466D01*
X0012966Y0291506D01*
X0012825Y0291549D01*
X0012684Y0291596D01*
X0012545Y0291646D01*
X0012408Y0291701D01*
X0012272Y0291759D01*
X0012137Y0291820D01*
X0012004Y0291885D01*
X0011873Y0291954D01*
X0011744Y0292026D01*
X0011617Y0292102D01*
X0011492Y0292181D01*
X0011369Y0292264D01*
X0011248Y0292349D01*
X0011130Y0292438D01*
X0011014Y0292530D01*
X0010901Y0292626D01*
X0010790Y0292724D01*
X0010682Y0292825D01*
X0010576Y0292929D01*
X0010474Y0293035D01*
X0010374Y0293145D01*
X0010278Y0293257D01*
X0010184Y0293372D01*
X0010093Y0293489D01*
X0010006Y0293608D01*
X0009922Y0293730D01*
X0009841Y0293854D01*
X0009764Y0293980D01*
X0009690Y0294108D01*
X0009619Y0294238D01*
X0009552Y0294370D01*
X0009489Y0294504D01*
X0009429Y0294639D01*
X0009373Y0294776D01*
X0009320Y0294915D01*
X0009272Y0295055D01*
X0009227Y0295196D01*
X0009186Y0295338D01*
X0009148Y0295481D01*
X0009115Y0295625D01*
X0009085Y0295770D01*
X0009059Y0295916D01*
X0009038Y0296062D01*
X0009020Y0296209D01*
X0009006Y0296356D01*
X0008996Y0296504D01*
X0008990Y0296652D01*
X0008988Y0296800D01*
X0200500Y0057800D02*
X0200502Y0057961D01*
X0200508Y0058121D01*
X0200518Y0058282D01*
X0200532Y0058442D01*
X0200550Y0058602D01*
X0200571Y0058761D01*
X0200597Y0058920D01*
X0200627Y0059078D01*
X0200660Y0059235D01*
X0200698Y0059392D01*
X0200739Y0059547D01*
X0200784Y0059701D01*
X0200833Y0059854D01*
X0200886Y0060006D01*
X0200942Y0060157D01*
X0201003Y0060306D01*
X0201066Y0060454D01*
X0201134Y0060600D01*
X0201205Y0060744D01*
X0201279Y0060886D01*
X0201357Y0061027D01*
X0201439Y0061165D01*
X0201524Y0061302D01*
X0201612Y0061436D01*
X0201704Y0061568D01*
X0201799Y0061698D01*
X0201897Y0061826D01*
X0201998Y0061951D01*
X0202102Y0062073D01*
X0202209Y0062193D01*
X0202319Y0062310D01*
X0202432Y0062425D01*
X0202548Y0062536D01*
X0202667Y0062645D01*
X0202788Y0062750D01*
X0202912Y0062853D01*
X0203038Y0062953D01*
X0203166Y0063049D01*
X0203297Y0063142D01*
X0203431Y0063232D01*
X0203566Y0063319D01*
X0203704Y0063402D01*
X0203843Y0063482D01*
X0203985Y0063558D01*
X0204128Y0063631D01*
X0204273Y0063700D01*
X0204420Y0063766D01*
X0204568Y0063828D01*
X0204718Y0063886D01*
X0204869Y0063941D01*
X0205022Y0063992D01*
X0205176Y0064039D01*
X0205331Y0064082D01*
X0205487Y0064121D01*
X0205643Y0064157D01*
X0205801Y0064188D01*
X0205959Y0064216D01*
X0206118Y0064240D01*
X0206278Y0064260D01*
X0206438Y0064276D01*
X0206598Y0064288D01*
X0206759Y0064296D01*
X0206920Y0064300D01*
X0207080Y0064300D01*
X0207241Y0064296D01*
X0207402Y0064288D01*
X0207562Y0064276D01*
X0207722Y0064260D01*
X0207882Y0064240D01*
X0208041Y0064216D01*
X0208199Y0064188D01*
X0208357Y0064157D01*
X0208513Y0064121D01*
X0208669Y0064082D01*
X0208824Y0064039D01*
X0208978Y0063992D01*
X0209131Y0063941D01*
X0209282Y0063886D01*
X0209432Y0063828D01*
X0209580Y0063766D01*
X0209727Y0063700D01*
X0209872Y0063631D01*
X0210015Y0063558D01*
X0210157Y0063482D01*
X0210296Y0063402D01*
X0210434Y0063319D01*
X0210569Y0063232D01*
X0210703Y0063142D01*
X0210834Y0063049D01*
X0210962Y0062953D01*
X0211088Y0062853D01*
X0211212Y0062750D01*
X0211333Y0062645D01*
X0211452Y0062536D01*
X0211568Y0062425D01*
X0211681Y0062310D01*
X0211791Y0062193D01*
X0211898Y0062073D01*
X0212002Y0061951D01*
X0212103Y0061826D01*
X0212201Y0061698D01*
X0212296Y0061568D01*
X0212388Y0061436D01*
X0212476Y0061302D01*
X0212561Y0061165D01*
X0212643Y0061027D01*
X0212721Y0060886D01*
X0212795Y0060744D01*
X0212866Y0060600D01*
X0212934Y0060454D01*
X0212997Y0060306D01*
X0213058Y0060157D01*
X0213114Y0060006D01*
X0213167Y0059854D01*
X0213216Y0059701D01*
X0213261Y0059547D01*
X0213302Y0059392D01*
X0213340Y0059235D01*
X0213373Y0059078D01*
X0213403Y0058920D01*
X0213429Y0058761D01*
X0213450Y0058602D01*
X0213468Y0058442D01*
X0213482Y0058282D01*
X0213492Y0058121D01*
X0213498Y0057961D01*
X0213500Y0057800D01*
X0213498Y0057639D01*
X0213492Y0057479D01*
X0213482Y0057318D01*
X0213468Y0057158D01*
X0213450Y0056998D01*
X0213429Y0056839D01*
X0213403Y0056680D01*
X0213373Y0056522D01*
X0213340Y0056365D01*
X0213302Y0056208D01*
X0213261Y0056053D01*
X0213216Y0055899D01*
X0213167Y0055746D01*
X0213114Y0055594D01*
X0213058Y0055443D01*
X0212997Y0055294D01*
X0212934Y0055146D01*
X0212866Y0055000D01*
X0212795Y0054856D01*
X0212721Y0054714D01*
X0212643Y0054573D01*
X0212561Y0054435D01*
X0212476Y0054298D01*
X0212388Y0054164D01*
X0212296Y0054032D01*
X0212201Y0053902D01*
X0212103Y0053774D01*
X0212002Y0053649D01*
X0211898Y0053527D01*
X0211791Y0053407D01*
X0211681Y0053290D01*
X0211568Y0053175D01*
X0211452Y0053064D01*
X0211333Y0052955D01*
X0211212Y0052850D01*
X0211088Y0052747D01*
X0210962Y0052647D01*
X0210834Y0052551D01*
X0210703Y0052458D01*
X0210569Y0052368D01*
X0210434Y0052281D01*
X0210296Y0052198D01*
X0210157Y0052118D01*
X0210015Y0052042D01*
X0209872Y0051969D01*
X0209727Y0051900D01*
X0209580Y0051834D01*
X0209432Y0051772D01*
X0209282Y0051714D01*
X0209131Y0051659D01*
X0208978Y0051608D01*
X0208824Y0051561D01*
X0208669Y0051518D01*
X0208513Y0051479D01*
X0208357Y0051443D01*
X0208199Y0051412D01*
X0208041Y0051384D01*
X0207882Y0051360D01*
X0207722Y0051340D01*
X0207562Y0051324D01*
X0207402Y0051312D01*
X0207241Y0051304D01*
X0207080Y0051300D01*
X0206920Y0051300D01*
X0206759Y0051304D01*
X0206598Y0051312D01*
X0206438Y0051324D01*
X0206278Y0051340D01*
X0206118Y0051360D01*
X0205959Y0051384D01*
X0205801Y0051412D01*
X0205643Y0051443D01*
X0205487Y0051479D01*
X0205331Y0051518D01*
X0205176Y0051561D01*
X0205022Y0051608D01*
X0204869Y0051659D01*
X0204718Y0051714D01*
X0204568Y0051772D01*
X0204420Y0051834D01*
X0204273Y0051900D01*
X0204128Y0051969D01*
X0203985Y0052042D01*
X0203843Y0052118D01*
X0203704Y0052198D01*
X0203566Y0052281D01*
X0203431Y0052368D01*
X0203297Y0052458D01*
X0203166Y0052551D01*
X0203038Y0052647D01*
X0202912Y0052747D01*
X0202788Y0052850D01*
X0202667Y0052955D01*
X0202548Y0053064D01*
X0202432Y0053175D01*
X0202319Y0053290D01*
X0202209Y0053407D01*
X0202102Y0053527D01*
X0201998Y0053649D01*
X0201897Y0053774D01*
X0201799Y0053902D01*
X0201704Y0054032D01*
X0201612Y0054164D01*
X0201524Y0054298D01*
X0201439Y0054435D01*
X0201357Y0054573D01*
X0201279Y0054714D01*
X0201205Y0054856D01*
X0201134Y0055000D01*
X0201066Y0055146D01*
X0201003Y0055294D01*
X0200942Y0055443D01*
X0200886Y0055594D01*
X0200833Y0055746D01*
X0200784Y0055899D01*
X0200739Y0056053D01*
X0200698Y0056208D01*
X0200660Y0056365D01*
X0200627Y0056522D01*
X0200597Y0056680D01*
X0200571Y0056839D01*
X0200550Y0056998D01*
X0200532Y0057158D01*
X0200518Y0057318D01*
X0200508Y0057479D01*
X0200502Y0057639D01*
X0200500Y0057800D01*
X0248988Y0031800D02*
X0248990Y0031948D01*
X0248996Y0032096D01*
X0249006Y0032244D01*
X0249020Y0032391D01*
X0249038Y0032538D01*
X0249059Y0032684D01*
X0249085Y0032830D01*
X0249115Y0032975D01*
X0249148Y0033119D01*
X0249186Y0033262D01*
X0249227Y0033404D01*
X0249272Y0033545D01*
X0249320Y0033685D01*
X0249373Y0033824D01*
X0249429Y0033961D01*
X0249489Y0034096D01*
X0249552Y0034230D01*
X0249619Y0034362D01*
X0249690Y0034492D01*
X0249764Y0034620D01*
X0249841Y0034746D01*
X0249922Y0034870D01*
X0250006Y0034992D01*
X0250093Y0035111D01*
X0250184Y0035228D01*
X0250278Y0035343D01*
X0250374Y0035455D01*
X0250474Y0035565D01*
X0250576Y0035671D01*
X0250682Y0035775D01*
X0250790Y0035876D01*
X0250901Y0035974D01*
X0251014Y0036070D01*
X0251130Y0036162D01*
X0251248Y0036251D01*
X0251369Y0036336D01*
X0251492Y0036419D01*
X0251617Y0036498D01*
X0251744Y0036574D01*
X0251873Y0036646D01*
X0252004Y0036715D01*
X0252137Y0036780D01*
X0252272Y0036841D01*
X0252408Y0036899D01*
X0252545Y0036954D01*
X0252684Y0037004D01*
X0252825Y0037051D01*
X0252966Y0037094D01*
X0253109Y0037134D01*
X0253253Y0037169D01*
X0253397Y0037201D01*
X0253543Y0037228D01*
X0253689Y0037252D01*
X0253836Y0037272D01*
X0253983Y0037288D01*
X0254130Y0037300D01*
X0254278Y0037308D01*
X0254426Y0037312D01*
X0254574Y0037312D01*
X0254722Y0037308D01*
X0254870Y0037300D01*
X0255017Y0037288D01*
X0255164Y0037272D01*
X0255311Y0037252D01*
X0255457Y0037228D01*
X0255603Y0037201D01*
X0255747Y0037169D01*
X0255891Y0037134D01*
X0256034Y0037094D01*
X0256175Y0037051D01*
X0256316Y0037004D01*
X0256455Y0036954D01*
X0256592Y0036899D01*
X0256728Y0036841D01*
X0256863Y0036780D01*
X0256996Y0036715D01*
X0257127Y0036646D01*
X0257256Y0036574D01*
X0257383Y0036498D01*
X0257508Y0036419D01*
X0257631Y0036336D01*
X0257752Y0036251D01*
X0257870Y0036162D01*
X0257986Y0036070D01*
X0258099Y0035974D01*
X0258210Y0035876D01*
X0258318Y0035775D01*
X0258424Y0035671D01*
X0258526Y0035565D01*
X0258626Y0035455D01*
X0258722Y0035343D01*
X0258816Y0035228D01*
X0258907Y0035111D01*
X0258994Y0034992D01*
X0259078Y0034870D01*
X0259159Y0034746D01*
X0259236Y0034620D01*
X0259310Y0034492D01*
X0259381Y0034362D01*
X0259448Y0034230D01*
X0259511Y0034096D01*
X0259571Y0033961D01*
X0259627Y0033824D01*
X0259680Y0033685D01*
X0259728Y0033545D01*
X0259773Y0033404D01*
X0259814Y0033262D01*
X0259852Y0033119D01*
X0259885Y0032975D01*
X0259915Y0032830D01*
X0259941Y0032684D01*
X0259962Y0032538D01*
X0259980Y0032391D01*
X0259994Y0032244D01*
X0260004Y0032096D01*
X0260010Y0031948D01*
X0260012Y0031800D01*
X0260010Y0031652D01*
X0260004Y0031504D01*
X0259994Y0031356D01*
X0259980Y0031209D01*
X0259962Y0031062D01*
X0259941Y0030916D01*
X0259915Y0030770D01*
X0259885Y0030625D01*
X0259852Y0030481D01*
X0259814Y0030338D01*
X0259773Y0030196D01*
X0259728Y0030055D01*
X0259680Y0029915D01*
X0259627Y0029776D01*
X0259571Y0029639D01*
X0259511Y0029504D01*
X0259448Y0029370D01*
X0259381Y0029238D01*
X0259310Y0029108D01*
X0259236Y0028980D01*
X0259159Y0028854D01*
X0259078Y0028730D01*
X0258994Y0028608D01*
X0258907Y0028489D01*
X0258816Y0028372D01*
X0258722Y0028257D01*
X0258626Y0028145D01*
X0258526Y0028035D01*
X0258424Y0027929D01*
X0258318Y0027825D01*
X0258210Y0027724D01*
X0258099Y0027626D01*
X0257986Y0027530D01*
X0257870Y0027438D01*
X0257752Y0027349D01*
X0257631Y0027264D01*
X0257508Y0027181D01*
X0257383Y0027102D01*
X0257256Y0027026D01*
X0257127Y0026954D01*
X0256996Y0026885D01*
X0256863Y0026820D01*
X0256728Y0026759D01*
X0256592Y0026701D01*
X0256455Y0026646D01*
X0256316Y0026596D01*
X0256175Y0026549D01*
X0256034Y0026506D01*
X0255891Y0026466D01*
X0255747Y0026431D01*
X0255603Y0026399D01*
X0255457Y0026372D01*
X0255311Y0026348D01*
X0255164Y0026328D01*
X0255017Y0026312D01*
X0254870Y0026300D01*
X0254722Y0026292D01*
X0254574Y0026288D01*
X0254426Y0026288D01*
X0254278Y0026292D01*
X0254130Y0026300D01*
X0253983Y0026312D01*
X0253836Y0026328D01*
X0253689Y0026348D01*
X0253543Y0026372D01*
X0253397Y0026399D01*
X0253253Y0026431D01*
X0253109Y0026466D01*
X0252966Y0026506D01*
X0252825Y0026549D01*
X0252684Y0026596D01*
X0252545Y0026646D01*
X0252408Y0026701D01*
X0252272Y0026759D01*
X0252137Y0026820D01*
X0252004Y0026885D01*
X0251873Y0026954D01*
X0251744Y0027026D01*
X0251617Y0027102D01*
X0251492Y0027181D01*
X0251369Y0027264D01*
X0251248Y0027349D01*
X0251130Y0027438D01*
X0251014Y0027530D01*
X0250901Y0027626D01*
X0250790Y0027724D01*
X0250682Y0027825D01*
X0250576Y0027929D01*
X0250474Y0028035D01*
X0250374Y0028145D01*
X0250278Y0028257D01*
X0250184Y0028372D01*
X0250093Y0028489D01*
X0250006Y0028608D01*
X0249922Y0028730D01*
X0249841Y0028854D01*
X0249764Y0028980D01*
X0249690Y0029108D01*
X0249619Y0029238D01*
X0249552Y0029370D01*
X0249489Y0029504D01*
X0249429Y0029639D01*
X0249373Y0029776D01*
X0249320Y0029915D01*
X0249272Y0030055D01*
X0249227Y0030196D01*
X0249186Y0030338D01*
X0249148Y0030481D01*
X0249115Y0030625D01*
X0249085Y0030770D01*
X0249059Y0030916D01*
X0249038Y0031062D01*
X0249020Y0031209D01*
X0249006Y0031356D01*
X0248996Y0031504D01*
X0248990Y0031652D01*
X0248988Y0031800D01*
X0248988Y0371800D02*
X0248990Y0371948D01*
X0248996Y0372096D01*
X0249006Y0372244D01*
X0249020Y0372391D01*
X0249038Y0372538D01*
X0249059Y0372684D01*
X0249085Y0372830D01*
X0249115Y0372975D01*
X0249148Y0373119D01*
X0249186Y0373262D01*
X0249227Y0373404D01*
X0249272Y0373545D01*
X0249320Y0373685D01*
X0249373Y0373824D01*
X0249429Y0373961D01*
X0249489Y0374096D01*
X0249552Y0374230D01*
X0249619Y0374362D01*
X0249690Y0374492D01*
X0249764Y0374620D01*
X0249841Y0374746D01*
X0249922Y0374870D01*
X0250006Y0374992D01*
X0250093Y0375111D01*
X0250184Y0375228D01*
X0250278Y0375343D01*
X0250374Y0375455D01*
X0250474Y0375565D01*
X0250576Y0375671D01*
X0250682Y0375775D01*
X0250790Y0375876D01*
X0250901Y0375974D01*
X0251014Y0376070D01*
X0251130Y0376162D01*
X0251248Y0376251D01*
X0251369Y0376336D01*
X0251492Y0376419D01*
X0251617Y0376498D01*
X0251744Y0376574D01*
X0251873Y0376646D01*
X0252004Y0376715D01*
X0252137Y0376780D01*
X0252272Y0376841D01*
X0252408Y0376899D01*
X0252545Y0376954D01*
X0252684Y0377004D01*
X0252825Y0377051D01*
X0252966Y0377094D01*
X0253109Y0377134D01*
X0253253Y0377169D01*
X0253397Y0377201D01*
X0253543Y0377228D01*
X0253689Y0377252D01*
X0253836Y0377272D01*
X0253983Y0377288D01*
X0254130Y0377300D01*
X0254278Y0377308D01*
X0254426Y0377312D01*
X0254574Y0377312D01*
X0254722Y0377308D01*
X0254870Y0377300D01*
X0255017Y0377288D01*
X0255164Y0377272D01*
X0255311Y0377252D01*
X0255457Y0377228D01*
X0255603Y0377201D01*
X0255747Y0377169D01*
X0255891Y0377134D01*
X0256034Y0377094D01*
X0256175Y0377051D01*
X0256316Y0377004D01*
X0256455Y0376954D01*
X0256592Y0376899D01*
X0256728Y0376841D01*
X0256863Y0376780D01*
X0256996Y0376715D01*
X0257127Y0376646D01*
X0257256Y0376574D01*
X0257383Y0376498D01*
X0257508Y0376419D01*
X0257631Y0376336D01*
X0257752Y0376251D01*
X0257870Y0376162D01*
X0257986Y0376070D01*
X0258099Y0375974D01*
X0258210Y0375876D01*
X0258318Y0375775D01*
X0258424Y0375671D01*
X0258526Y0375565D01*
X0258626Y0375455D01*
X0258722Y0375343D01*
X0258816Y0375228D01*
X0258907Y0375111D01*
X0258994Y0374992D01*
X0259078Y0374870D01*
X0259159Y0374746D01*
X0259236Y0374620D01*
X0259310Y0374492D01*
X0259381Y0374362D01*
X0259448Y0374230D01*
X0259511Y0374096D01*
X0259571Y0373961D01*
X0259627Y0373824D01*
X0259680Y0373685D01*
X0259728Y0373545D01*
X0259773Y0373404D01*
X0259814Y0373262D01*
X0259852Y0373119D01*
X0259885Y0372975D01*
X0259915Y0372830D01*
X0259941Y0372684D01*
X0259962Y0372538D01*
X0259980Y0372391D01*
X0259994Y0372244D01*
X0260004Y0372096D01*
X0260010Y0371948D01*
X0260012Y0371800D01*
X0260010Y0371652D01*
X0260004Y0371504D01*
X0259994Y0371356D01*
X0259980Y0371209D01*
X0259962Y0371062D01*
X0259941Y0370916D01*
X0259915Y0370770D01*
X0259885Y0370625D01*
X0259852Y0370481D01*
X0259814Y0370338D01*
X0259773Y0370196D01*
X0259728Y0370055D01*
X0259680Y0369915D01*
X0259627Y0369776D01*
X0259571Y0369639D01*
X0259511Y0369504D01*
X0259448Y0369370D01*
X0259381Y0369238D01*
X0259310Y0369108D01*
X0259236Y0368980D01*
X0259159Y0368854D01*
X0259078Y0368730D01*
X0258994Y0368608D01*
X0258907Y0368489D01*
X0258816Y0368372D01*
X0258722Y0368257D01*
X0258626Y0368145D01*
X0258526Y0368035D01*
X0258424Y0367929D01*
X0258318Y0367825D01*
X0258210Y0367724D01*
X0258099Y0367626D01*
X0257986Y0367530D01*
X0257870Y0367438D01*
X0257752Y0367349D01*
X0257631Y0367264D01*
X0257508Y0367181D01*
X0257383Y0367102D01*
X0257256Y0367026D01*
X0257127Y0366954D01*
X0256996Y0366885D01*
X0256863Y0366820D01*
X0256728Y0366759D01*
X0256592Y0366701D01*
X0256455Y0366646D01*
X0256316Y0366596D01*
X0256175Y0366549D01*
X0256034Y0366506D01*
X0255891Y0366466D01*
X0255747Y0366431D01*
X0255603Y0366399D01*
X0255457Y0366372D01*
X0255311Y0366348D01*
X0255164Y0366328D01*
X0255017Y0366312D01*
X0254870Y0366300D01*
X0254722Y0366292D01*
X0254574Y0366288D01*
X0254426Y0366288D01*
X0254278Y0366292D01*
X0254130Y0366300D01*
X0253983Y0366312D01*
X0253836Y0366328D01*
X0253689Y0366348D01*
X0253543Y0366372D01*
X0253397Y0366399D01*
X0253253Y0366431D01*
X0253109Y0366466D01*
X0252966Y0366506D01*
X0252825Y0366549D01*
X0252684Y0366596D01*
X0252545Y0366646D01*
X0252408Y0366701D01*
X0252272Y0366759D01*
X0252137Y0366820D01*
X0252004Y0366885D01*
X0251873Y0366954D01*
X0251744Y0367026D01*
X0251617Y0367102D01*
X0251492Y0367181D01*
X0251369Y0367264D01*
X0251248Y0367349D01*
X0251130Y0367438D01*
X0251014Y0367530D01*
X0250901Y0367626D01*
X0250790Y0367724D01*
X0250682Y0367825D01*
X0250576Y0367929D01*
X0250474Y0368035D01*
X0250374Y0368145D01*
X0250278Y0368257D01*
X0250184Y0368372D01*
X0250093Y0368489D01*
X0250006Y0368608D01*
X0249922Y0368730D01*
X0249841Y0368854D01*
X0249764Y0368980D01*
X0249690Y0369108D01*
X0249619Y0369238D01*
X0249552Y0369370D01*
X0249489Y0369504D01*
X0249429Y0369639D01*
X0249373Y0369776D01*
X0249320Y0369915D01*
X0249272Y0370055D01*
X0249227Y0370196D01*
X0249186Y0370338D01*
X0249148Y0370481D01*
X0249115Y0370625D01*
X0249085Y0370770D01*
X0249059Y0370916D01*
X0249038Y0371062D01*
X0249020Y0371209D01*
X0249006Y0371356D01*
X0248996Y0371504D01*
X0248990Y0371652D01*
X0248988Y0371800D01*
D14*
X0247499Y0283053D02*
X0246749Y0283053D01*
X0245998Y0282302D01*
X0245998Y0280050D01*
X0247499Y0280050D01*
X0248250Y0280801D01*
X0248250Y0282302D01*
X0247499Y0283053D01*
X0244497Y0281551D02*
X0245998Y0280050D01*
X0244497Y0281551D02*
X0243746Y0283053D01*
X0243997Y0258864D02*
X0243246Y0258114D01*
X0243246Y0256612D01*
X0243997Y0255862D01*
X0246999Y0255862D01*
X0243997Y0258864D01*
X0246999Y0258864D01*
X0247750Y0258114D01*
X0247750Y0256612D01*
X0246999Y0255862D01*
X0247750Y0254260D02*
X0247750Y0251258D01*
X0247750Y0252759D02*
X0243246Y0252759D01*
X0244747Y0251258D01*
X0243997Y0249656D02*
X0243246Y0248906D01*
X0243246Y0247405D01*
X0243997Y0246654D01*
X0244747Y0246654D01*
X0245498Y0247405D01*
X0245498Y0248906D01*
X0246249Y0249656D01*
X0246999Y0249656D01*
X0247750Y0248906D01*
X0247750Y0247405D01*
X0246999Y0246654D01*
X0247750Y0245053D02*
X0247750Y0242050D01*
X0243246Y0242050D01*
X0243246Y0245053D01*
X0245498Y0243551D02*
X0245498Y0242050D01*
X0242496Y0248155D02*
X0248501Y0248155D01*
X0248250Y0233053D02*
X0248250Y0230050D01*
X0248250Y0231551D02*
X0243746Y0231551D01*
X0245247Y0230050D01*
X0198250Y0230050D02*
X0198250Y0233053D01*
X0198250Y0231551D02*
X0193746Y0231551D01*
X0195247Y0230050D01*
X0193246Y0242050D02*
X0194747Y0243551D01*
X0193246Y0245053D01*
X0197750Y0245053D01*
X0197750Y0246654D02*
X0197750Y0248906D01*
X0196999Y0249656D01*
X0193997Y0249656D01*
X0193246Y0248906D01*
X0193246Y0246654D01*
X0197750Y0246654D01*
X0197750Y0251258D02*
X0197750Y0254260D01*
X0197750Y0252759D02*
X0193246Y0252759D01*
X0194747Y0251258D01*
X0193246Y0242050D02*
X0197750Y0242050D01*
X0197499Y0280050D02*
X0198250Y0280801D01*
X0198250Y0282302D01*
X0197499Y0283053D01*
X0196749Y0283053D01*
X0195998Y0282302D01*
X0195998Y0280050D01*
X0197499Y0280050D01*
X0195998Y0280050D02*
X0194497Y0281551D01*
X0193746Y0283053D01*
X0158250Y0280050D02*
X0157499Y0280050D01*
X0154497Y0283053D01*
X0153746Y0283053D01*
X0153746Y0280050D01*
X0155247Y0290050D02*
X0153746Y0291551D01*
X0158250Y0291551D01*
X0158250Y0290050D02*
X0158250Y0293053D01*
X0157750Y0302050D02*
X0153246Y0302050D01*
X0153246Y0305053D01*
X0153997Y0306654D02*
X0153246Y0307405D01*
X0153246Y0308906D01*
X0153997Y0309656D01*
X0153997Y0311258D02*
X0153246Y0312008D01*
X0153246Y0313510D01*
X0153997Y0314260D01*
X0154747Y0314260D01*
X0157750Y0311258D01*
X0157750Y0314260D01*
X0156999Y0309656D02*
X0156249Y0309656D01*
X0155498Y0308906D01*
X0155498Y0307405D01*
X0154747Y0306654D01*
X0153997Y0306654D01*
X0152496Y0308155D02*
X0158501Y0308155D01*
X0157750Y0307405D02*
X0156999Y0306654D01*
X0157750Y0307405D02*
X0157750Y0308906D01*
X0156999Y0309656D01*
X0157750Y0305053D02*
X0157750Y0302050D01*
X0155498Y0302050D02*
X0155498Y0303551D01*
X0155498Y0244260D02*
X0156999Y0244260D01*
X0157750Y0243510D01*
X0157750Y0242008D01*
X0156999Y0241258D01*
X0155498Y0241258D02*
X0154747Y0242759D01*
X0154747Y0243510D01*
X0155498Y0244260D01*
X0153246Y0244260D02*
X0153246Y0241258D01*
X0155498Y0241258D01*
X0156249Y0239656D02*
X0155498Y0238906D01*
X0155498Y0237405D01*
X0154747Y0236654D01*
X0153997Y0236654D01*
X0153246Y0237405D01*
X0153246Y0238906D01*
X0153997Y0239656D01*
X0152496Y0238155D02*
X0158501Y0238155D01*
X0157750Y0237405D02*
X0157750Y0238906D01*
X0156999Y0239656D01*
X0156249Y0239656D01*
X0157750Y0237405D02*
X0156999Y0236654D01*
X0157750Y0235053D02*
X0157750Y0232050D01*
X0153246Y0232050D01*
X0153246Y0235053D01*
X0155498Y0233551D02*
X0155498Y0232050D01*
X0158250Y0223053D02*
X0158250Y0220050D01*
X0158250Y0221551D02*
X0153746Y0221551D01*
X0155247Y0220050D01*
X0160750Y0184054D02*
X0160750Y0181802D01*
X0162251Y0182553D01*
X0163002Y0182553D01*
X0163753Y0181802D01*
X0163753Y0180301D01*
X0163002Y0179550D01*
X0161501Y0179550D01*
X0160750Y0180301D01*
X0160750Y0184054D02*
X0163753Y0184054D01*
X0163750Y0160304D02*
X0165251Y0160304D01*
X0164501Y0160304D02*
X0164501Y0155800D01*
X0165251Y0155800D02*
X0163750Y0155800D01*
X0166819Y0156551D02*
X0166819Y0159553D01*
X0167570Y0160304D01*
X0169071Y0160304D01*
X0169822Y0159553D01*
X0171423Y0159553D02*
X0172174Y0160304D01*
X0173675Y0160304D01*
X0174426Y0159553D01*
X0174426Y0158803D01*
X0171423Y0155800D01*
X0174426Y0155800D01*
X0169822Y0156551D02*
X0169071Y0155800D01*
X0167570Y0155800D01*
X0166819Y0156551D01*
X0125514Y0209250D02*
X0126264Y0210001D01*
X0126264Y0210751D01*
X0125514Y0211502D01*
X0124763Y0211502D01*
X0125514Y0211502D02*
X0126264Y0212253D01*
X0126264Y0213003D01*
X0125514Y0213754D01*
X0124012Y0213754D01*
X0123262Y0213003D01*
X0123262Y0210001D02*
X0124012Y0209250D01*
X0125514Y0209250D01*
X0121660Y0209250D02*
X0118658Y0209250D01*
X0120159Y0209250D02*
X0120159Y0213754D01*
X0118658Y0212253D01*
X0117056Y0213003D02*
X0116306Y0213754D01*
X0114805Y0213754D01*
X0114054Y0213003D01*
X0114054Y0212253D01*
X0114805Y0211502D01*
X0116306Y0211502D01*
X0117056Y0210751D01*
X0117056Y0210001D01*
X0116306Y0209250D01*
X0114805Y0209250D01*
X0114054Y0210001D01*
X0112453Y0209250D02*
X0109450Y0209250D01*
X0109450Y0213754D01*
X0112453Y0213754D01*
X0111660Y0213754D02*
X0110159Y0213003D01*
X0108658Y0211502D01*
X0110910Y0211502D01*
X0111660Y0210751D01*
X0111660Y0210001D01*
X0110910Y0209250D01*
X0109408Y0209250D01*
X0108658Y0210001D01*
X0108658Y0211502D01*
X0109450Y0211502D02*
X0110951Y0211502D01*
X0107056Y0210751D02*
X0106306Y0211502D01*
X0104805Y0211502D01*
X0104054Y0212253D01*
X0104054Y0213003D01*
X0104805Y0213754D01*
X0106306Y0213754D01*
X0107056Y0213003D01*
X0105555Y0214504D02*
X0105555Y0208499D01*
X0104805Y0209250D02*
X0104054Y0210001D01*
X0104805Y0209250D02*
X0106306Y0209250D01*
X0107056Y0210001D01*
X0107056Y0210751D01*
X0102453Y0209250D02*
X0099450Y0209250D01*
X0099450Y0213754D01*
X0102453Y0213754D01*
X0100951Y0211502D02*
X0099450Y0211502D01*
X0098250Y0211551D02*
X0093746Y0211551D01*
X0095247Y0210050D01*
X0098250Y0210050D02*
X0098250Y0213053D01*
X0097750Y0222050D02*
X0093246Y0222050D01*
X0093246Y0225053D01*
X0093997Y0226654D02*
X0093246Y0227405D01*
X0093246Y0228906D01*
X0093997Y0229656D01*
X0095498Y0228906D02*
X0095498Y0227405D01*
X0094747Y0226654D01*
X0093997Y0226654D01*
X0092496Y0228155D02*
X0098501Y0228155D01*
X0097750Y0227405D02*
X0097750Y0228906D01*
X0096999Y0229656D01*
X0096249Y0229656D01*
X0095498Y0228906D01*
X0094747Y0231258D02*
X0093246Y0232759D01*
X0097750Y0232759D01*
X0097750Y0231258D02*
X0097750Y0234260D01*
X0097750Y0227405D02*
X0096999Y0226654D01*
X0097750Y0225053D02*
X0097750Y0222050D01*
X0095498Y0222050D02*
X0095498Y0223551D01*
X0109750Y0193054D02*
X0111251Y0193054D01*
X0110501Y0193054D02*
X0110501Y0188550D01*
X0111251Y0188550D02*
X0109750Y0188550D01*
X0106751Y0184054D02*
X0106751Y0179550D01*
X0105250Y0179550D02*
X0108253Y0179550D01*
X0105250Y0182553D02*
X0106751Y0184054D01*
X0112819Y0188550D02*
X0112819Y0193054D01*
X0114321Y0191553D01*
X0115822Y0193054D01*
X0115822Y0188550D01*
X0117423Y0189301D02*
X0118174Y0188550D01*
X0119675Y0188550D01*
X0120426Y0189301D01*
X0120426Y0193054D01*
X0117423Y0193054D02*
X0117423Y0189301D01*
X0115555Y0208499D02*
X0115555Y0214504D01*
X0082924Y0160304D02*
X0082924Y0155800D01*
X0081423Y0155800D02*
X0084426Y0155800D01*
X0081423Y0158803D02*
X0082924Y0160304D01*
X0079822Y0159553D02*
X0079071Y0160304D01*
X0077570Y0160304D01*
X0076819Y0159553D01*
X0076819Y0156551D01*
X0077570Y0155800D01*
X0079071Y0155800D01*
X0079822Y0156551D01*
X0075251Y0155800D02*
X0073750Y0155800D01*
X0074501Y0155800D02*
X0074501Y0160304D01*
X0075251Y0160304D02*
X0073750Y0160304D01*
X0058250Y0230050D02*
X0058250Y0233053D01*
X0058250Y0231551D02*
X0053746Y0231551D01*
X0055247Y0230050D01*
X0055498Y0242050D02*
X0055498Y0243551D01*
X0053246Y0245053D02*
X0053246Y0242050D01*
X0057750Y0242050D01*
X0057750Y0245053D01*
X0056999Y0246654D02*
X0057750Y0247405D01*
X0057750Y0248906D01*
X0056999Y0249656D01*
X0056249Y0249656D01*
X0055498Y0248906D01*
X0055498Y0247405D01*
X0054747Y0246654D01*
X0053997Y0246654D01*
X0053246Y0247405D01*
X0053246Y0248906D01*
X0053997Y0249656D01*
X0053997Y0251258D02*
X0054747Y0251258D01*
X0055498Y0252008D01*
X0055498Y0253510D01*
X0056249Y0254260D01*
X0056999Y0254260D01*
X0057750Y0253510D01*
X0057750Y0252008D01*
X0056999Y0251258D01*
X0056249Y0251258D01*
X0055498Y0252008D01*
X0055498Y0253510D02*
X0054747Y0254260D01*
X0053997Y0254260D01*
X0053246Y0253510D01*
X0053246Y0252008D01*
X0053997Y0251258D01*
X0052496Y0248155D02*
X0058501Y0248155D01*
X0057499Y0280050D02*
X0055998Y0280050D01*
X0055998Y0282302D01*
X0056749Y0283053D01*
X0057499Y0283053D01*
X0058250Y0282302D01*
X0058250Y0280801D01*
X0057499Y0280050D01*
X0055998Y0280050D02*
X0054497Y0281551D01*
X0053746Y0283053D01*
X0025250Y0282449D02*
X0025250Y0279446D01*
X0025250Y0280947D02*
X0020746Y0280947D01*
X0022247Y0279446D01*
X0021997Y0270449D02*
X0021246Y0269698D01*
X0021246Y0268197D01*
X0021997Y0267446D01*
X0021997Y0265845D02*
X0021246Y0265094D01*
X0021246Y0262842D01*
X0025750Y0262842D01*
X0025750Y0265094D01*
X0024999Y0265845D01*
X0021997Y0265845D01*
X0025750Y0267446D02*
X0022747Y0270449D01*
X0021997Y0270449D01*
X0025750Y0270449D02*
X0025750Y0267446D01*
X0025750Y0261241D02*
X0021246Y0261241D01*
X0022747Y0259739D01*
X0021246Y0258238D01*
X0025750Y0258238D01*
X0024499Y0232449D02*
X0023749Y0232449D01*
X0022998Y0231698D01*
X0022998Y0229446D01*
X0024499Y0229446D01*
X0025250Y0230197D01*
X0025250Y0231698D01*
X0024499Y0232449D01*
X0021497Y0230947D02*
X0022998Y0229446D01*
X0021497Y0230947D02*
X0020746Y0232449D01*
X0021997Y0309946D02*
X0021246Y0310697D01*
X0021246Y0312198D01*
X0021997Y0312949D01*
X0022747Y0312949D01*
X0023498Y0312198D01*
X0023498Y0310697D01*
X0022747Y0309946D01*
X0021997Y0309946D01*
X0023498Y0310697D02*
X0024249Y0309946D01*
X0024999Y0309946D01*
X0025750Y0310697D01*
X0025750Y0312198D01*
X0024999Y0312949D01*
X0024249Y0312949D01*
X0023498Y0312198D01*
X0023498Y0373238D02*
X0023498Y0374739D01*
X0021246Y0373238D02*
X0025750Y0373238D01*
X0025750Y0376241D01*
X0025750Y0377842D02*
X0021246Y0380845D01*
X0021246Y0382446D02*
X0021246Y0385449D01*
X0021246Y0383947D02*
X0025750Y0383947D01*
X0025750Y0380845D02*
X0021246Y0377842D01*
X0021246Y0376241D02*
X0021246Y0373238D01*
X0007750Y0379446D02*
X0007750Y0382449D01*
X0007750Y0380947D02*
X0003246Y0380947D01*
X0004747Y0379446D01*
X0093246Y0323551D02*
X0094747Y0325053D01*
X0097750Y0325053D01*
X0096999Y0326654D02*
X0093997Y0329656D01*
X0093997Y0328155D02*
X0096999Y0328155D01*
X0096999Y0329656D02*
X0093997Y0326654D01*
X0095498Y0326654D02*
X0095498Y0329656D01*
X0095498Y0325053D02*
X0095498Y0322050D01*
X0094747Y0322050D02*
X0093246Y0323551D01*
X0094747Y0322050D02*
X0097750Y0322050D01*
X0098250Y0313053D02*
X0098250Y0310050D01*
X0098250Y0311551D02*
X0093746Y0311551D01*
X0095247Y0310050D01*
X0094497Y0305156D02*
X0097499Y0302154D01*
X0098250Y0302905D01*
X0098250Y0304406D01*
X0097499Y0305156D01*
X0094497Y0305156D01*
X0093746Y0304406D01*
X0093746Y0302905D01*
X0094497Y0302154D01*
X0097499Y0302154D01*
X0098250Y0300553D02*
X0098250Y0297550D01*
X0098250Y0299051D02*
X0093746Y0299051D01*
X0095247Y0297550D01*
X0095998Y0360050D02*
X0095998Y0362302D01*
X0096749Y0363053D01*
X0097499Y0363053D01*
X0098250Y0362302D01*
X0098250Y0360801D01*
X0097499Y0360050D01*
X0095998Y0360050D01*
X0094497Y0361551D01*
X0093746Y0363053D01*
X0153746Y0379051D02*
X0155247Y0377550D01*
X0153746Y0379051D02*
X0158250Y0379051D01*
X0158250Y0377550D02*
X0158250Y0380553D01*
X0157499Y0382154D02*
X0154497Y0385156D01*
X0157499Y0385156D01*
X0158250Y0384406D01*
X0158250Y0382905D01*
X0157499Y0382154D01*
X0154497Y0382154D01*
X0153746Y0382905D01*
X0153746Y0384406D01*
X0154497Y0385156D01*
X0259809Y0119341D02*
X0264313Y0119341D01*
X0264313Y0117840D02*
X0264313Y0120842D01*
X0261310Y0117840D02*
X0259809Y0119341D01*
X0260560Y0116238D02*
X0259809Y0115488D01*
X0259809Y0113236D01*
X0264313Y0113236D01*
X0264313Y0115488D01*
X0263562Y0116238D01*
X0260560Y0116238D01*
X0235063Y0023054D02*
X0235063Y0018550D01*
X0233562Y0018550D02*
X0236564Y0018550D01*
X0233562Y0021553D02*
X0235063Y0023054D01*
X0231960Y0022303D02*
X0231210Y0023054D01*
X0229708Y0023054D01*
X0228958Y0022303D01*
X0228958Y0019301D01*
X0229708Y0018550D01*
X0231210Y0018550D01*
X0231960Y0019301D01*
X0227356Y0018550D02*
X0227356Y0023054D01*
X0224354Y0023054D02*
X0224354Y0018550D01*
X0222753Y0018550D02*
X0219750Y0018550D01*
X0219750Y0023054D01*
X0222753Y0023054D01*
X0224354Y0023054D02*
X0227356Y0018550D01*
X0221251Y0020802D02*
X0219750Y0020802D01*
X0216751Y0014054D02*
X0216751Y0009550D01*
X0215250Y0009550D02*
X0218253Y0009550D01*
X0215250Y0012553D02*
X0216751Y0014054D01*
X0183753Y0011802D02*
X0180750Y0011802D01*
X0183002Y0014054D01*
X0183002Y0009550D01*
X0147356Y0019301D02*
X0146606Y0018550D01*
X0145105Y0018550D01*
X0144354Y0019301D01*
X0142753Y0019301D02*
X0142753Y0023054D01*
X0144354Y0022303D02*
X0144354Y0021553D01*
X0145105Y0020802D01*
X0146606Y0020802D01*
X0147356Y0020051D01*
X0147356Y0019301D01*
X0147356Y0022303D02*
X0146606Y0023054D01*
X0145105Y0023054D01*
X0144354Y0022303D01*
X0142753Y0019301D02*
X0142002Y0018550D01*
X0140501Y0018550D01*
X0139750Y0019301D01*
X0139750Y0023054D01*
X0136751Y0014054D02*
X0135250Y0012553D01*
X0136751Y0014054D02*
X0136751Y0009550D01*
X0135250Y0009550D02*
X0138253Y0009550D01*
X0121168Y0019301D02*
X0121168Y0022303D01*
X0120418Y0023054D01*
X0118916Y0023054D01*
X0118166Y0022303D01*
X0118166Y0019301D01*
X0118916Y0018550D01*
X0120418Y0018550D01*
X0121168Y0019301D01*
X0116564Y0020051D02*
X0116564Y0023054D01*
X0113562Y0023054D02*
X0113562Y0020051D01*
X0115063Y0018550D01*
X0116564Y0020051D01*
X0111960Y0020802D02*
X0111210Y0020051D01*
X0108958Y0020051D01*
X0108958Y0018550D02*
X0108958Y0023054D01*
X0111210Y0023054D01*
X0111960Y0022303D01*
X0111960Y0020802D01*
X0110459Y0020051D02*
X0111960Y0018550D01*
X0107356Y0018550D02*
X0104354Y0018550D01*
X0104354Y0023054D01*
X0107356Y0023054D01*
X0105855Y0020802D02*
X0104354Y0020802D01*
X0102753Y0020051D02*
X0102753Y0019301D01*
X0102002Y0018550D01*
X0100501Y0018550D01*
X0099750Y0019301D01*
X0100501Y0020802D02*
X0102002Y0020802D01*
X0102753Y0020051D01*
X0102753Y0022303D02*
X0102002Y0023054D01*
X0100501Y0023054D01*
X0099750Y0022303D01*
X0099750Y0021553D01*
X0100501Y0020802D01*
X0096251Y0014054D02*
X0096251Y0009550D01*
X0094750Y0009550D02*
X0097753Y0009550D01*
X0094750Y0012553D02*
X0096251Y0014054D01*
X0053753Y0011802D02*
X0050750Y0011802D01*
X0053002Y0014054D01*
X0053002Y0009550D01*
X0026564Y0018550D02*
X0023562Y0018550D01*
X0026564Y0021553D01*
X0026564Y0022303D01*
X0025814Y0023054D01*
X0024312Y0023054D01*
X0023562Y0022303D01*
X0021960Y0022303D02*
X0021210Y0023054D01*
X0019708Y0023054D01*
X0018958Y0022303D01*
X0018958Y0019301D01*
X0019708Y0018550D01*
X0021210Y0018550D01*
X0021960Y0019301D01*
X0017356Y0018550D02*
X0017356Y0023054D01*
X0014354Y0023054D02*
X0014354Y0018550D01*
X0012753Y0018550D02*
X0009750Y0018550D01*
X0009750Y0023054D01*
X0012753Y0023054D01*
X0014354Y0023054D02*
X0017356Y0018550D01*
X0011251Y0020802D02*
X0009750Y0020802D01*
X0006751Y0014054D02*
X0005250Y0012553D01*
X0006751Y0014054D02*
X0006751Y0009550D01*
X0005250Y0009550D02*
X0008253Y0009550D01*
X0260750Y0011802D02*
X0263753Y0011802D01*
X0263002Y0009550D02*
X0263002Y0014054D01*
X0260750Y0011802D01*
D15*
X0223444Y0067100D02*
X0223444Y0068851D01*
X0222860Y0069435D01*
X0222277Y0068851D01*
X0222277Y0067100D01*
X0221109Y0067100D02*
X0221109Y0069435D01*
X0221693Y0069435D01*
X0222277Y0068851D01*
X0219853Y0068851D02*
X0219853Y0067100D01*
X0218686Y0067100D02*
X0218686Y0068851D01*
X0219269Y0069435D01*
X0219853Y0068851D01*
X0218686Y0068851D02*
X0218102Y0069435D01*
X0217518Y0069435D01*
X0217518Y0067100D01*
X0216262Y0067100D02*
X0213927Y0067100D01*
X0216262Y0069435D01*
X0216262Y0070019D01*
X0215678Y0070603D01*
X0214511Y0070603D01*
X0213927Y0070019D01*
X0212700Y0067684D02*
X0212117Y0067684D01*
X0212117Y0067100D01*
X0212700Y0067100D01*
X0212700Y0067684D01*
X0212700Y0067100D02*
X0211533Y0065932D01*
X0210277Y0067684D02*
X0209693Y0067100D01*
X0208526Y0067100D01*
X0207942Y0067684D01*
X0207942Y0068851D02*
X0209109Y0069435D01*
X0209693Y0069435D01*
X0210277Y0068851D01*
X0210277Y0067684D01*
X0207942Y0068851D02*
X0207942Y0070603D01*
X0210277Y0070603D01*
X0206686Y0067100D02*
X0204351Y0067100D01*
X0205518Y0067100D02*
X0205518Y0070603D01*
X0204351Y0069435D01*
X0203095Y0069435D02*
X0203095Y0067100D01*
X0203095Y0068851D02*
X0200760Y0068851D01*
X0200760Y0069435D02*
X0201927Y0070603D01*
X0203095Y0069435D01*
X0200760Y0069435D02*
X0200760Y0067100D01*
X0215759Y0135563D02*
X0215759Y0137865D01*
X0216526Y0138632D01*
X0219596Y0138632D01*
X0220363Y0137865D01*
X0220363Y0135563D01*
X0215759Y0135563D01*
X0216526Y0140167D02*
X0215759Y0140934D01*
X0215759Y0142469D01*
X0216526Y0143236D01*
X0217294Y0143236D01*
X0220363Y0140167D01*
X0220363Y0143236D01*
X0223122Y0140087D02*
X0223122Y0138513D01*
X0225878Y0138513D02*
X0225878Y0140087D01*
X0219300Y0157000D02*
X0214696Y0157000D01*
X0214696Y0159302D01*
X0215463Y0160069D01*
X0216998Y0160069D01*
X0217765Y0159302D01*
X0217765Y0157000D01*
X0217765Y0158535D02*
X0219300Y0160069D01*
X0219300Y0161604D02*
X0219300Y0164673D01*
X0219300Y0163139D02*
X0214696Y0163139D01*
X0216231Y0161604D01*
X0151153Y0129852D02*
X0150385Y0130620D01*
X0148851Y0130620D01*
X0148083Y0129852D01*
X0146549Y0129852D02*
X0145781Y0130620D01*
X0144247Y0130620D01*
X0143480Y0129852D01*
X0143480Y0129085D01*
X0144247Y0128318D01*
X0145781Y0128318D01*
X0146549Y0127550D01*
X0146549Y0126783D01*
X0145781Y0126016D01*
X0144247Y0126016D01*
X0143480Y0126783D01*
X0148083Y0126016D02*
X0151153Y0129085D01*
X0151153Y0129852D01*
X0151153Y0126016D02*
X0148083Y0126016D01*
X0131468Y0106331D02*
X0128398Y0106331D01*
X0129933Y0106331D02*
X0129933Y0110935D01*
X0128398Y0109400D01*
X0126864Y0110167D02*
X0126096Y0110935D01*
X0124562Y0110935D01*
X0123794Y0110167D01*
X0123794Y0109400D01*
X0124562Y0108633D01*
X0126096Y0108633D01*
X0126864Y0107865D01*
X0126864Y0107098D01*
X0126096Y0106331D01*
X0124562Y0106331D01*
X0123794Y0107098D01*
X0111015Y0126016D02*
X0111015Y0130620D01*
X0108713Y0128318D01*
X0111783Y0128318D01*
X0107179Y0127550D02*
X0107179Y0126783D01*
X0106411Y0126016D01*
X0104877Y0126016D01*
X0104109Y0126783D01*
X0104877Y0128318D02*
X0104109Y0129085D01*
X0104109Y0129852D01*
X0104877Y0130620D01*
X0106411Y0130620D01*
X0107179Y0129852D01*
X0106411Y0128318D02*
X0107179Y0127550D01*
X0106411Y0128318D02*
X0104877Y0128318D01*
X0123794Y0146468D02*
X0124562Y0145701D01*
X0126096Y0145701D01*
X0126864Y0146468D01*
X0126864Y0147235D01*
X0126096Y0148003D01*
X0124562Y0148003D01*
X0123794Y0148770D01*
X0123794Y0149537D01*
X0124562Y0150305D01*
X0126096Y0150305D01*
X0126864Y0149537D01*
X0128398Y0149537D02*
X0129166Y0150305D01*
X0130700Y0150305D01*
X0131468Y0149537D01*
X0131468Y0148770D01*
X0130700Y0148003D01*
X0131468Y0147235D01*
X0131468Y0146468D01*
X0130700Y0145701D01*
X0129166Y0145701D01*
X0128398Y0146468D01*
X0129933Y0148003D02*
X0130700Y0148003D01*
D16*
X0165641Y0149891D02*
X0165643Y0149979D01*
X0165649Y0150067D01*
X0165659Y0150155D01*
X0165673Y0150243D01*
X0165690Y0150329D01*
X0165712Y0150415D01*
X0165737Y0150499D01*
X0165767Y0150583D01*
X0165799Y0150665D01*
X0165836Y0150745D01*
X0165876Y0150824D01*
X0165920Y0150901D01*
X0165967Y0150976D01*
X0166017Y0151048D01*
X0166071Y0151119D01*
X0166127Y0151186D01*
X0166187Y0151252D01*
X0166249Y0151314D01*
X0166315Y0151374D01*
X0166382Y0151430D01*
X0166453Y0151484D01*
X0166525Y0151534D01*
X0166600Y0151581D01*
X0166677Y0151625D01*
X0166756Y0151665D01*
X0166836Y0151702D01*
X0166918Y0151734D01*
X0167002Y0151764D01*
X0167086Y0151789D01*
X0167172Y0151811D01*
X0167258Y0151828D01*
X0167346Y0151842D01*
X0167434Y0151852D01*
X0167522Y0151858D01*
X0167610Y0151860D01*
X0167698Y0151858D01*
X0167786Y0151852D01*
X0167874Y0151842D01*
X0167962Y0151828D01*
X0168048Y0151811D01*
X0168134Y0151789D01*
X0168218Y0151764D01*
X0168302Y0151734D01*
X0168384Y0151702D01*
X0168464Y0151665D01*
X0168543Y0151625D01*
X0168620Y0151581D01*
X0168695Y0151534D01*
X0168767Y0151484D01*
X0168838Y0151430D01*
X0168905Y0151374D01*
X0168971Y0151314D01*
X0169033Y0151252D01*
X0169093Y0151186D01*
X0169149Y0151119D01*
X0169203Y0151048D01*
X0169253Y0150976D01*
X0169300Y0150901D01*
X0169344Y0150824D01*
X0169384Y0150745D01*
X0169421Y0150665D01*
X0169453Y0150583D01*
X0169483Y0150499D01*
X0169508Y0150415D01*
X0169530Y0150329D01*
X0169547Y0150243D01*
X0169561Y0150155D01*
X0169571Y0150067D01*
X0169577Y0149979D01*
X0169579Y0149891D01*
X0169577Y0149803D01*
X0169571Y0149715D01*
X0169561Y0149627D01*
X0169547Y0149539D01*
X0169530Y0149453D01*
X0169508Y0149367D01*
X0169483Y0149283D01*
X0169453Y0149199D01*
X0169421Y0149117D01*
X0169384Y0149037D01*
X0169344Y0148958D01*
X0169300Y0148881D01*
X0169253Y0148806D01*
X0169203Y0148734D01*
X0169149Y0148663D01*
X0169093Y0148596D01*
X0169033Y0148530D01*
X0168971Y0148468D01*
X0168905Y0148408D01*
X0168838Y0148352D01*
X0168767Y0148298D01*
X0168695Y0148248D01*
X0168620Y0148201D01*
X0168543Y0148157D01*
X0168464Y0148117D01*
X0168384Y0148080D01*
X0168302Y0148048D01*
X0168218Y0148018D01*
X0168134Y0147993D01*
X0168048Y0147971D01*
X0167962Y0147954D01*
X0167874Y0147940D01*
X0167786Y0147930D01*
X0167698Y0147924D01*
X0167610Y0147922D01*
X0167522Y0147924D01*
X0167434Y0147930D01*
X0167346Y0147940D01*
X0167258Y0147954D01*
X0167172Y0147971D01*
X0167086Y0147993D01*
X0167002Y0148018D01*
X0166918Y0148048D01*
X0166836Y0148080D01*
X0166756Y0148117D01*
X0166677Y0148157D01*
X0166600Y0148201D01*
X0166525Y0148248D01*
X0166453Y0148298D01*
X0166382Y0148352D01*
X0166315Y0148408D01*
X0166249Y0148468D01*
X0166187Y0148530D01*
X0166127Y0148596D01*
X0166071Y0148663D01*
X0166017Y0148734D01*
X0165967Y0148806D01*
X0165920Y0148881D01*
X0165876Y0148958D01*
X0165836Y0149037D01*
X0165799Y0149117D01*
X0165767Y0149199D01*
X0165737Y0149283D01*
X0165712Y0149367D01*
X0165690Y0149453D01*
X0165673Y0149539D01*
X0165659Y0149627D01*
X0165649Y0149715D01*
X0165643Y0149803D01*
X0165641Y0149891D01*
X0189000Y0104300D02*
X0189000Y0071800D01*
X0225000Y0071800D01*
X0225000Y0104300D01*
X0189000Y0104300D01*
X0075641Y0149891D02*
X0075643Y0149979D01*
X0075649Y0150067D01*
X0075659Y0150155D01*
X0075673Y0150243D01*
X0075690Y0150329D01*
X0075712Y0150415D01*
X0075737Y0150499D01*
X0075767Y0150583D01*
X0075799Y0150665D01*
X0075836Y0150745D01*
X0075876Y0150824D01*
X0075920Y0150901D01*
X0075967Y0150976D01*
X0076017Y0151048D01*
X0076071Y0151119D01*
X0076127Y0151186D01*
X0076187Y0151252D01*
X0076249Y0151314D01*
X0076315Y0151374D01*
X0076382Y0151430D01*
X0076453Y0151484D01*
X0076525Y0151534D01*
X0076600Y0151581D01*
X0076677Y0151625D01*
X0076756Y0151665D01*
X0076836Y0151702D01*
X0076918Y0151734D01*
X0077002Y0151764D01*
X0077086Y0151789D01*
X0077172Y0151811D01*
X0077258Y0151828D01*
X0077346Y0151842D01*
X0077434Y0151852D01*
X0077522Y0151858D01*
X0077610Y0151860D01*
X0077698Y0151858D01*
X0077786Y0151852D01*
X0077874Y0151842D01*
X0077962Y0151828D01*
X0078048Y0151811D01*
X0078134Y0151789D01*
X0078218Y0151764D01*
X0078302Y0151734D01*
X0078384Y0151702D01*
X0078464Y0151665D01*
X0078543Y0151625D01*
X0078620Y0151581D01*
X0078695Y0151534D01*
X0078767Y0151484D01*
X0078838Y0151430D01*
X0078905Y0151374D01*
X0078971Y0151314D01*
X0079033Y0151252D01*
X0079093Y0151186D01*
X0079149Y0151119D01*
X0079203Y0151048D01*
X0079253Y0150976D01*
X0079300Y0150901D01*
X0079344Y0150824D01*
X0079384Y0150745D01*
X0079421Y0150665D01*
X0079453Y0150583D01*
X0079483Y0150499D01*
X0079508Y0150415D01*
X0079530Y0150329D01*
X0079547Y0150243D01*
X0079561Y0150155D01*
X0079571Y0150067D01*
X0079577Y0149979D01*
X0079579Y0149891D01*
X0079577Y0149803D01*
X0079571Y0149715D01*
X0079561Y0149627D01*
X0079547Y0149539D01*
X0079530Y0149453D01*
X0079508Y0149367D01*
X0079483Y0149283D01*
X0079453Y0149199D01*
X0079421Y0149117D01*
X0079384Y0149037D01*
X0079344Y0148958D01*
X0079300Y0148881D01*
X0079253Y0148806D01*
X0079203Y0148734D01*
X0079149Y0148663D01*
X0079093Y0148596D01*
X0079033Y0148530D01*
X0078971Y0148468D01*
X0078905Y0148408D01*
X0078838Y0148352D01*
X0078767Y0148298D01*
X0078695Y0148248D01*
X0078620Y0148201D01*
X0078543Y0148157D01*
X0078464Y0148117D01*
X0078384Y0148080D01*
X0078302Y0148048D01*
X0078218Y0148018D01*
X0078134Y0147993D01*
X0078048Y0147971D01*
X0077962Y0147954D01*
X0077874Y0147940D01*
X0077786Y0147930D01*
X0077698Y0147924D01*
X0077610Y0147922D01*
X0077522Y0147924D01*
X0077434Y0147930D01*
X0077346Y0147940D01*
X0077258Y0147954D01*
X0077172Y0147971D01*
X0077086Y0147993D01*
X0077002Y0148018D01*
X0076918Y0148048D01*
X0076836Y0148080D01*
X0076756Y0148117D01*
X0076677Y0148157D01*
X0076600Y0148201D01*
X0076525Y0148248D01*
X0076453Y0148298D01*
X0076382Y0148352D01*
X0076315Y0148408D01*
X0076249Y0148468D01*
X0076187Y0148530D01*
X0076127Y0148596D01*
X0076071Y0148663D01*
X0076017Y0148734D01*
X0075967Y0148806D01*
X0075920Y0148881D01*
X0075876Y0148958D01*
X0075836Y0149037D01*
X0075799Y0149117D01*
X0075767Y0149199D01*
X0075737Y0149283D01*
X0075712Y0149367D01*
X0075690Y0149453D01*
X0075673Y0149539D01*
X0075659Y0149627D01*
X0075649Y0149715D01*
X0075643Y0149803D01*
X0075641Y0149891D01*
D17*
X0251744Y0110816D02*
X0254500Y0114950D01*
X0257453Y0110816D01*
X0251744Y0110816D01*
D18*
X0254500Y0115146D03*
D19*
X0223368Y0138808D03*
D20*
X0219057Y0081455D02*
X0216955Y0081455D01*
X0215904Y0080404D01*
X0215904Y0076201D01*
X0216955Y0075150D01*
X0219057Y0075150D01*
X0220108Y0076201D01*
X0220108Y0078303D01*
X0218006Y0078303D01*
X0220108Y0080404D02*
X0219057Y0081455D01*
X0213663Y0081455D02*
X0209459Y0081455D01*
X0209459Y0075150D01*
X0213663Y0075150D01*
X0211561Y0078303D02*
X0209459Y0078303D01*
X0207217Y0078303D02*
X0207217Y0080404D01*
X0206166Y0081455D01*
X0203013Y0081455D01*
X0203013Y0075150D01*
X0203013Y0077252D02*
X0206166Y0077252D01*
X0207217Y0078303D01*
X0205115Y0077252D02*
X0207217Y0075150D01*
D21*
X0207000Y0108550D03*
X0197000Y0108550D03*
X0217000Y0108550D03*
D22*
X0184291Y0123800D02*
X0180588Y0123800D01*
X0180588Y0125652D01*
X0181205Y0126269D01*
X0182439Y0126269D01*
X0183057Y0125652D01*
X0183057Y0123800D01*
X0183057Y0125035D02*
X0184291Y0126269D01*
X0183674Y0127484D02*
X0184291Y0128101D01*
X0184291Y0129335D01*
X0183674Y0129952D01*
X0181205Y0129952D01*
X0180588Y0129335D01*
X0180588Y0128101D01*
X0181205Y0127484D01*
X0181822Y0127484D01*
X0182439Y0128101D01*
X0182439Y0129952D01*
X0176791Y0129335D02*
X0176791Y0128101D01*
X0176174Y0127484D01*
X0175557Y0127484D01*
X0174939Y0128101D01*
X0174939Y0129335D01*
X0175557Y0129952D01*
X0176174Y0129952D01*
X0176791Y0129335D01*
X0174939Y0129335D02*
X0174322Y0129952D01*
X0173705Y0129952D01*
X0173088Y0129335D01*
X0173088Y0128101D01*
X0173705Y0127484D01*
X0174322Y0127484D01*
X0174939Y0128101D01*
X0174939Y0126269D02*
X0175557Y0125652D01*
X0175557Y0123800D01*
X0176791Y0123800D02*
X0173088Y0123800D01*
X0173088Y0125652D01*
X0173705Y0126269D01*
X0174939Y0126269D01*
X0175557Y0125035D02*
X0176791Y0126269D01*
X0169291Y0126269D02*
X0168057Y0125035D01*
X0168057Y0125652D02*
X0168057Y0123800D01*
X0169291Y0123800D02*
X0165588Y0123800D01*
X0165588Y0125652D01*
X0166205Y0126269D01*
X0167439Y0126269D01*
X0168057Y0125652D01*
X0168674Y0127484D02*
X0169291Y0127484D01*
X0168674Y0127484D02*
X0166205Y0129952D01*
X0165588Y0129952D01*
X0165588Y0127484D01*
X0161791Y0128101D02*
X0161791Y0129335D01*
X0161174Y0129952D01*
X0160557Y0129952D01*
X0159939Y0129335D01*
X0159939Y0127484D01*
X0161174Y0127484D01*
X0161791Y0128101D01*
X0161791Y0126269D02*
X0160557Y0125035D01*
X0160557Y0125652D02*
X0160557Y0123800D01*
X0161791Y0123800D02*
X0158088Y0123800D01*
X0158088Y0125652D01*
X0158705Y0126269D01*
X0159939Y0126269D01*
X0160557Y0125652D01*
X0159939Y0127484D02*
X0158705Y0128718D01*
X0158088Y0129952D01*
X0086791Y0119335D02*
X0086791Y0118101D01*
X0086174Y0117484D01*
X0084939Y0117484D02*
X0084322Y0118718D01*
X0084322Y0119335D01*
X0084939Y0119952D01*
X0086174Y0119952D01*
X0086791Y0119335D01*
X0084939Y0117484D02*
X0083088Y0117484D01*
X0083088Y0119952D01*
X0083705Y0116269D02*
X0084939Y0116269D01*
X0085557Y0115652D01*
X0085557Y0113800D01*
X0086791Y0113800D02*
X0083088Y0113800D01*
X0083088Y0115652D01*
X0083705Y0116269D01*
X0085557Y0115035D02*
X0086791Y0116269D01*
X0079291Y0116269D02*
X0078057Y0115035D01*
X0078057Y0115652D02*
X0078057Y0113800D01*
X0079291Y0113800D02*
X0075588Y0113800D01*
X0075588Y0115652D01*
X0076205Y0116269D01*
X0077439Y0116269D01*
X0078057Y0115652D01*
X0077439Y0117484D02*
X0077439Y0119952D01*
X0075588Y0119335D02*
X0077439Y0117484D01*
X0075588Y0119335D02*
X0079291Y0119335D01*
X0071791Y0119335D02*
X0071791Y0118101D01*
X0071174Y0117484D01*
X0071791Y0116269D02*
X0070557Y0115035D01*
X0070557Y0115652D02*
X0070557Y0113800D01*
X0071791Y0113800D02*
X0068088Y0113800D01*
X0068088Y0115652D01*
X0068705Y0116269D01*
X0069939Y0116269D01*
X0070557Y0115652D01*
X0068705Y0117484D02*
X0068088Y0118101D01*
X0068088Y0119335D01*
X0068705Y0119952D01*
X0069322Y0119952D01*
X0069939Y0119335D01*
X0070557Y0119952D01*
X0071174Y0119952D01*
X0071791Y0119335D01*
X0069939Y0119335D02*
X0069939Y0118718D01*
X0064291Y0119952D02*
X0064291Y0117484D01*
X0061822Y0119952D01*
X0061205Y0119952D01*
X0060588Y0119335D01*
X0060588Y0118101D01*
X0061205Y0117484D01*
X0061205Y0116269D02*
X0062439Y0116269D01*
X0063057Y0115652D01*
X0063057Y0113800D01*
X0064291Y0113800D02*
X0060588Y0113800D01*
X0060588Y0115652D01*
X0061205Y0116269D01*
X0063057Y0115035D02*
X0064291Y0116269D01*
X0051174Y0243800D02*
X0048705Y0243800D01*
X0048088Y0244418D01*
X0048088Y0245652D01*
X0048705Y0246269D01*
X0048705Y0247484D02*
X0048088Y0248101D01*
X0048088Y0249335D01*
X0048705Y0249952D01*
X0049322Y0249952D01*
X0051791Y0247484D01*
X0051791Y0249952D01*
X0051174Y0246269D02*
X0051791Y0245652D01*
X0051791Y0244418D01*
X0051174Y0243800D01*
X0238088Y0244418D02*
X0238705Y0243800D01*
X0241174Y0243800D01*
X0241791Y0244418D01*
X0241791Y0245652D01*
X0241174Y0246269D01*
X0241791Y0247484D02*
X0241791Y0249952D01*
X0241791Y0248718D02*
X0238088Y0248718D01*
X0239322Y0247484D01*
X0238705Y0246269D02*
X0238088Y0245652D01*
X0238088Y0244418D01*
M02*
