G75*
%MOIN*%
%OFA0B0*%
%FSLAX25Y25*%
%IPPOS*%
%LPD*%
%AMOC8*
5,1,8,0,0,1.08239X$1,22.5*
%
%ADD10C,0.05200*%
%ADD11OC8,0.05600*%
%ADD12C,0.06000*%
%ADD13OC8,0.06000*%
%ADD14C,0.05906*%
%ADD15C,0.07000*%
%ADD16C,0.05000*%
%ADD17C,0.02800*%
%ADD18C,0.02400*%
%ADD19C,0.01200*%
%ADD20C,0.01600*%
%ADD21C,0.11811*%
%ADD22C,0.12661*%
%ADD23C,0.08858*%
%ADD24R,0.05906X0.05906*%
D10*
X0114500Y0179200D02*
X0114500Y0184400D01*
X0124500Y0184400D02*
X0124500Y0179200D01*
X0134500Y0179200D02*
X0134500Y0184400D01*
X0144500Y0184400D02*
X0144500Y0179200D01*
X0154500Y0179200D02*
X0154500Y0184400D01*
X0161900Y0221800D02*
X0167100Y0221800D01*
X0167100Y0231800D02*
X0161900Y0231800D01*
X0161900Y0241800D02*
X0167100Y0241800D01*
X0167100Y0251800D02*
X0161900Y0251800D01*
X0161900Y0261800D02*
X0167100Y0261800D01*
X0167100Y0271800D02*
X0161900Y0271800D01*
X0161900Y0281800D02*
X0167100Y0281800D01*
X0167100Y0291800D02*
X0161900Y0291800D01*
X0161900Y0301800D02*
X0167100Y0301800D01*
X0167100Y0311800D02*
X0161900Y0311800D01*
X0161900Y0321800D02*
X0167100Y0321800D01*
X0167100Y0331800D02*
X0161900Y0331800D01*
X0161900Y0341800D02*
X0167100Y0341800D01*
X0167100Y0351800D02*
X0161900Y0351800D01*
X0161900Y0361800D02*
X0167100Y0361800D01*
X0167100Y0371800D02*
X0161900Y0371800D01*
X0161900Y0381800D02*
X0167100Y0381800D01*
X0107100Y0361800D02*
X0101900Y0361800D01*
X0101900Y0351800D02*
X0107100Y0351800D01*
X0107100Y0341800D02*
X0101900Y0341800D01*
X0101900Y0331800D02*
X0107100Y0331800D01*
X0107100Y0321800D02*
X0101900Y0321800D01*
X0101900Y0311800D02*
X0107100Y0311800D01*
X0107100Y0301800D02*
X0101900Y0301800D01*
X0101900Y0291800D02*
X0107100Y0291800D01*
X0107100Y0281800D02*
X0101900Y0281800D01*
X0101900Y0271800D02*
X0107100Y0271800D01*
X0107100Y0261800D02*
X0101900Y0261800D01*
X0101900Y0251800D02*
X0107100Y0251800D01*
X0107100Y0241800D02*
X0101900Y0241800D01*
X0101900Y0231800D02*
X0107100Y0231800D01*
X0107100Y0221800D02*
X0101900Y0221800D01*
X0101900Y0211800D02*
X0107100Y0211800D01*
X0067100Y0231800D02*
X0061900Y0231800D01*
X0061900Y0241800D02*
X0067100Y0241800D01*
X0067100Y0251800D02*
X0061900Y0251800D01*
X0061900Y0261800D02*
X0067100Y0261800D01*
X0067100Y0271800D02*
X0061900Y0271800D01*
X0061900Y0281800D02*
X0067100Y0281800D01*
X0017100Y0281800D02*
X0011900Y0281800D01*
X0011900Y0271800D02*
X0017100Y0271800D01*
X0017100Y0261800D02*
X0011900Y0261800D01*
X0011900Y0251800D02*
X0017100Y0251800D01*
X0017100Y0241800D02*
X0011900Y0241800D01*
X0011900Y0231800D02*
X0017100Y0231800D01*
X0201900Y0231800D02*
X0207100Y0231800D01*
X0207100Y0241800D02*
X0201900Y0241800D01*
X0201900Y0251800D02*
X0207100Y0251800D01*
X0207100Y0261800D02*
X0201900Y0261800D01*
X0201900Y0271800D02*
X0207100Y0271800D01*
X0207100Y0281800D02*
X0201900Y0281800D01*
X0251900Y0281800D02*
X0257100Y0281800D01*
X0257100Y0271800D02*
X0251900Y0271800D01*
X0251900Y0261800D02*
X0257100Y0261800D01*
X0257100Y0251800D02*
X0251900Y0251800D01*
X0251900Y0241800D02*
X0257100Y0241800D01*
X0257100Y0231800D02*
X0251900Y0231800D01*
D11*
X0224500Y0311800D03*
X0224500Y0321800D03*
X0224500Y0331800D03*
X0224500Y0341800D03*
X0224500Y0351800D03*
X0224500Y0361800D03*
X0224500Y0371800D03*
X0224500Y0381800D03*
X0214500Y0381800D03*
X0214500Y0371800D03*
X0214500Y0361800D03*
X0214500Y0351800D03*
X0214500Y0341800D03*
X0214500Y0331800D03*
X0214500Y0321800D03*
X0214500Y0311800D03*
D12*
X0217000Y0119800D02*
X0217000Y0113800D01*
X0207000Y0113800D02*
X0207000Y0119800D01*
X0197000Y0119800D02*
X0197000Y0113800D01*
X0174500Y0014800D02*
X0174500Y0008800D01*
X0164500Y0008800D02*
X0164500Y0014800D01*
X0154500Y0014800D02*
X0154500Y0008800D01*
X0144500Y0008800D02*
X0144500Y0014800D01*
X0124500Y0014800D02*
X0124500Y0008800D01*
X0114500Y0008800D02*
X0114500Y0014800D01*
X0104500Y0014800D02*
X0104500Y0008800D01*
X0044500Y0008800D02*
X0044500Y0014800D01*
X0034500Y0014800D02*
X0034500Y0008800D01*
X0024500Y0008800D02*
X0024500Y0014800D01*
X0014500Y0014800D02*
X0014500Y0008800D01*
X0011500Y0311800D02*
X0017500Y0311800D01*
X0017500Y0321800D02*
X0011500Y0321800D01*
X0011500Y0331800D02*
X0017500Y0331800D01*
X0017500Y0341800D02*
X0011500Y0341800D01*
X0011500Y0351800D02*
X0017500Y0351800D01*
X0017500Y0361800D02*
X0011500Y0361800D01*
X0011500Y0371800D02*
X0017500Y0371800D01*
X0017500Y0381800D02*
X0011500Y0381800D01*
X0224500Y0014800D02*
X0224500Y0008800D01*
X0234500Y0008800D02*
X0234500Y0014800D01*
X0244500Y0014800D02*
X0244500Y0008800D01*
X0254500Y0008800D02*
X0254500Y0014800D01*
D13*
X0114500Y0201800D03*
X0104500Y0201800D03*
D14*
X0137000Y0151800D03*
X0197000Y0151800D03*
X0254500Y0141800D03*
X0254500Y0161800D03*
X0254500Y0191800D03*
X0254500Y0211800D03*
X0014500Y0211800D03*
X0014500Y0191800D03*
D15*
X0064500Y0261800D02*
X0074500Y0261800D01*
X0079500Y0256800D01*
X0079500Y0191800D01*
X0109500Y0161800D01*
X0254500Y0161800D01*
D16*
X0224500Y0311800D02*
X0214500Y0311800D01*
X0214500Y0321800D02*
X0224500Y0321800D01*
X0224500Y0331800D02*
X0214500Y0331800D01*
X0214500Y0341800D02*
X0224500Y0341800D01*
X0224500Y0351800D02*
X0214500Y0351800D01*
X0214500Y0361800D02*
X0224500Y0361800D01*
X0224500Y0371800D02*
X0214500Y0371800D01*
X0214500Y0381800D02*
X0224500Y0381800D01*
D17*
X0199500Y0356800D03*
X0182000Y0351800D03*
X0187000Y0281800D03*
X0152000Y0254300D03*
X0147000Y0256800D03*
X0142000Y0254300D03*
X0137000Y0256800D03*
X0137000Y0224300D03*
X0122000Y0211800D03*
X0142000Y0169300D03*
X0159500Y0194300D03*
X0164500Y0194300D03*
X0164500Y0199300D03*
X0123500Y0155800D03*
X0116500Y0143800D03*
X0109500Y0147800D03*
X0097000Y0146800D03*
X0099500Y0131800D03*
X0104500Y0119300D03*
X0116500Y0133800D03*
X0124500Y0139300D03*
X0144500Y0119300D03*
X0136500Y0105800D03*
X0124500Y0099300D03*
X0114500Y0051800D03*
X0109500Y0046800D03*
X0104500Y0041800D03*
X0082000Y0109300D03*
X0074500Y0109300D03*
X0067000Y0136800D03*
X0080500Y0141800D03*
X0077000Y0181800D03*
X0072000Y0184300D03*
X0062000Y0191800D03*
X0057000Y0191800D03*
X0087000Y0239300D03*
X0092000Y0236800D03*
X0042000Y0261800D03*
X0157000Y0136800D03*
X0164500Y0119300D03*
X0177500Y0136800D03*
X0179500Y0119300D03*
X0224500Y0131800D03*
D18*
X0197000Y0151800D02*
X0137000Y0151800D01*
X0164500Y0281800D02*
X0187000Y0281800D01*
D19*
X0182000Y0266800D02*
X0197000Y0251800D01*
X0204500Y0251800D01*
X0204500Y0241800D02*
X0197000Y0241800D01*
X0182000Y0256800D01*
X0157000Y0256800D01*
X0152000Y0261800D01*
X0104500Y0261800D01*
X0104500Y0271800D02*
X0152000Y0271800D01*
X0157000Y0266800D01*
X0182000Y0266800D01*
X0152000Y0254300D02*
X0152000Y0211800D01*
X0164500Y0199300D01*
X0164500Y0194300D02*
X0147000Y0211800D01*
X0147000Y0256800D01*
X0142000Y0254300D02*
X0142000Y0211800D01*
X0159500Y0194300D01*
X0139500Y0171800D02*
X0142000Y0169300D01*
X0139500Y0171800D02*
X0139500Y0194300D01*
X0122000Y0211800D01*
X0137000Y0224300D02*
X0137000Y0256800D01*
X0104500Y0231800D02*
X0102000Y0231800D01*
X0094500Y0224300D01*
X0094500Y0194300D01*
X0107000Y0181800D01*
X0114500Y0181800D01*
X0123500Y0155800D02*
X0112000Y0144300D01*
X0099500Y0144300D01*
X0097000Y0146800D01*
X0099500Y0144300D02*
X0099500Y0131800D01*
X0103500Y0147800D02*
X0099500Y0151800D01*
X0090500Y0151800D01*
X0080500Y0141800D01*
X0077000Y0139300D02*
X0077000Y0181800D01*
X0072000Y0184300D02*
X0072000Y0139300D01*
X0187000Y0024300D01*
X0212000Y0024300D01*
X0224500Y0011800D01*
X0234500Y0011800D02*
X0234500Y0019300D01*
X0227000Y0026800D01*
X0189500Y0026800D01*
X0077000Y0139300D01*
X0103500Y0147800D02*
X0109500Y0147800D01*
X0116500Y0143800D02*
X0116500Y0133800D01*
X0136500Y0105800D02*
X0146500Y0105800D01*
X0177500Y0136800D01*
X0132000Y0051800D02*
X0114500Y0051800D01*
X0109500Y0046800D02*
X0132000Y0046800D01*
X0154500Y0024300D01*
X0154500Y0011800D01*
X0164500Y0011800D02*
X0164500Y0019300D01*
X0132000Y0051800D01*
X0104500Y0041800D02*
X0104500Y0011800D01*
X0062000Y0191800D02*
X0062000Y0214300D01*
X0052000Y0224300D01*
X0052000Y0286800D01*
X0077000Y0311800D01*
X0104500Y0311800D01*
X0104500Y0321800D02*
X0142000Y0321800D01*
X0157000Y0336800D01*
X0209500Y0336800D01*
X0214500Y0341800D01*
X0214500Y0351800D02*
X0182000Y0351800D01*
X0199500Y0356800D02*
X0214500Y0371800D01*
X0104500Y0331800D02*
X0089500Y0331800D01*
X0047000Y0289300D01*
X0047000Y0221800D01*
X0057000Y0211800D01*
X0057000Y0191800D01*
X0087000Y0239300D02*
X0087000Y0291800D01*
X0097000Y0301800D01*
X0104500Y0301800D01*
X0104500Y0281800D02*
X0097000Y0281800D01*
X0092000Y0276800D01*
X0092000Y0236800D01*
X0042000Y0261800D02*
X0022000Y0241800D01*
X0014500Y0241800D01*
D20*
X0009900Y0022549D02*
X0009900Y0007200D01*
X0010184Y0007200D01*
X0009900Y0007885D01*
X0009900Y0015715D01*
X0010600Y0017406D01*
X0011894Y0018700D01*
X0013585Y0019400D01*
X0015415Y0019400D01*
X0017106Y0018700D01*
X0018400Y0017406D01*
X0019100Y0015715D01*
X0019100Y0007885D01*
X0018816Y0007200D01*
X0020184Y0007200D01*
X0019900Y0007885D01*
X0019900Y0015715D01*
X0020600Y0017406D01*
X0021894Y0018700D01*
X0023585Y0019400D01*
X0025415Y0019400D01*
X0027106Y0018700D01*
X0028400Y0017406D01*
X0029100Y0015715D01*
X0029100Y0007885D01*
X0028816Y0007200D01*
X0030184Y0007200D01*
X0029900Y0007885D01*
X0029900Y0015715D01*
X0030600Y0017406D01*
X0031894Y0018700D01*
X0033585Y0019400D01*
X0035415Y0019400D01*
X0037106Y0018700D01*
X0038400Y0017406D01*
X0039100Y0015715D01*
X0039100Y0007885D01*
X0038816Y0007200D01*
X0039973Y0007200D01*
X0039818Y0007676D01*
X0039700Y0008422D01*
X0039700Y0011600D01*
X0044300Y0011600D01*
X0044300Y0012000D01*
X0044300Y0019600D01*
X0044122Y0019600D01*
X0043376Y0019482D01*
X0042657Y0019248D01*
X0041984Y0018905D01*
X0041373Y0018461D01*
X0040839Y0017927D01*
X0040395Y0017316D01*
X0040052Y0016643D01*
X0039818Y0015924D01*
X0039700Y0015178D01*
X0039700Y0012000D01*
X0044300Y0012000D01*
X0044700Y0012000D01*
X0044700Y0019600D01*
X0044878Y0019600D01*
X0045624Y0019482D01*
X0046343Y0019248D01*
X0047016Y0018905D01*
X0047627Y0018461D01*
X0048161Y0017927D01*
X0048605Y0017316D01*
X0048948Y0016643D01*
X0049182Y0015924D01*
X0049300Y0015178D01*
X0049300Y0012000D01*
X0044700Y0012000D01*
X0044700Y0011600D01*
X0049300Y0011600D01*
X0049300Y0008422D01*
X0049182Y0007676D01*
X0049027Y0007200D01*
X0100184Y0007200D01*
X0099900Y0007885D01*
X0099900Y0015715D01*
X0100600Y0017406D01*
X0101894Y0018700D01*
X0102300Y0018868D01*
X0102300Y0039757D01*
X0101957Y0040101D01*
X0101500Y0041203D01*
X0101500Y0042397D01*
X0101957Y0043499D01*
X0102801Y0044343D01*
X0103903Y0044800D01*
X0105097Y0044800D01*
X0106199Y0044343D01*
X0107043Y0043499D01*
X0107500Y0042397D01*
X0107500Y0041203D01*
X0107043Y0040101D01*
X0106700Y0039757D01*
X0106700Y0018868D01*
X0107106Y0018700D01*
X0108400Y0017406D01*
X0109100Y0015715D01*
X0109100Y0007885D01*
X0108816Y0007200D01*
X0110184Y0007200D01*
X0109900Y0007885D01*
X0109900Y0015715D01*
X0110600Y0017406D01*
X0111894Y0018700D01*
X0113585Y0019400D01*
X0115415Y0019400D01*
X0117106Y0018700D01*
X0118400Y0017406D01*
X0119100Y0015715D01*
X0119100Y0007885D01*
X0118816Y0007200D01*
X0119973Y0007200D01*
X0119818Y0007676D01*
X0119700Y0008422D01*
X0119700Y0011600D01*
X0124300Y0011600D01*
X0124300Y0012000D01*
X0124300Y0019600D01*
X0124122Y0019600D01*
X0123376Y0019482D01*
X0122657Y0019248D01*
X0121984Y0018905D01*
X0121373Y0018461D01*
X0120839Y0017927D01*
X0120395Y0017316D01*
X0120052Y0016643D01*
X0119818Y0015924D01*
X0119700Y0015178D01*
X0119700Y0012000D01*
X0124300Y0012000D01*
X0124700Y0012000D01*
X0124700Y0019600D01*
X0124878Y0019600D01*
X0125624Y0019482D01*
X0126343Y0019248D01*
X0127016Y0018905D01*
X0127627Y0018461D01*
X0128161Y0017927D01*
X0128605Y0017316D01*
X0128948Y0016643D01*
X0129182Y0015924D01*
X0129300Y0015178D01*
X0129300Y0012000D01*
X0124700Y0012000D01*
X0124700Y0011600D01*
X0129300Y0011600D01*
X0129300Y0008422D01*
X0129182Y0007676D01*
X0129027Y0007200D01*
X0140184Y0007200D01*
X0139900Y0007885D01*
X0139900Y0015715D01*
X0140600Y0017406D01*
X0141894Y0018700D01*
X0143585Y0019400D01*
X0145415Y0019400D01*
X0147106Y0018700D01*
X0148400Y0017406D01*
X0149100Y0015715D01*
X0149100Y0007885D01*
X0148816Y0007200D01*
X0150184Y0007200D01*
X0149900Y0007885D01*
X0149900Y0015715D01*
X0150600Y0017406D01*
X0151894Y0018700D01*
X0152300Y0018868D01*
X0152300Y0023389D01*
X0131089Y0044600D01*
X0111543Y0044600D01*
X0111199Y0044257D01*
X0110097Y0043800D01*
X0108903Y0043800D01*
X0107801Y0044257D01*
X0106957Y0045101D01*
X0106500Y0046203D01*
X0106500Y0047397D01*
X0106957Y0048499D01*
X0107801Y0049343D01*
X0108903Y0049800D01*
X0110097Y0049800D01*
X0111199Y0049343D01*
X0111543Y0049000D01*
X0113420Y0049000D01*
X0112801Y0049257D01*
X0111957Y0050101D01*
X0111500Y0051203D01*
X0111500Y0052397D01*
X0111957Y0053499D01*
X0112801Y0054343D01*
X0113903Y0054800D01*
X0115097Y0054800D01*
X0116199Y0054343D01*
X0116543Y0054000D01*
X0132911Y0054000D01*
X0134200Y0052711D01*
X0166700Y0020211D01*
X0166700Y0018868D01*
X0167106Y0018700D01*
X0168400Y0017406D01*
X0169100Y0015715D01*
X0169100Y0007885D01*
X0168816Y0007200D01*
X0169973Y0007200D01*
X0169818Y0007676D01*
X0169700Y0008422D01*
X0169700Y0011600D01*
X0174300Y0011600D01*
X0174300Y0012000D01*
X0174300Y0019600D01*
X0174122Y0019600D01*
X0173376Y0019482D01*
X0172657Y0019248D01*
X0171984Y0018905D01*
X0171373Y0018461D01*
X0170839Y0017927D01*
X0170395Y0017316D01*
X0170052Y0016643D01*
X0169818Y0015924D01*
X0169700Y0015178D01*
X0169700Y0012000D01*
X0174300Y0012000D01*
X0174700Y0012000D01*
X0174700Y0019600D01*
X0174878Y0019600D01*
X0175624Y0019482D01*
X0176343Y0019248D01*
X0177016Y0018905D01*
X0177627Y0018461D01*
X0178161Y0017927D01*
X0178605Y0017316D01*
X0178948Y0016643D01*
X0179182Y0015924D01*
X0179300Y0015178D01*
X0179300Y0012000D01*
X0174700Y0012000D01*
X0174700Y0011600D01*
X0179300Y0011600D01*
X0179300Y0008422D01*
X0179182Y0007676D01*
X0179027Y0007200D01*
X0220184Y0007200D01*
X0219900Y0007885D01*
X0219900Y0013289D01*
X0211089Y0022100D01*
X0186089Y0022100D01*
X0184800Y0023389D01*
X0071089Y0137100D01*
X0069800Y0138389D01*
X0069800Y0182257D01*
X0069457Y0182601D01*
X0069000Y0183703D01*
X0069000Y0184897D01*
X0069457Y0185999D01*
X0070301Y0186843D01*
X0071403Y0187300D01*
X0072597Y0187300D01*
X0073699Y0186843D01*
X0074543Y0185999D01*
X0075000Y0184897D01*
X0075000Y0184043D01*
X0075301Y0184343D01*
X0076403Y0184800D01*
X0077597Y0184800D01*
X0078699Y0184343D01*
X0079543Y0183499D01*
X0080000Y0182397D01*
X0080000Y0181203D01*
X0079543Y0180101D01*
X0079200Y0179757D01*
X0079200Y0144509D01*
X0079903Y0144800D01*
X0080389Y0144800D01*
X0089589Y0154000D01*
X0100411Y0154000D01*
X0101700Y0152711D01*
X0104411Y0150000D01*
X0107457Y0150000D01*
X0107801Y0150343D01*
X0108903Y0150800D01*
X0110097Y0150800D01*
X0111199Y0150343D01*
X0112043Y0149499D01*
X0112500Y0148397D01*
X0112500Y0147911D01*
X0120500Y0155911D01*
X0120500Y0156397D01*
X0120626Y0156700D01*
X0108486Y0156700D01*
X0106611Y0157476D01*
X0076611Y0187476D01*
X0075176Y0188911D01*
X0074400Y0190786D01*
X0074400Y0254687D01*
X0072388Y0256700D01*
X0063486Y0256700D01*
X0061611Y0257476D01*
X0061488Y0257600D01*
X0061065Y0257600D01*
X0059521Y0258239D01*
X0058339Y0259421D01*
X0057700Y0260965D01*
X0057700Y0262635D01*
X0058339Y0264179D01*
X0059521Y0265361D01*
X0061065Y0266000D01*
X0061488Y0266000D01*
X0061611Y0266124D01*
X0063486Y0266900D01*
X0075514Y0266900D01*
X0077389Y0266124D01*
X0078824Y0264689D01*
X0083824Y0259689D01*
X0084600Y0257814D01*
X0084600Y0241143D01*
X0084800Y0241343D01*
X0084800Y0292711D01*
X0094800Y0302711D01*
X0096089Y0304000D01*
X0098265Y0304000D01*
X0098339Y0304179D01*
X0099521Y0305361D01*
X0101065Y0306000D01*
X0107935Y0306000D01*
X0109479Y0305361D01*
X0110661Y0304179D01*
X0111300Y0302635D01*
X0111300Y0300965D01*
X0110661Y0299421D01*
X0109479Y0298239D01*
X0107935Y0297600D01*
X0101065Y0297600D01*
X0099521Y0298239D01*
X0098339Y0299421D01*
X0098265Y0299600D01*
X0097911Y0299600D01*
X0089200Y0290889D01*
X0089200Y0241343D01*
X0089543Y0240999D01*
X0089800Y0240380D01*
X0089800Y0277711D01*
X0094800Y0282711D01*
X0096089Y0284000D01*
X0098265Y0284000D01*
X0098339Y0284179D01*
X0099521Y0285361D01*
X0101065Y0286000D01*
X0107935Y0286000D01*
X0109479Y0285361D01*
X0110661Y0284179D01*
X0111300Y0282635D01*
X0111300Y0280965D01*
X0110661Y0279421D01*
X0109479Y0278239D01*
X0107935Y0277600D01*
X0101065Y0277600D01*
X0099521Y0278239D01*
X0098339Y0279421D01*
X0098265Y0279600D01*
X0097911Y0279600D01*
X0094200Y0275889D01*
X0094200Y0238843D01*
X0094543Y0238499D01*
X0095000Y0237397D01*
X0095000Y0236203D01*
X0094543Y0235101D01*
X0093699Y0234257D01*
X0092597Y0233800D01*
X0091403Y0233800D01*
X0090301Y0234257D01*
X0089457Y0235101D01*
X0089000Y0236203D01*
X0089000Y0237057D01*
X0088699Y0236757D01*
X0087597Y0236300D01*
X0086403Y0236300D01*
X0085301Y0236757D01*
X0084600Y0237457D01*
X0084600Y0193912D01*
X0111612Y0166900D01*
X0140157Y0166900D01*
X0139457Y0167601D01*
X0139000Y0168703D01*
X0139000Y0169189D01*
X0138589Y0169600D01*
X0137300Y0170889D01*
X0137300Y0175796D01*
X0136806Y0175437D01*
X0136189Y0175122D01*
X0135530Y0174908D01*
X0134846Y0174800D01*
X0134500Y0174800D01*
X0134500Y0181800D01*
X0134500Y0181800D01*
X0134500Y0188800D01*
X0134846Y0188800D01*
X0135530Y0188692D01*
X0136189Y0188478D01*
X0136806Y0188163D01*
X0137300Y0187804D01*
X0137300Y0193389D01*
X0121889Y0208800D01*
X0121403Y0208800D01*
X0120301Y0209257D01*
X0119457Y0210101D01*
X0119000Y0211203D01*
X0119000Y0212397D01*
X0119457Y0213499D01*
X0120301Y0214343D01*
X0121403Y0214800D01*
X0122597Y0214800D01*
X0123699Y0214343D01*
X0124543Y0213499D01*
X0125000Y0212397D01*
X0125000Y0211911D01*
X0140411Y0196500D01*
X0140411Y0196500D01*
X0141700Y0195211D01*
X0141700Y0187540D01*
X0142121Y0187961D01*
X0143665Y0188600D01*
X0145335Y0188600D01*
X0146879Y0187961D01*
X0148061Y0186779D01*
X0148700Y0185235D01*
X0148700Y0178365D01*
X0148061Y0176821D01*
X0146879Y0175639D01*
X0145335Y0175000D01*
X0143665Y0175000D01*
X0142121Y0175639D01*
X0141700Y0176060D01*
X0141700Y0172711D01*
X0142111Y0172300D01*
X0142597Y0172300D01*
X0143699Y0171843D01*
X0144543Y0170999D01*
X0145000Y0169897D01*
X0145000Y0168703D01*
X0144543Y0167601D01*
X0143843Y0166900D01*
X0255514Y0166900D01*
X0257389Y0166124D01*
X0258824Y0164689D01*
X0259100Y0164021D01*
X0259100Y0227881D01*
X0258789Y0227722D01*
X0258130Y0227508D01*
X0257446Y0227400D01*
X0254500Y0227400D01*
X0254500Y0231800D01*
X0254500Y0231800D01*
X0254500Y0236200D01*
X0257446Y0236200D01*
X0258130Y0236092D01*
X0258789Y0235878D01*
X0259100Y0235719D01*
X0259100Y0238082D01*
X0257935Y0237600D01*
X0251065Y0237600D01*
X0249521Y0238239D01*
X0248339Y0239421D01*
X0247700Y0240965D01*
X0247700Y0242635D01*
X0248339Y0244179D01*
X0249521Y0245361D01*
X0251065Y0246000D01*
X0257935Y0246000D01*
X0259100Y0245518D01*
X0259100Y0248082D01*
X0257935Y0247600D01*
X0251065Y0247600D01*
X0249521Y0248239D01*
X0248339Y0249421D01*
X0247700Y0250965D01*
X0247700Y0252635D01*
X0248339Y0254179D01*
X0249521Y0255361D01*
X0251065Y0256000D01*
X0257935Y0256000D01*
X0259100Y0255518D01*
X0259100Y0258082D01*
X0257935Y0257600D01*
X0251065Y0257600D01*
X0249521Y0258239D01*
X0248339Y0259421D01*
X0247700Y0260965D01*
X0247700Y0262635D01*
X0248339Y0264179D01*
X0249521Y0265361D01*
X0251065Y0266000D01*
X0257935Y0266000D01*
X0259100Y0265518D01*
X0259100Y0268082D01*
X0257935Y0267600D01*
X0251065Y0267600D01*
X0249521Y0268239D01*
X0248339Y0269421D01*
X0247700Y0270965D01*
X0247700Y0272635D01*
X0248339Y0274179D01*
X0249521Y0275361D01*
X0251065Y0276000D01*
X0257935Y0276000D01*
X0259100Y0275518D01*
X0259100Y0278082D01*
X0257935Y0277600D01*
X0251065Y0277600D01*
X0249521Y0278239D01*
X0248339Y0279421D01*
X0247700Y0280965D01*
X0247700Y0282635D01*
X0248339Y0284179D01*
X0249521Y0285361D01*
X0251065Y0286000D01*
X0257935Y0286000D01*
X0259100Y0285518D01*
X0259100Y0362549D01*
X0258480Y0362191D01*
X0255858Y0361488D01*
X0253142Y0361488D01*
X0250520Y0362191D01*
X0248168Y0363548D01*
X0246248Y0365468D01*
X0244891Y0367820D01*
X0244188Y0370442D01*
X0244188Y0373158D01*
X0244891Y0375780D01*
X0246248Y0378132D01*
X0248168Y0380051D01*
X0250520Y0381409D01*
X0253142Y0382112D01*
X0255858Y0382112D01*
X0258480Y0381409D01*
X0259100Y0381051D01*
X0259100Y0386400D01*
X0009900Y0386400D01*
X0009900Y0386116D01*
X0010585Y0386400D01*
X0018415Y0386400D01*
X0020106Y0385700D01*
X0021400Y0384406D01*
X0022100Y0382715D01*
X0022100Y0380885D01*
X0021400Y0379194D01*
X0020106Y0377900D01*
X0018415Y0377200D01*
X0010585Y0377200D01*
X0009900Y0377484D01*
X0009900Y0376116D01*
X0010585Y0376400D01*
X0018415Y0376400D01*
X0020106Y0375700D01*
X0021400Y0374406D01*
X0022100Y0372715D01*
X0022100Y0370885D01*
X0021400Y0369194D01*
X0020106Y0367900D01*
X0018415Y0367200D01*
X0010585Y0367200D01*
X0009900Y0367484D01*
X0009900Y0366116D01*
X0010585Y0366400D01*
X0018415Y0366400D01*
X0020106Y0365700D01*
X0021400Y0364406D01*
X0022100Y0362715D01*
X0022100Y0360885D01*
X0021400Y0359194D01*
X0020106Y0357900D01*
X0018415Y0357200D01*
X0010585Y0357200D01*
X0009900Y0357484D01*
X0009900Y0356116D01*
X0010585Y0356400D01*
X0018415Y0356400D01*
X0020106Y0355700D01*
X0021400Y0354406D01*
X0022100Y0352715D01*
X0022100Y0350885D01*
X0021400Y0349194D01*
X0020106Y0347900D01*
X0018415Y0347200D01*
X0010585Y0347200D01*
X0009900Y0347484D01*
X0009900Y0346116D01*
X0010585Y0346400D01*
X0018415Y0346400D01*
X0020106Y0345700D01*
X0021400Y0344406D01*
X0022100Y0342715D01*
X0022100Y0340885D01*
X0021400Y0339194D01*
X0020106Y0337900D01*
X0018415Y0337200D01*
X0010585Y0337200D01*
X0009900Y0337484D01*
X0009900Y0336116D01*
X0010585Y0336400D01*
X0018415Y0336400D01*
X0020106Y0335700D01*
X0021400Y0334406D01*
X0022100Y0332715D01*
X0022100Y0330885D01*
X0021400Y0329194D01*
X0020106Y0327900D01*
X0018415Y0327200D01*
X0010585Y0327200D01*
X0009900Y0327484D01*
X0009900Y0326116D01*
X0010585Y0326400D01*
X0018415Y0326400D01*
X0020106Y0325700D01*
X0021400Y0324406D01*
X0022100Y0322715D01*
X0022100Y0320885D01*
X0021400Y0319194D01*
X0020106Y0317900D01*
X0018415Y0317200D01*
X0010585Y0317200D01*
X0009900Y0317484D01*
X0009900Y0316327D01*
X0010376Y0316482D01*
X0011122Y0316600D01*
X0014300Y0316600D01*
X0014300Y0312000D01*
X0014700Y0312000D01*
X0014700Y0316600D01*
X0017878Y0316600D01*
X0018624Y0316482D01*
X0019343Y0316248D01*
X0020016Y0315905D01*
X0020627Y0315461D01*
X0021161Y0314927D01*
X0021605Y0314316D01*
X0021948Y0313643D01*
X0022182Y0312924D01*
X0022300Y0312178D01*
X0022300Y0312000D01*
X0014700Y0312000D01*
X0014700Y0311600D01*
X0022300Y0311600D01*
X0022300Y0311422D01*
X0022182Y0310676D01*
X0021948Y0309957D01*
X0021605Y0309284D01*
X0021161Y0308673D01*
X0020627Y0308139D01*
X0020016Y0307695D01*
X0019343Y0307352D01*
X0018624Y0307118D01*
X0017878Y0307000D01*
X0016275Y0307000D01*
X0018480Y0306409D01*
X0020832Y0305051D01*
X0022751Y0303132D01*
X0024109Y0300780D01*
X0024812Y0298158D01*
X0024812Y0295442D01*
X0024109Y0292820D01*
X0022751Y0290468D01*
X0020832Y0288548D01*
X0018480Y0287191D01*
X0015858Y0286488D01*
X0013142Y0286488D01*
X0010520Y0287191D01*
X0009900Y0287549D01*
X0009900Y0285518D01*
X0011065Y0286000D01*
X0017935Y0286000D01*
X0019479Y0285361D01*
X0020661Y0284179D01*
X0021300Y0282635D01*
X0021300Y0280965D01*
X0020661Y0279421D01*
X0019479Y0278239D01*
X0017935Y0277600D01*
X0011065Y0277600D01*
X0009900Y0278082D01*
X0009900Y0275518D01*
X0011065Y0276000D01*
X0017935Y0276000D01*
X0019479Y0275361D01*
X0020661Y0274179D01*
X0021300Y0272635D01*
X0021300Y0270965D01*
X0020661Y0269421D01*
X0019479Y0268239D01*
X0017935Y0267600D01*
X0011065Y0267600D01*
X0009900Y0268082D01*
X0009900Y0265518D01*
X0011065Y0266000D01*
X0017935Y0266000D01*
X0019479Y0265361D01*
X0020661Y0264179D01*
X0021300Y0262635D01*
X0021300Y0260965D01*
X0020661Y0259421D01*
X0019479Y0258239D01*
X0017935Y0257600D01*
X0011065Y0257600D01*
X0009900Y0258082D01*
X0009900Y0255518D01*
X0011065Y0256000D01*
X0017935Y0256000D01*
X0019479Y0255361D01*
X0020661Y0254179D01*
X0021300Y0252635D01*
X0021300Y0250965D01*
X0020661Y0249421D01*
X0019479Y0248239D01*
X0017935Y0247600D01*
X0011065Y0247600D01*
X0009900Y0248082D01*
X0009900Y0245518D01*
X0011065Y0246000D01*
X0017935Y0246000D01*
X0019479Y0245361D01*
X0020661Y0244179D01*
X0020735Y0244000D01*
X0021089Y0244000D01*
X0039000Y0261911D01*
X0039000Y0262397D01*
X0039457Y0263499D01*
X0040301Y0264343D01*
X0041403Y0264800D01*
X0042597Y0264800D01*
X0043699Y0264343D01*
X0044543Y0263499D01*
X0044800Y0262880D01*
X0044800Y0290211D01*
X0087300Y0332711D01*
X0088589Y0334000D01*
X0098265Y0334000D01*
X0098339Y0334179D01*
X0099521Y0335361D01*
X0101065Y0336000D01*
X0107935Y0336000D01*
X0109479Y0335361D01*
X0110661Y0334179D01*
X0111300Y0332635D01*
X0111300Y0330965D01*
X0110661Y0329421D01*
X0109479Y0328239D01*
X0107935Y0327600D01*
X0101065Y0327600D01*
X0099521Y0328239D01*
X0098339Y0329421D01*
X0098265Y0329600D01*
X0090411Y0329600D01*
X0049200Y0288389D01*
X0049200Y0222711D01*
X0059200Y0212711D01*
X0059200Y0193843D01*
X0059500Y0193543D01*
X0059800Y0193843D01*
X0059800Y0213389D01*
X0051089Y0222100D01*
X0049800Y0223389D01*
X0049800Y0287711D01*
X0074800Y0312711D01*
X0076089Y0314000D01*
X0098265Y0314000D01*
X0098339Y0314179D01*
X0099521Y0315361D01*
X0101065Y0316000D01*
X0107935Y0316000D01*
X0109479Y0315361D01*
X0110661Y0314179D01*
X0111300Y0312635D01*
X0111300Y0310965D01*
X0110661Y0309421D01*
X0109479Y0308239D01*
X0107935Y0307600D01*
X0101065Y0307600D01*
X0099521Y0308239D01*
X0098339Y0309421D01*
X0098265Y0309600D01*
X0077911Y0309600D01*
X0054200Y0285889D01*
X0054200Y0225211D01*
X0064200Y0215211D01*
X0064200Y0193843D01*
X0064543Y0193499D01*
X0065000Y0192397D01*
X0065000Y0191203D01*
X0064543Y0190101D01*
X0063699Y0189257D01*
X0062597Y0188800D01*
X0061403Y0188800D01*
X0060301Y0189257D01*
X0059500Y0190057D01*
X0058699Y0189257D01*
X0057597Y0188800D01*
X0056403Y0188800D01*
X0055301Y0189257D01*
X0054457Y0190101D01*
X0054000Y0191203D01*
X0054000Y0192397D01*
X0054457Y0193499D01*
X0054800Y0193843D01*
X0054800Y0210889D01*
X0046089Y0219600D01*
X0044800Y0220889D01*
X0044800Y0260720D01*
X0044543Y0260101D01*
X0043699Y0259257D01*
X0042597Y0258800D01*
X0042111Y0258800D01*
X0024200Y0240889D01*
X0022911Y0239600D01*
X0020735Y0239600D01*
X0020661Y0239421D01*
X0019479Y0238239D01*
X0017935Y0237600D01*
X0011065Y0237600D01*
X0009900Y0238082D01*
X0009900Y0235719D01*
X0010211Y0235878D01*
X0010870Y0236092D01*
X0011554Y0236200D01*
X0014500Y0236200D01*
X0014500Y0231800D01*
X0014500Y0231800D01*
X0021500Y0231800D01*
X0021500Y0232146D01*
X0021392Y0232830D01*
X0021178Y0233489D01*
X0020863Y0234106D01*
X0020456Y0234666D01*
X0019966Y0235156D01*
X0019406Y0235563D01*
X0018789Y0235878D01*
X0018130Y0236092D01*
X0017446Y0236200D01*
X0014500Y0236200D01*
X0014500Y0231800D01*
X0014500Y0231800D01*
X0021500Y0231800D01*
X0021500Y0231454D01*
X0021392Y0230770D01*
X0021178Y0230111D01*
X0020863Y0229494D01*
X0020456Y0228934D01*
X0019966Y0228444D01*
X0019406Y0228037D01*
X0018789Y0227722D01*
X0018130Y0227508D01*
X0017446Y0227400D01*
X0014500Y0227400D01*
X0014500Y0231800D01*
X0014500Y0231800D01*
X0014500Y0227400D01*
X0011554Y0227400D01*
X0010870Y0227508D01*
X0010211Y0227722D01*
X0009900Y0227881D01*
X0009900Y0041051D01*
X0010520Y0041409D01*
X0013142Y0042112D01*
X0015858Y0042112D01*
X0018480Y0041409D01*
X0020832Y0040051D01*
X0022751Y0038132D01*
X0024109Y0035780D01*
X0024812Y0033158D01*
X0024812Y0030442D01*
X0024109Y0027820D01*
X0022751Y0025468D01*
X0020832Y0023548D01*
X0018480Y0022191D01*
X0015858Y0021488D01*
X0013142Y0021488D01*
X0010520Y0022191D01*
X0009900Y0022549D01*
X0009900Y0020982D02*
X0102300Y0020982D01*
X0102300Y0019384D02*
X0045926Y0019384D01*
X0044700Y0019384D02*
X0044300Y0019384D01*
X0043074Y0019384D02*
X0035455Y0019384D01*
X0033545Y0019384D02*
X0025455Y0019384D01*
X0023545Y0019384D02*
X0015455Y0019384D01*
X0013545Y0019384D02*
X0009900Y0019384D01*
X0009900Y0017785D02*
X0010980Y0017785D01*
X0010095Y0016187D02*
X0009900Y0016187D01*
X0009900Y0014588D02*
X0009900Y0014588D01*
X0009900Y0012990D02*
X0009900Y0012990D01*
X0009900Y0011391D02*
X0009900Y0011391D01*
X0009900Y0009793D02*
X0009900Y0009793D01*
X0009900Y0008194D02*
X0009900Y0008194D01*
X0018020Y0017785D02*
X0020980Y0017785D01*
X0020095Y0016187D02*
X0018905Y0016187D01*
X0019100Y0014588D02*
X0019900Y0014588D01*
X0019900Y0012990D02*
X0019100Y0012990D01*
X0019100Y0011391D02*
X0019900Y0011391D01*
X0019900Y0009793D02*
X0019100Y0009793D01*
X0019100Y0008194D02*
X0019900Y0008194D01*
X0029100Y0008194D02*
X0029900Y0008194D01*
X0029900Y0009793D02*
X0029100Y0009793D01*
X0029100Y0011391D02*
X0029900Y0011391D01*
X0029900Y0012990D02*
X0029100Y0012990D01*
X0029100Y0014588D02*
X0029900Y0014588D01*
X0030095Y0016187D02*
X0028905Y0016187D01*
X0028020Y0017785D02*
X0030980Y0017785D01*
X0038020Y0017785D02*
X0040736Y0017785D01*
X0039904Y0016187D02*
X0038905Y0016187D01*
X0039100Y0014588D02*
X0039700Y0014588D01*
X0039700Y0012990D02*
X0039100Y0012990D01*
X0039100Y0011391D02*
X0039700Y0011391D01*
X0039700Y0009793D02*
X0039100Y0009793D01*
X0039100Y0008194D02*
X0039736Y0008194D01*
X0044300Y0012990D02*
X0044700Y0012990D01*
X0044700Y0014588D02*
X0044300Y0014588D01*
X0044300Y0016187D02*
X0044700Y0016187D01*
X0044700Y0017785D02*
X0044300Y0017785D01*
X0048264Y0017785D02*
X0100980Y0017785D01*
X0100095Y0016187D02*
X0049096Y0016187D01*
X0049300Y0014588D02*
X0099900Y0014588D01*
X0099900Y0012990D02*
X0049300Y0012990D01*
X0049300Y0011391D02*
X0099900Y0011391D01*
X0099900Y0009793D02*
X0049300Y0009793D01*
X0049264Y0008194D02*
X0099900Y0008194D01*
X0106700Y0019384D02*
X0113545Y0019384D01*
X0115455Y0019384D02*
X0123074Y0019384D01*
X0124300Y0019384D02*
X0124700Y0019384D01*
X0125926Y0019384D02*
X0143545Y0019384D01*
X0145455Y0019384D02*
X0152300Y0019384D01*
X0152300Y0020982D02*
X0106700Y0020982D01*
X0106700Y0022581D02*
X0152300Y0022581D01*
X0151510Y0024179D02*
X0106700Y0024179D01*
X0106700Y0025778D02*
X0149911Y0025778D01*
X0148313Y0027376D02*
X0106700Y0027376D01*
X0106700Y0028975D02*
X0146714Y0028975D01*
X0145116Y0030573D02*
X0106700Y0030573D01*
X0106700Y0032172D02*
X0143517Y0032172D01*
X0141918Y0033770D02*
X0106700Y0033770D01*
X0106700Y0035369D02*
X0140320Y0035369D01*
X0138721Y0036967D02*
X0106700Y0036967D01*
X0106700Y0038566D02*
X0137123Y0038566D01*
X0135524Y0040164D02*
X0107070Y0040164D01*
X0107500Y0041763D02*
X0133926Y0041763D01*
X0132327Y0043361D02*
X0107100Y0043361D01*
X0107098Y0044960D02*
X0009900Y0044960D01*
X0009900Y0046558D02*
X0106500Y0046558D01*
X0106815Y0048157D02*
X0009900Y0048157D01*
X0009900Y0049755D02*
X0108795Y0049755D01*
X0110205Y0049755D02*
X0112302Y0049755D01*
X0111500Y0051354D02*
X0009900Y0051354D01*
X0009900Y0052952D02*
X0111730Y0052952D01*
X0113302Y0054551D02*
X0009900Y0054551D01*
X0009900Y0056149D02*
X0152039Y0056149D01*
X0153638Y0054551D02*
X0115698Y0054551D01*
X0101900Y0043361D02*
X0009900Y0043361D01*
X0009900Y0041763D02*
X0011840Y0041763D01*
X0017160Y0041763D02*
X0101500Y0041763D01*
X0101930Y0040164D02*
X0020636Y0040164D01*
X0022317Y0038566D02*
X0102300Y0038566D01*
X0102300Y0036967D02*
X0023424Y0036967D01*
X0024219Y0035369D02*
X0102300Y0035369D01*
X0102300Y0033770D02*
X0024648Y0033770D01*
X0024812Y0032172D02*
X0102300Y0032172D01*
X0102300Y0030573D02*
X0024812Y0030573D01*
X0024419Y0028975D02*
X0102300Y0028975D01*
X0102300Y0027376D02*
X0023853Y0027376D01*
X0022930Y0025778D02*
X0102300Y0025778D01*
X0102300Y0024179D02*
X0021462Y0024179D01*
X0019155Y0022581D02*
X0102300Y0022581D01*
X0108020Y0017785D02*
X0110980Y0017785D01*
X0110095Y0016187D02*
X0108905Y0016187D01*
X0109100Y0014588D02*
X0109900Y0014588D01*
X0109900Y0012990D02*
X0109100Y0012990D01*
X0109100Y0011391D02*
X0109900Y0011391D01*
X0109900Y0009793D02*
X0109100Y0009793D01*
X0109100Y0008194D02*
X0109900Y0008194D01*
X0119100Y0008194D02*
X0119736Y0008194D01*
X0119700Y0009793D02*
X0119100Y0009793D01*
X0119100Y0011391D02*
X0119700Y0011391D01*
X0119700Y0012990D02*
X0119100Y0012990D01*
X0119100Y0014588D02*
X0119700Y0014588D01*
X0119904Y0016187D02*
X0118905Y0016187D01*
X0118020Y0017785D02*
X0120736Y0017785D01*
X0124300Y0017785D02*
X0124700Y0017785D01*
X0124700Y0016187D02*
X0124300Y0016187D01*
X0124300Y0014588D02*
X0124700Y0014588D01*
X0124700Y0012990D02*
X0124300Y0012990D01*
X0128264Y0017785D02*
X0140980Y0017785D01*
X0140095Y0016187D02*
X0129096Y0016187D01*
X0129300Y0014588D02*
X0139900Y0014588D01*
X0139900Y0012990D02*
X0129300Y0012990D01*
X0129300Y0011391D02*
X0139900Y0011391D01*
X0139900Y0009793D02*
X0129300Y0009793D01*
X0129264Y0008194D02*
X0139900Y0008194D01*
X0149100Y0008194D02*
X0149900Y0008194D01*
X0149900Y0009793D02*
X0149100Y0009793D01*
X0149100Y0011391D02*
X0149900Y0011391D01*
X0149900Y0012990D02*
X0149100Y0012990D01*
X0149100Y0014588D02*
X0149900Y0014588D01*
X0150095Y0016187D02*
X0148905Y0016187D01*
X0148020Y0017785D02*
X0150980Y0017785D01*
X0159535Y0027376D02*
X0180813Y0027376D01*
X0182411Y0025778D02*
X0161134Y0025778D01*
X0162732Y0024179D02*
X0184010Y0024179D01*
X0185608Y0022581D02*
X0164331Y0022581D01*
X0165929Y0020982D02*
X0212207Y0020982D01*
X0213805Y0019384D02*
X0175926Y0019384D01*
X0174700Y0019384D02*
X0174300Y0019384D01*
X0173074Y0019384D02*
X0166700Y0019384D01*
X0168020Y0017785D02*
X0170736Y0017785D01*
X0169904Y0016187D02*
X0168905Y0016187D01*
X0169100Y0014588D02*
X0169700Y0014588D01*
X0169700Y0012990D02*
X0169100Y0012990D01*
X0169100Y0011391D02*
X0169700Y0011391D01*
X0169700Y0009793D02*
X0169100Y0009793D01*
X0169100Y0008194D02*
X0169736Y0008194D01*
X0174300Y0012990D02*
X0174700Y0012990D01*
X0174700Y0014588D02*
X0174300Y0014588D01*
X0174300Y0016187D02*
X0174700Y0016187D01*
X0174700Y0017785D02*
X0174300Y0017785D01*
X0178264Y0017785D02*
X0215404Y0017785D01*
X0217002Y0016187D02*
X0179096Y0016187D01*
X0179300Y0014588D02*
X0218601Y0014588D01*
X0219900Y0012990D02*
X0179300Y0012990D01*
X0179300Y0011391D02*
X0219900Y0011391D01*
X0219900Y0009793D02*
X0179300Y0009793D01*
X0179264Y0008194D02*
X0219900Y0008194D01*
X0232732Y0024179D02*
X0247538Y0024179D01*
X0248168Y0023548D02*
X0250520Y0022191D01*
X0253142Y0021488D01*
X0255858Y0021488D01*
X0258480Y0022191D01*
X0259100Y0022549D01*
X0259100Y0016176D01*
X0258948Y0016643D01*
X0258605Y0017316D01*
X0258161Y0017927D01*
X0257627Y0018461D01*
X0257016Y0018905D01*
X0256343Y0019248D01*
X0255624Y0019482D01*
X0254878Y0019600D01*
X0254700Y0019600D01*
X0254700Y0012000D01*
X0254300Y0012000D01*
X0254300Y0019600D01*
X0254122Y0019600D01*
X0253376Y0019482D01*
X0252657Y0019248D01*
X0251984Y0018905D01*
X0251373Y0018461D01*
X0250839Y0017927D01*
X0250395Y0017316D01*
X0250052Y0016643D01*
X0249818Y0015924D01*
X0249700Y0015178D01*
X0249700Y0012000D01*
X0254300Y0012000D01*
X0254300Y0011600D01*
X0249700Y0011600D01*
X0249700Y0008422D01*
X0249818Y0007676D01*
X0249973Y0007200D01*
X0248816Y0007200D01*
X0249100Y0007885D01*
X0249100Y0015715D01*
X0248400Y0017406D01*
X0247106Y0018700D01*
X0245415Y0019400D01*
X0243585Y0019400D01*
X0241894Y0018700D01*
X0240600Y0017406D01*
X0239900Y0015715D01*
X0239900Y0007885D01*
X0240184Y0007200D01*
X0238816Y0007200D01*
X0239100Y0007885D01*
X0239100Y0015715D01*
X0238400Y0017406D01*
X0237106Y0018700D01*
X0236700Y0018868D01*
X0236700Y0020211D01*
X0229200Y0027711D01*
X0227911Y0029000D01*
X0190411Y0029000D01*
X0080611Y0138800D01*
X0081097Y0138800D01*
X0082199Y0139257D01*
X0083043Y0140101D01*
X0083500Y0141203D01*
X0083500Y0141689D01*
X0091411Y0149600D01*
X0095920Y0149600D01*
X0095301Y0149343D01*
X0094457Y0148499D01*
X0094000Y0147397D01*
X0094000Y0146203D01*
X0094457Y0145101D01*
X0095301Y0144257D01*
X0096403Y0143800D01*
X0096889Y0143800D01*
X0097300Y0143389D01*
X0097300Y0133843D01*
X0096957Y0133499D01*
X0096500Y0132397D01*
X0096500Y0131203D01*
X0096957Y0130101D01*
X0097801Y0129257D01*
X0098903Y0128800D01*
X0100097Y0128800D01*
X0101199Y0129257D01*
X0102043Y0130101D01*
X0102500Y0131203D01*
X0102500Y0132397D01*
X0102043Y0133499D01*
X0101700Y0133843D01*
X0101700Y0142100D01*
X0112911Y0142100D01*
X0113651Y0142839D01*
X0113957Y0142101D01*
X0114300Y0141757D01*
X0114300Y0135843D01*
X0113957Y0135499D01*
X0113500Y0134397D01*
X0113500Y0133203D01*
X0113957Y0132101D01*
X0114801Y0131257D01*
X0115903Y0130800D01*
X0117097Y0130800D01*
X0118199Y0131257D01*
X0119043Y0132101D01*
X0119500Y0133203D01*
X0119500Y0134397D01*
X0119043Y0135499D01*
X0118700Y0135843D01*
X0118700Y0141757D01*
X0119043Y0142101D01*
X0119500Y0143203D01*
X0119500Y0144397D01*
X0119043Y0145499D01*
X0118199Y0146343D01*
X0117461Y0146649D01*
X0123611Y0152800D01*
X0124097Y0152800D01*
X0125199Y0153257D01*
X0126043Y0154101D01*
X0126500Y0155203D01*
X0126500Y0156397D01*
X0126374Y0156700D01*
X0255514Y0156700D01*
X0257389Y0157476D01*
X0258824Y0158911D01*
X0259100Y0159578D01*
X0259100Y0041051D01*
X0258480Y0041409D01*
X0255858Y0042112D01*
X0253142Y0042112D01*
X0250520Y0041409D01*
X0248168Y0040051D01*
X0246248Y0038132D01*
X0244891Y0035780D01*
X0244188Y0033158D01*
X0244188Y0030442D01*
X0244891Y0027820D01*
X0246248Y0025468D01*
X0248168Y0023548D01*
X0249845Y0022581D02*
X0234331Y0022581D01*
X0235929Y0020982D02*
X0259100Y0020982D01*
X0259100Y0019384D02*
X0255926Y0019384D01*
X0254700Y0019384D02*
X0254300Y0019384D01*
X0253074Y0019384D02*
X0245455Y0019384D01*
X0243545Y0019384D02*
X0236700Y0019384D01*
X0238020Y0017785D02*
X0240980Y0017785D01*
X0240095Y0016187D02*
X0238905Y0016187D01*
X0239100Y0014588D02*
X0239900Y0014588D01*
X0239900Y0012990D02*
X0239100Y0012990D01*
X0239100Y0011391D02*
X0239900Y0011391D01*
X0239900Y0009793D02*
X0239100Y0009793D01*
X0239100Y0008194D02*
X0239900Y0008194D01*
X0248905Y0016187D02*
X0249904Y0016187D01*
X0249700Y0014588D02*
X0249100Y0014588D01*
X0249100Y0012990D02*
X0249700Y0012990D01*
X0249700Y0011391D02*
X0249100Y0011391D01*
X0249100Y0009793D02*
X0249700Y0009793D01*
X0249736Y0008194D02*
X0249100Y0008194D01*
X0254300Y0012990D02*
X0254700Y0012990D01*
X0254700Y0014588D02*
X0254300Y0014588D01*
X0254300Y0016187D02*
X0254700Y0016187D01*
X0254700Y0017785D02*
X0254300Y0017785D01*
X0250736Y0017785D02*
X0248020Y0017785D01*
X0246070Y0025778D02*
X0231134Y0025778D01*
X0229535Y0027376D02*
X0245147Y0027376D01*
X0244581Y0028975D02*
X0227937Y0028975D01*
X0217622Y0043957D02*
X0220843Y0047178D01*
X0223121Y0051122D01*
X0224300Y0055522D01*
X0224300Y0060078D01*
X0223121Y0064478D01*
X0220843Y0068422D01*
X0217622Y0071643D01*
X0213678Y0073921D01*
X0209278Y0075100D01*
X0204722Y0075100D01*
X0200322Y0073921D01*
X0196378Y0071643D01*
X0193157Y0068422D01*
X0190879Y0064478D01*
X0189700Y0060078D01*
X0189700Y0055522D01*
X0190879Y0051122D01*
X0193157Y0047178D01*
X0196378Y0043957D01*
X0200322Y0041679D01*
X0204722Y0040500D01*
X0209278Y0040500D01*
X0213678Y0041679D01*
X0217622Y0043957D01*
X0216591Y0043361D02*
X0259100Y0043361D01*
X0259100Y0041763D02*
X0257160Y0041763D01*
X0259100Y0044960D02*
X0218626Y0044960D01*
X0220224Y0046558D02*
X0259100Y0046558D01*
X0259100Y0048157D02*
X0221409Y0048157D01*
X0222332Y0049755D02*
X0259100Y0049755D01*
X0259100Y0051354D02*
X0223183Y0051354D01*
X0223611Y0052952D02*
X0259100Y0052952D01*
X0259100Y0054551D02*
X0224040Y0054551D01*
X0224300Y0056149D02*
X0259100Y0056149D01*
X0259100Y0057748D02*
X0224300Y0057748D01*
X0224300Y0059346D02*
X0259100Y0059346D01*
X0259100Y0060945D02*
X0224068Y0060945D01*
X0223639Y0062543D02*
X0259100Y0062543D01*
X0259100Y0064142D02*
X0223211Y0064142D01*
X0222392Y0065740D02*
X0259100Y0065740D01*
X0259100Y0067339D02*
X0221469Y0067339D01*
X0220328Y0068937D02*
X0259100Y0068937D01*
X0259100Y0070536D02*
X0218730Y0070536D01*
X0216772Y0072134D02*
X0259100Y0072134D01*
X0259100Y0073733D02*
X0214003Y0073733D01*
X0199997Y0073733D02*
X0145678Y0073733D01*
X0144080Y0075332D02*
X0259100Y0075332D01*
X0259100Y0076930D02*
X0142481Y0076930D01*
X0140883Y0078529D02*
X0259100Y0078529D01*
X0259100Y0080127D02*
X0139284Y0080127D01*
X0137686Y0081726D02*
X0259100Y0081726D01*
X0259100Y0083324D02*
X0136087Y0083324D01*
X0134489Y0084923D02*
X0259100Y0084923D01*
X0259100Y0086521D02*
X0132890Y0086521D01*
X0131292Y0088120D02*
X0259100Y0088120D01*
X0259100Y0089718D02*
X0129693Y0089718D01*
X0128095Y0091317D02*
X0259100Y0091317D01*
X0259100Y0092915D02*
X0126496Y0092915D01*
X0124898Y0094514D02*
X0259100Y0094514D01*
X0259100Y0096112D02*
X0123299Y0096112D01*
X0121701Y0097711D02*
X0259100Y0097711D01*
X0259100Y0099309D02*
X0120102Y0099309D01*
X0118504Y0100908D02*
X0259100Y0100908D01*
X0259100Y0102506D02*
X0116905Y0102506D01*
X0115307Y0104105D02*
X0133955Y0104105D01*
X0133957Y0104101D02*
X0134801Y0103257D01*
X0135903Y0102800D01*
X0137097Y0102800D01*
X0138199Y0103257D01*
X0138543Y0103600D01*
X0147411Y0103600D01*
X0177611Y0133800D01*
X0178097Y0133800D01*
X0179199Y0134257D01*
X0180043Y0135101D01*
X0180500Y0136203D01*
X0180500Y0137397D01*
X0180043Y0138499D01*
X0179199Y0139343D01*
X0178097Y0139800D01*
X0176903Y0139800D01*
X0175801Y0139343D01*
X0174957Y0138499D01*
X0174500Y0137397D01*
X0174500Y0136911D01*
X0145589Y0108000D01*
X0138543Y0108000D01*
X0138199Y0108343D01*
X0137097Y0108800D01*
X0135903Y0108800D01*
X0134801Y0108343D01*
X0133957Y0107499D01*
X0133500Y0106397D01*
X0133500Y0105203D01*
X0133957Y0104101D01*
X0133500Y0105703D02*
X0113708Y0105703D01*
X0112110Y0107302D02*
X0133875Y0107302D01*
X0146489Y0108900D02*
X0110511Y0108900D01*
X0108912Y0110499D02*
X0148088Y0110499D01*
X0149686Y0112097D02*
X0107314Y0112097D01*
X0105715Y0113696D02*
X0151285Y0113696D01*
X0152883Y0115294D02*
X0104117Y0115294D01*
X0102518Y0116893D02*
X0154482Y0116893D01*
X0156080Y0118491D02*
X0100920Y0118491D01*
X0099321Y0120090D02*
X0157679Y0120090D01*
X0159277Y0121688D02*
X0097723Y0121688D01*
X0096124Y0123287D02*
X0160876Y0123287D01*
X0162474Y0124885D02*
X0094526Y0124885D01*
X0092927Y0126484D02*
X0164073Y0126484D01*
X0165671Y0128082D02*
X0091329Y0128082D01*
X0089730Y0129681D02*
X0097376Y0129681D01*
X0096500Y0131279D02*
X0088132Y0131279D01*
X0086533Y0132878D02*
X0096699Y0132878D01*
X0097300Y0134476D02*
X0084935Y0134476D01*
X0083336Y0136075D02*
X0097300Y0136075D01*
X0097300Y0137673D02*
X0081738Y0137673D01*
X0082215Y0139272D02*
X0097300Y0139272D01*
X0097300Y0140870D02*
X0083362Y0140870D01*
X0084280Y0142469D02*
X0097300Y0142469D01*
X0095757Y0144068D02*
X0085879Y0144068D01*
X0087477Y0145666D02*
X0094223Y0145666D01*
X0094000Y0147265D02*
X0089076Y0147265D01*
X0090674Y0148863D02*
X0094820Y0148863D01*
X0089247Y0153659D02*
X0079200Y0153659D01*
X0079200Y0155257D02*
X0119846Y0155257D01*
X0118247Y0153659D02*
X0100753Y0153659D01*
X0102351Y0152060D02*
X0116649Y0152060D01*
X0115050Y0150462D02*
X0110914Y0150462D01*
X0112307Y0148863D02*
X0113452Y0148863D01*
X0113280Y0142469D02*
X0113804Y0142469D01*
X0114300Y0140870D02*
X0101700Y0140870D01*
X0101700Y0139272D02*
X0114300Y0139272D01*
X0114300Y0137673D02*
X0101700Y0137673D01*
X0101700Y0136075D02*
X0114300Y0136075D01*
X0113533Y0134476D02*
X0101700Y0134476D01*
X0102301Y0132878D02*
X0113635Y0132878D01*
X0114778Y0131279D02*
X0102500Y0131279D01*
X0101624Y0129681D02*
X0167270Y0129681D01*
X0168868Y0131279D02*
X0118222Y0131279D01*
X0119365Y0132878D02*
X0170467Y0132878D01*
X0172065Y0134476D02*
X0119467Y0134476D01*
X0118700Y0136075D02*
X0173664Y0136075D01*
X0174615Y0137673D02*
X0118700Y0137673D01*
X0118700Y0139272D02*
X0175729Y0139272D01*
X0179271Y0139272D02*
X0250619Y0139272D01*
X0250640Y0139221D02*
X0251921Y0137940D01*
X0253594Y0137247D01*
X0255406Y0137247D01*
X0257079Y0137940D01*
X0258360Y0139221D01*
X0259053Y0140894D01*
X0259053Y0142706D01*
X0258360Y0144379D01*
X0257079Y0145660D01*
X0255406Y0146353D01*
X0253594Y0146353D01*
X0251921Y0145660D01*
X0250640Y0144379D01*
X0249947Y0142706D01*
X0249947Y0140894D01*
X0250640Y0139221D01*
X0249957Y0140870D02*
X0118700Y0140870D01*
X0119196Y0142469D02*
X0249947Y0142469D01*
X0250511Y0144068D02*
X0119500Y0144068D01*
X0118877Y0145666D02*
X0251936Y0145666D01*
X0257064Y0145666D02*
X0259100Y0145666D01*
X0259100Y0144068D02*
X0258489Y0144068D01*
X0259053Y0142469D02*
X0259100Y0142469D01*
X0259100Y0140870D02*
X0259043Y0140870D01*
X0259100Y0139272D02*
X0258381Y0139272D01*
X0259100Y0137673D02*
X0256435Y0137673D01*
X0259100Y0136075D02*
X0180447Y0136075D01*
X0180385Y0137673D02*
X0252565Y0137673D01*
X0259100Y0134476D02*
X0179419Y0134476D01*
X0176689Y0132878D02*
X0259100Y0132878D01*
X0259100Y0131279D02*
X0175091Y0131279D01*
X0173492Y0129681D02*
X0259100Y0129681D01*
X0259100Y0128082D02*
X0171894Y0128082D01*
X0170295Y0126484D02*
X0259100Y0126484D01*
X0259100Y0124885D02*
X0168697Y0124885D01*
X0167098Y0123287D02*
X0193981Y0123287D01*
X0194394Y0123700D02*
X0193100Y0122406D01*
X0192400Y0120715D01*
X0192400Y0112885D01*
X0193100Y0111194D01*
X0194394Y0109900D01*
X0196085Y0109200D01*
X0197915Y0109200D01*
X0199606Y0109900D01*
X0200900Y0111194D01*
X0201600Y0112885D01*
X0201600Y0120715D01*
X0200900Y0122406D01*
X0199606Y0123700D01*
X0197915Y0124400D01*
X0196085Y0124400D01*
X0194394Y0123700D01*
X0192803Y0121688D02*
X0165500Y0121688D01*
X0163901Y0120090D02*
X0192400Y0120090D01*
X0192400Y0118491D02*
X0162303Y0118491D01*
X0160704Y0116893D02*
X0192400Y0116893D01*
X0192400Y0115294D02*
X0159106Y0115294D01*
X0157507Y0113696D02*
X0192400Y0113696D01*
X0192726Y0112097D02*
X0155909Y0112097D01*
X0154310Y0110499D02*
X0193796Y0110499D01*
X0200204Y0110499D02*
X0203513Y0110499D01*
X0203339Y0110673D02*
X0203873Y0110139D01*
X0204484Y0109695D01*
X0205157Y0109352D01*
X0205876Y0109118D01*
X0206622Y0109000D01*
X0206800Y0109000D01*
X0206800Y0116600D01*
X0202200Y0116600D01*
X0202200Y0113422D01*
X0202318Y0112676D01*
X0202552Y0111957D01*
X0202895Y0111284D01*
X0203339Y0110673D01*
X0202506Y0112097D02*
X0201274Y0112097D01*
X0201600Y0113696D02*
X0202200Y0113696D01*
X0202200Y0115294D02*
X0201600Y0115294D01*
X0201600Y0116893D02*
X0206800Y0116893D01*
X0206800Y0117000D02*
X0206800Y0116600D01*
X0207200Y0116600D01*
X0207200Y0117000D01*
X0206800Y0117000D01*
X0206800Y0124600D01*
X0206622Y0124600D01*
X0205876Y0124482D01*
X0205157Y0124248D01*
X0204484Y0123905D01*
X0203873Y0123461D01*
X0203339Y0122927D01*
X0202895Y0122316D01*
X0202552Y0121643D01*
X0202318Y0120924D01*
X0202200Y0120178D01*
X0202200Y0117000D01*
X0206800Y0117000D01*
X0207200Y0117000D02*
X0207200Y0124600D01*
X0207378Y0124600D01*
X0208124Y0124482D01*
X0208843Y0124248D01*
X0209516Y0123905D01*
X0210127Y0123461D01*
X0210661Y0122927D01*
X0211105Y0122316D01*
X0211448Y0121643D01*
X0211682Y0120924D01*
X0211800Y0120178D01*
X0211800Y0117000D01*
X0207200Y0117000D01*
X0207200Y0116893D02*
X0212400Y0116893D01*
X0211800Y0116600D02*
X0207200Y0116600D01*
X0207200Y0109000D01*
X0207378Y0109000D01*
X0208124Y0109118D01*
X0208843Y0109352D01*
X0209516Y0109695D01*
X0210127Y0110139D01*
X0210661Y0110673D01*
X0211105Y0111284D01*
X0211448Y0111957D01*
X0211682Y0112676D01*
X0211800Y0113422D01*
X0211800Y0116600D01*
X0211800Y0115294D02*
X0212400Y0115294D01*
X0212400Y0113696D02*
X0211800Y0113696D01*
X0212400Y0112885D02*
X0213100Y0111194D01*
X0214394Y0109900D01*
X0216085Y0109200D01*
X0217915Y0109200D01*
X0219606Y0109900D01*
X0220900Y0111194D01*
X0221600Y0112885D01*
X0221600Y0120715D01*
X0220900Y0122406D01*
X0219606Y0123700D01*
X0217915Y0124400D01*
X0216085Y0124400D01*
X0214394Y0123700D01*
X0213100Y0122406D01*
X0212400Y0120715D01*
X0212400Y0112885D01*
X0212726Y0112097D02*
X0211494Y0112097D01*
X0210487Y0110499D02*
X0213796Y0110499D01*
X0207200Y0110499D02*
X0206800Y0110499D01*
X0206800Y0112097D02*
X0207200Y0112097D01*
X0207200Y0113696D02*
X0206800Y0113696D01*
X0206800Y0115294D02*
X0207200Y0115294D01*
X0207200Y0118491D02*
X0206800Y0118491D01*
X0206800Y0120090D02*
X0207200Y0120090D01*
X0207200Y0121688D02*
X0206800Y0121688D01*
X0206800Y0123287D02*
X0207200Y0123287D01*
X0210301Y0123287D02*
X0213981Y0123287D01*
X0212803Y0121688D02*
X0211425Y0121688D01*
X0211800Y0120090D02*
X0212400Y0120090D01*
X0212400Y0118491D02*
X0211800Y0118491D01*
X0203699Y0123287D02*
X0200019Y0123287D01*
X0201197Y0121688D02*
X0202575Y0121688D01*
X0202200Y0120090D02*
X0201600Y0120090D01*
X0201600Y0118491D02*
X0202200Y0118491D01*
X0220019Y0123287D02*
X0259100Y0123287D01*
X0259100Y0121688D02*
X0221197Y0121688D01*
X0221600Y0120090D02*
X0259100Y0120090D01*
X0259100Y0118491D02*
X0221600Y0118491D01*
X0221600Y0116893D02*
X0259100Y0116893D01*
X0259100Y0115294D02*
X0221600Y0115294D01*
X0221600Y0113696D02*
X0259100Y0113696D01*
X0259100Y0112097D02*
X0221274Y0112097D01*
X0220204Y0110499D02*
X0259100Y0110499D01*
X0259100Y0108900D02*
X0152712Y0108900D01*
X0151113Y0107302D02*
X0259100Y0107302D01*
X0259100Y0105703D02*
X0149514Y0105703D01*
X0147916Y0104105D02*
X0259100Y0104105D01*
X0259100Y0147265D02*
X0197947Y0147265D01*
X0197906Y0147247D02*
X0199579Y0147940D01*
X0200860Y0149221D01*
X0201553Y0150894D01*
X0201553Y0152706D01*
X0200860Y0154379D01*
X0199579Y0155660D01*
X0197906Y0156353D01*
X0196094Y0156353D01*
X0194421Y0155660D01*
X0193361Y0154600D01*
X0140639Y0154600D01*
X0139579Y0155660D01*
X0137906Y0156353D01*
X0136094Y0156353D01*
X0134421Y0155660D01*
X0133140Y0154379D01*
X0132447Y0152706D01*
X0132447Y0150894D01*
X0133140Y0149221D01*
X0134421Y0147940D01*
X0136094Y0147247D01*
X0137906Y0147247D01*
X0139579Y0147940D01*
X0140639Y0149000D01*
X0193361Y0149000D01*
X0194421Y0147940D01*
X0196094Y0147247D01*
X0197906Y0147247D01*
X0196053Y0147265D02*
X0137947Y0147265D01*
X0136053Y0147265D02*
X0118076Y0147265D01*
X0119674Y0148863D02*
X0133498Y0148863D01*
X0132627Y0150462D02*
X0121273Y0150462D01*
X0122871Y0152060D02*
X0132447Y0152060D01*
X0132842Y0153659D02*
X0125601Y0153659D01*
X0126500Y0155257D02*
X0134019Y0155257D01*
X0139981Y0155257D02*
X0194019Y0155257D01*
X0199981Y0155257D02*
X0259100Y0155257D01*
X0259100Y0153659D02*
X0201158Y0153659D01*
X0201553Y0152060D02*
X0259100Y0152060D01*
X0259100Y0150462D02*
X0201373Y0150462D01*
X0200502Y0148863D02*
X0259100Y0148863D01*
X0259100Y0156856D02*
X0255890Y0156856D01*
X0258367Y0158454D02*
X0259100Y0158454D01*
X0259100Y0164848D02*
X0258664Y0164848D01*
X0259100Y0166447D02*
X0256609Y0166447D01*
X0259100Y0168045D02*
X0144727Y0168045D01*
X0145000Y0169644D02*
X0259100Y0169644D01*
X0259100Y0171242D02*
X0144300Y0171242D01*
X0141700Y0172841D02*
X0259100Y0172841D01*
X0259100Y0174439D02*
X0141700Y0174439D01*
X0141700Y0176038D02*
X0141723Y0176038D01*
X0137300Y0174439D02*
X0104073Y0174439D01*
X0102475Y0176038D02*
X0111723Y0176038D01*
X0112121Y0175639D02*
X0113665Y0175000D01*
X0115335Y0175000D01*
X0116879Y0175639D01*
X0118061Y0176821D01*
X0118700Y0178365D01*
X0118700Y0185235D01*
X0118061Y0186779D01*
X0116879Y0187961D01*
X0115335Y0188600D01*
X0113665Y0188600D01*
X0112121Y0187961D01*
X0110939Y0186779D01*
X0110300Y0185235D01*
X0110300Y0184000D01*
X0107911Y0184000D01*
X0096700Y0195211D01*
X0096700Y0223389D01*
X0100956Y0227645D01*
X0101065Y0227600D01*
X0107935Y0227600D01*
X0109479Y0228239D01*
X0110661Y0229421D01*
X0111300Y0230965D01*
X0111300Y0232635D01*
X0110661Y0234179D01*
X0109479Y0235361D01*
X0107935Y0236000D01*
X0101065Y0236000D01*
X0099521Y0235361D01*
X0098339Y0234179D01*
X0097700Y0232635D01*
X0097700Y0230965D01*
X0097803Y0230715D01*
X0092300Y0225211D01*
X0092300Y0193389D01*
X0093589Y0192100D01*
X0106089Y0179600D01*
X0110300Y0179600D01*
X0110300Y0178365D01*
X0110939Y0176821D01*
X0112121Y0175639D01*
X0110602Y0177636D02*
X0100876Y0177636D01*
X0099278Y0179235D02*
X0110300Y0179235D01*
X0110300Y0184030D02*
X0107881Y0184030D01*
X0106282Y0185629D02*
X0110463Y0185629D01*
X0111388Y0187227D02*
X0104684Y0187227D01*
X0103085Y0188826D02*
X0137300Y0188826D01*
X0137300Y0190424D02*
X0101487Y0190424D01*
X0099888Y0192023D02*
X0137300Y0192023D01*
X0137067Y0193621D02*
X0098290Y0193621D01*
X0096700Y0195220D02*
X0135469Y0195220D01*
X0133870Y0196818D02*
X0096700Y0196818D01*
X0096700Y0198417D02*
X0101378Y0198417D01*
X0102595Y0197200D02*
X0099900Y0199895D01*
X0099900Y0203705D01*
X0102595Y0206400D01*
X0106405Y0206400D01*
X0109100Y0203705D01*
X0109100Y0199895D01*
X0106405Y0197200D01*
X0102595Y0197200D01*
X0099900Y0200015D02*
X0096700Y0200015D01*
X0096700Y0201614D02*
X0099900Y0201614D01*
X0099900Y0203212D02*
X0096700Y0203212D01*
X0096700Y0204811D02*
X0101006Y0204811D01*
X0101065Y0207600D02*
X0099521Y0208239D01*
X0098339Y0209421D01*
X0097700Y0210965D01*
X0097700Y0212635D01*
X0098339Y0214179D01*
X0099521Y0215361D01*
X0101065Y0216000D01*
X0107935Y0216000D01*
X0109479Y0215361D01*
X0110661Y0214179D01*
X0111300Y0212635D01*
X0111300Y0210965D01*
X0110661Y0209421D01*
X0109479Y0208239D01*
X0107935Y0207600D01*
X0101065Y0207600D01*
X0100080Y0208008D02*
X0096700Y0208008D01*
X0096700Y0209606D02*
X0098263Y0209606D01*
X0097700Y0211205D02*
X0096700Y0211205D01*
X0096700Y0212803D02*
X0097770Y0212803D01*
X0098562Y0214402D02*
X0096700Y0214402D01*
X0096700Y0216001D02*
X0139800Y0216001D01*
X0139800Y0217599D02*
X0096700Y0217599D01*
X0096700Y0219198D02*
X0098563Y0219198D01*
X0098339Y0219421D02*
X0099521Y0218239D01*
X0101065Y0217600D01*
X0107935Y0217600D01*
X0109479Y0218239D01*
X0110661Y0219421D01*
X0111300Y0220965D01*
X0111300Y0222635D01*
X0110661Y0224179D01*
X0109479Y0225361D01*
X0107935Y0226000D01*
X0101065Y0226000D01*
X0099521Y0225361D01*
X0098339Y0224179D01*
X0097700Y0222635D01*
X0097700Y0220965D01*
X0098339Y0219421D01*
X0097770Y0220796D02*
X0096700Y0220796D01*
X0096700Y0222395D02*
X0097700Y0222395D01*
X0097304Y0223993D02*
X0098262Y0223993D01*
X0098903Y0225592D02*
X0100079Y0225592D01*
X0100501Y0227190D02*
X0134800Y0227190D01*
X0134800Y0226343D02*
X0134457Y0225999D01*
X0134000Y0224897D01*
X0134000Y0223703D01*
X0134457Y0222601D01*
X0135301Y0221757D01*
X0136403Y0221300D01*
X0137597Y0221300D01*
X0138699Y0221757D01*
X0139543Y0222601D01*
X0139800Y0223220D01*
X0139800Y0210889D01*
X0141089Y0209600D01*
X0156500Y0194189D01*
X0156500Y0193703D01*
X0156957Y0192601D01*
X0157801Y0191757D01*
X0158903Y0191300D01*
X0160097Y0191300D01*
X0161199Y0191757D01*
X0162000Y0192557D01*
X0162801Y0191757D01*
X0163903Y0191300D01*
X0165097Y0191300D01*
X0166199Y0191757D01*
X0167043Y0192601D01*
X0167500Y0193703D01*
X0167500Y0194897D01*
X0167043Y0195999D01*
X0166243Y0196800D01*
X0167043Y0197601D01*
X0167500Y0198703D01*
X0167500Y0199897D01*
X0167043Y0200999D01*
X0166199Y0201843D01*
X0165097Y0202300D01*
X0164611Y0202300D01*
X0154200Y0212711D01*
X0154200Y0252257D01*
X0154543Y0252601D01*
X0155000Y0253703D01*
X0155000Y0254897D01*
X0154543Y0255999D01*
X0153699Y0256843D01*
X0152597Y0257300D01*
X0151403Y0257300D01*
X0150301Y0256843D01*
X0150000Y0256543D01*
X0150000Y0257397D01*
X0149543Y0258499D01*
X0148699Y0259343D01*
X0148080Y0259600D01*
X0151089Y0259600D01*
X0154800Y0255889D01*
X0156089Y0254600D01*
X0158760Y0254600D01*
X0158339Y0254179D01*
X0157700Y0252635D01*
X0157700Y0250965D01*
X0158339Y0249421D01*
X0159521Y0248239D01*
X0161065Y0247600D01*
X0167935Y0247600D01*
X0169479Y0248239D01*
X0170661Y0249421D01*
X0171300Y0250965D01*
X0171300Y0252635D01*
X0170661Y0254179D01*
X0170240Y0254600D01*
X0181089Y0254600D01*
X0196089Y0239600D01*
X0198265Y0239600D01*
X0198339Y0239421D01*
X0199521Y0238239D01*
X0201065Y0237600D01*
X0207935Y0237600D01*
X0209479Y0238239D01*
X0210661Y0239421D01*
X0211300Y0240965D01*
X0211300Y0242635D01*
X0210661Y0244179D01*
X0209479Y0245361D01*
X0207935Y0246000D01*
X0201065Y0246000D01*
X0199521Y0245361D01*
X0198339Y0244179D01*
X0198265Y0244000D01*
X0197911Y0244000D01*
X0184200Y0257711D01*
X0182911Y0259000D01*
X0170240Y0259000D01*
X0170661Y0259421D01*
X0171300Y0260965D01*
X0171300Y0262635D01*
X0170661Y0264179D01*
X0170240Y0264600D01*
X0181089Y0264600D01*
X0194800Y0250889D01*
X0194800Y0250889D01*
X0196089Y0249600D01*
X0198265Y0249600D01*
X0198339Y0249421D01*
X0199521Y0248239D01*
X0201065Y0247600D01*
X0207935Y0247600D01*
X0209479Y0248239D01*
X0210661Y0249421D01*
X0211300Y0250965D01*
X0211300Y0252635D01*
X0210661Y0254179D01*
X0209479Y0255361D01*
X0207935Y0256000D01*
X0201065Y0256000D01*
X0199521Y0255361D01*
X0198339Y0254179D01*
X0198265Y0254000D01*
X0197911Y0254000D01*
X0182911Y0269000D01*
X0170240Y0269000D01*
X0170661Y0269421D01*
X0171300Y0270965D01*
X0171300Y0272635D01*
X0170661Y0274179D01*
X0169479Y0275361D01*
X0167935Y0276000D01*
X0161065Y0276000D01*
X0159521Y0275361D01*
X0158339Y0274179D01*
X0157700Y0272635D01*
X0157700Y0270965D01*
X0158339Y0269421D01*
X0158760Y0269000D01*
X0157911Y0269000D01*
X0152911Y0274000D01*
X0110735Y0274000D01*
X0110661Y0274179D01*
X0109479Y0275361D01*
X0107935Y0276000D01*
X0101065Y0276000D01*
X0099521Y0275361D01*
X0098339Y0274179D01*
X0097700Y0272635D01*
X0097700Y0270965D01*
X0098339Y0269421D01*
X0099521Y0268239D01*
X0101065Y0267600D01*
X0107935Y0267600D01*
X0109479Y0268239D01*
X0110661Y0269421D01*
X0110735Y0269600D01*
X0151089Y0269600D01*
X0156089Y0264600D01*
X0158760Y0264600D01*
X0158339Y0264179D01*
X0157700Y0262635D01*
X0157700Y0260965D01*
X0158339Y0259421D01*
X0158760Y0259000D01*
X0157911Y0259000D01*
X0154200Y0262711D01*
X0152911Y0264000D01*
X0110735Y0264000D01*
X0110661Y0264179D01*
X0109479Y0265361D01*
X0107935Y0266000D01*
X0101065Y0266000D01*
X0099521Y0265361D01*
X0098339Y0264179D01*
X0097700Y0262635D01*
X0097700Y0260965D01*
X0098339Y0259421D01*
X0099521Y0258239D01*
X0101065Y0257600D01*
X0107935Y0257600D01*
X0109479Y0258239D01*
X0110661Y0259421D01*
X0110735Y0259600D01*
X0135920Y0259600D01*
X0135301Y0259343D01*
X0134457Y0258499D01*
X0134000Y0257397D01*
X0134000Y0256203D01*
X0134457Y0255101D01*
X0134800Y0254757D01*
X0134800Y0226343D01*
X0134288Y0225592D02*
X0108921Y0225592D01*
X0110738Y0223993D02*
X0134000Y0223993D01*
X0134663Y0222395D02*
X0111300Y0222395D01*
X0111230Y0220796D02*
X0139800Y0220796D01*
X0139800Y0219198D02*
X0110437Y0219198D01*
X0110438Y0214402D02*
X0120442Y0214402D01*
X0119168Y0212803D02*
X0111230Y0212803D01*
X0111300Y0211205D02*
X0119000Y0211205D01*
X0119951Y0209606D02*
X0110737Y0209606D01*
X0108920Y0208008D02*
X0122681Y0208008D01*
X0124279Y0206409D02*
X0096700Y0206409D01*
X0092300Y0206409D02*
X0084600Y0206409D01*
X0084600Y0204811D02*
X0092300Y0204811D01*
X0092300Y0203212D02*
X0084600Y0203212D01*
X0084600Y0201614D02*
X0092300Y0201614D01*
X0092300Y0200015D02*
X0084600Y0200015D01*
X0084600Y0198417D02*
X0092300Y0198417D01*
X0092300Y0196818D02*
X0084600Y0196818D01*
X0084600Y0195220D02*
X0092300Y0195220D01*
X0092300Y0193621D02*
X0084891Y0193621D01*
X0086490Y0192023D02*
X0093666Y0192023D01*
X0095264Y0190424D02*
X0088088Y0190424D01*
X0089687Y0188826D02*
X0096863Y0188826D01*
X0098461Y0187227D02*
X0091285Y0187227D01*
X0092884Y0185629D02*
X0100060Y0185629D01*
X0101658Y0184030D02*
X0094482Y0184030D01*
X0096081Y0182432D02*
X0103257Y0182432D01*
X0104855Y0180833D02*
X0097679Y0180833D01*
X0091247Y0172841D02*
X0079200Y0172841D01*
X0079200Y0174439D02*
X0089648Y0174439D01*
X0088050Y0176038D02*
X0079200Y0176038D01*
X0079200Y0177636D02*
X0086451Y0177636D01*
X0084853Y0179235D02*
X0079200Y0179235D01*
X0079847Y0180833D02*
X0083254Y0180833D01*
X0081656Y0182432D02*
X0079985Y0182432D01*
X0080057Y0184030D02*
X0079012Y0184030D01*
X0078459Y0185629D02*
X0074697Y0185629D01*
X0072772Y0187227D02*
X0076860Y0187227D01*
X0075262Y0188826D02*
X0062659Y0188826D01*
X0061341Y0188826D02*
X0057659Y0188826D01*
X0056341Y0188826D02*
X0017964Y0188826D01*
X0018360Y0189221D02*
X0017079Y0187940D01*
X0015406Y0187247D01*
X0013594Y0187247D01*
X0011921Y0187940D01*
X0010640Y0189221D01*
X0009947Y0190894D01*
X0009947Y0192706D01*
X0010640Y0194379D01*
X0011921Y0195660D01*
X0013594Y0196353D01*
X0015406Y0196353D01*
X0017079Y0195660D01*
X0018360Y0194379D01*
X0019053Y0192706D01*
X0019053Y0190894D01*
X0018360Y0189221D01*
X0018858Y0190424D02*
X0054323Y0190424D01*
X0054000Y0192023D02*
X0019053Y0192023D01*
X0018673Y0193621D02*
X0054579Y0193621D01*
X0054800Y0195220D02*
X0017519Y0195220D01*
X0011481Y0195220D02*
X0009900Y0195220D01*
X0009900Y0196818D02*
X0054800Y0196818D01*
X0054800Y0198417D02*
X0009900Y0198417D01*
X0009900Y0200015D02*
X0054800Y0200015D01*
X0054800Y0201614D02*
X0009900Y0201614D01*
X0009900Y0203212D02*
X0054800Y0203212D01*
X0054800Y0204811D02*
X0009900Y0204811D01*
X0009900Y0206409D02*
X0054800Y0206409D01*
X0054800Y0208008D02*
X0017147Y0208008D01*
X0017079Y0207940D02*
X0018360Y0209221D01*
X0019053Y0210894D01*
X0019053Y0212706D01*
X0018360Y0214379D01*
X0017079Y0215660D01*
X0015406Y0216353D01*
X0013594Y0216353D01*
X0011921Y0215660D01*
X0010640Y0214379D01*
X0009947Y0212706D01*
X0009947Y0210894D01*
X0010640Y0209221D01*
X0011921Y0207940D01*
X0013594Y0207247D01*
X0015406Y0207247D01*
X0017079Y0207940D01*
X0018519Y0209606D02*
X0054800Y0209606D01*
X0054484Y0211205D02*
X0019053Y0211205D01*
X0019012Y0212803D02*
X0052885Y0212803D01*
X0051287Y0214402D02*
X0018337Y0214402D01*
X0016256Y0216001D02*
X0049688Y0216001D01*
X0048090Y0217599D02*
X0009900Y0217599D01*
X0009900Y0216001D02*
X0012744Y0216001D01*
X0010663Y0214402D02*
X0009900Y0214402D01*
X0009900Y0212803D02*
X0009988Y0212803D01*
X0009947Y0211205D02*
X0009900Y0211205D01*
X0009900Y0209606D02*
X0010481Y0209606D01*
X0009900Y0208008D02*
X0011853Y0208008D01*
X0009900Y0219198D02*
X0046491Y0219198D01*
X0044893Y0220796D02*
X0009900Y0220796D01*
X0009900Y0222395D02*
X0044800Y0222395D01*
X0044800Y0223993D02*
X0009900Y0223993D01*
X0009900Y0225592D02*
X0044800Y0225592D01*
X0044800Y0227190D02*
X0009900Y0227190D01*
X0014500Y0228789D02*
X0014500Y0228789D01*
X0014500Y0230387D02*
X0014500Y0230387D01*
X0014500Y0231986D02*
X0014500Y0231986D01*
X0014500Y0233584D02*
X0014500Y0233584D01*
X0014500Y0235183D02*
X0014500Y0235183D01*
X0009900Y0236781D02*
X0044800Y0236781D01*
X0044800Y0235183D02*
X0019930Y0235183D01*
X0021129Y0233584D02*
X0044800Y0233584D01*
X0044800Y0231986D02*
X0021500Y0231986D01*
X0021267Y0230387D02*
X0044800Y0230387D01*
X0044800Y0228789D02*
X0020311Y0228789D01*
X0019619Y0238380D02*
X0044800Y0238380D01*
X0044800Y0239978D02*
X0023289Y0239978D01*
X0024888Y0241577D02*
X0044800Y0241577D01*
X0044800Y0243175D02*
X0026486Y0243175D01*
X0028085Y0244774D02*
X0044800Y0244774D01*
X0044800Y0246372D02*
X0029684Y0246372D01*
X0031282Y0247971D02*
X0044800Y0247971D01*
X0044800Y0249569D02*
X0032881Y0249569D01*
X0034479Y0251168D02*
X0044800Y0251168D01*
X0044800Y0252766D02*
X0036078Y0252766D01*
X0037676Y0254365D02*
X0044800Y0254365D01*
X0044800Y0255963D02*
X0039275Y0255963D01*
X0040873Y0257562D02*
X0044800Y0257562D01*
X0044800Y0259160D02*
X0043467Y0259160D01*
X0044087Y0263956D02*
X0044800Y0263956D01*
X0044800Y0265554D02*
X0019011Y0265554D01*
X0020753Y0263956D02*
X0039913Y0263956D01*
X0039000Y0262357D02*
X0021300Y0262357D01*
X0021215Y0260759D02*
X0037848Y0260759D01*
X0036249Y0259160D02*
X0020400Y0259160D01*
X0018024Y0255963D02*
X0033052Y0255963D01*
X0031454Y0254365D02*
X0020475Y0254365D01*
X0021246Y0252766D02*
X0029855Y0252766D01*
X0028256Y0251168D02*
X0021300Y0251168D01*
X0020722Y0249569D02*
X0026658Y0249569D01*
X0025059Y0247971D02*
X0018830Y0247971D01*
X0020066Y0244774D02*
X0021862Y0244774D01*
X0023461Y0246372D02*
X0009900Y0246372D01*
X0009900Y0247971D02*
X0010170Y0247971D01*
X0009900Y0255963D02*
X0010976Y0255963D01*
X0009900Y0257562D02*
X0034651Y0257562D01*
X0044800Y0267153D02*
X0009900Y0267153D01*
X0009900Y0265554D02*
X0009989Y0265554D01*
X0009900Y0276744D02*
X0044800Y0276744D01*
X0044800Y0278342D02*
X0019582Y0278342D01*
X0020876Y0279941D02*
X0044800Y0279941D01*
X0044800Y0281539D02*
X0021300Y0281539D01*
X0021092Y0283138D02*
X0044800Y0283138D01*
X0044800Y0284737D02*
X0020103Y0284737D01*
X0019766Y0287934D02*
X0044800Y0287934D01*
X0044800Y0289532D02*
X0021815Y0289532D01*
X0023134Y0291131D02*
X0045719Y0291131D01*
X0047318Y0292729D02*
X0024057Y0292729D01*
X0024513Y0294328D02*
X0048916Y0294328D01*
X0050515Y0295926D02*
X0024812Y0295926D01*
X0024812Y0297525D02*
X0052113Y0297525D01*
X0053712Y0299123D02*
X0024553Y0299123D01*
X0024125Y0300722D02*
X0055310Y0300722D01*
X0056909Y0302320D02*
X0023220Y0302320D01*
X0021964Y0303919D02*
X0058507Y0303919D01*
X0060106Y0305517D02*
X0020025Y0305517D01*
X0018608Y0307116D02*
X0061704Y0307116D01*
X0063303Y0308714D02*
X0021191Y0308714D01*
X0022064Y0310313D02*
X0064901Y0310313D01*
X0066500Y0311911D02*
X0014700Y0311911D01*
X0014700Y0313510D02*
X0014300Y0313510D01*
X0014300Y0315108D02*
X0014700Y0315108D01*
X0009900Y0316707D02*
X0071295Y0316707D01*
X0069697Y0315108D02*
X0020980Y0315108D01*
X0021991Y0313510D02*
X0068098Y0313510D01*
X0071124Y0310313D02*
X0072401Y0310313D01*
X0072722Y0311911D02*
X0074000Y0311911D01*
X0074321Y0313510D02*
X0075598Y0313510D01*
X0075919Y0315108D02*
X0099269Y0315108D01*
X0101065Y0317600D02*
X0107935Y0317600D01*
X0109479Y0318239D01*
X0110661Y0319421D01*
X0110735Y0319600D01*
X0142911Y0319600D01*
X0157911Y0334600D01*
X0158760Y0334600D01*
X0158339Y0334179D01*
X0157700Y0332635D01*
X0157700Y0330965D01*
X0158339Y0329421D01*
X0159521Y0328239D01*
X0161065Y0327600D01*
X0167935Y0327600D01*
X0169479Y0328239D01*
X0170661Y0329421D01*
X0171300Y0330965D01*
X0171300Y0332635D01*
X0170661Y0334179D01*
X0170240Y0334600D01*
X0210411Y0334600D01*
X0213211Y0337400D01*
X0216323Y0337400D01*
X0216623Y0337700D01*
X0222377Y0337700D01*
X0222677Y0337400D01*
X0226323Y0337400D01*
X0228900Y0339977D01*
X0228900Y0343623D01*
X0226323Y0346200D01*
X0222677Y0346200D01*
X0222377Y0345900D01*
X0216623Y0345900D01*
X0216323Y0346200D01*
X0212677Y0346200D01*
X0210100Y0343623D01*
X0210100Y0340511D01*
X0208589Y0339000D01*
X0170240Y0339000D01*
X0170661Y0339421D01*
X0171300Y0340965D01*
X0171300Y0342635D01*
X0170661Y0344179D01*
X0169479Y0345361D01*
X0167935Y0346000D01*
X0161065Y0346000D01*
X0159521Y0345361D01*
X0158339Y0344179D01*
X0157700Y0342635D01*
X0157700Y0340965D01*
X0158339Y0339421D01*
X0158760Y0339000D01*
X0156089Y0339000D01*
X0154800Y0337711D01*
X0141089Y0324000D01*
X0110735Y0324000D01*
X0110661Y0324179D01*
X0109479Y0325361D01*
X0107935Y0326000D01*
X0101065Y0326000D01*
X0099521Y0325361D01*
X0098339Y0324179D01*
X0097700Y0322635D01*
X0097700Y0320965D01*
X0098339Y0319421D01*
X0099521Y0318239D01*
X0101065Y0317600D01*
X0099455Y0318305D02*
X0079117Y0318305D01*
X0080715Y0319904D02*
X0098139Y0319904D01*
X0097700Y0321502D02*
X0082314Y0321502D01*
X0083912Y0323101D02*
X0097893Y0323101D01*
X0098860Y0324699D02*
X0085511Y0324699D01*
X0087109Y0326298D02*
X0143387Y0326298D01*
X0144985Y0327896D02*
X0108651Y0327896D01*
X0110691Y0329495D02*
X0146584Y0329495D01*
X0148182Y0331093D02*
X0111300Y0331093D01*
X0111277Y0332692D02*
X0149781Y0332692D01*
X0151379Y0334290D02*
X0110549Y0334290D01*
X0108204Y0335889D02*
X0152978Y0335889D01*
X0154576Y0337487D02*
X0019109Y0337487D01*
X0019649Y0335889D02*
X0100796Y0335889D01*
X0101065Y0337600D02*
X0099521Y0338239D01*
X0098339Y0339421D01*
X0097700Y0340965D01*
X0097700Y0342635D01*
X0098339Y0344179D01*
X0099521Y0345361D01*
X0101065Y0346000D01*
X0107935Y0346000D01*
X0109479Y0345361D01*
X0110661Y0344179D01*
X0111300Y0342635D01*
X0111300Y0340965D01*
X0110661Y0339421D01*
X0109479Y0338239D01*
X0107935Y0337600D01*
X0101065Y0337600D01*
X0098674Y0339086D02*
X0021291Y0339086D01*
X0022017Y0340684D02*
X0097816Y0340684D01*
X0097700Y0342283D02*
X0022100Y0342283D01*
X0021617Y0343881D02*
X0098216Y0343881D01*
X0099809Y0345480D02*
X0020325Y0345480D01*
X0020882Y0348677D02*
X0099083Y0348677D01*
X0099521Y0348239D02*
X0101065Y0347600D01*
X0107935Y0347600D01*
X0109479Y0348239D01*
X0110661Y0349421D01*
X0111300Y0350965D01*
X0111300Y0352635D01*
X0110661Y0354179D01*
X0109479Y0355361D01*
X0107935Y0356000D01*
X0101065Y0356000D01*
X0099521Y0355361D01*
X0098339Y0354179D01*
X0097700Y0352635D01*
X0097700Y0350965D01*
X0098339Y0349421D01*
X0099521Y0348239D01*
X0097985Y0350275D02*
X0021848Y0350275D01*
X0022100Y0351874D02*
X0097700Y0351874D01*
X0098047Y0353472D02*
X0021786Y0353472D01*
X0020734Y0355071D02*
X0099231Y0355071D01*
X0100211Y0357722D02*
X0100870Y0357508D01*
X0101554Y0357400D01*
X0104500Y0357400D01*
X0107446Y0357400D01*
X0108130Y0357508D01*
X0108789Y0357722D01*
X0109406Y0358037D01*
X0109966Y0358444D01*
X0110456Y0358934D01*
X0110863Y0359494D01*
X0111178Y0360111D01*
X0111392Y0360770D01*
X0111500Y0361454D01*
X0111500Y0361800D01*
X0111500Y0362146D01*
X0111392Y0362830D01*
X0111178Y0363489D01*
X0110863Y0364106D01*
X0110456Y0364666D01*
X0109966Y0365156D01*
X0109406Y0365563D01*
X0108789Y0365878D01*
X0108130Y0366092D01*
X0107446Y0366200D01*
X0104500Y0366200D01*
X0104500Y0361800D01*
X0104500Y0361800D01*
X0111500Y0361800D01*
X0104500Y0361800D01*
X0104500Y0361800D01*
X0104500Y0366200D01*
X0101554Y0366200D01*
X0100870Y0366092D01*
X0100211Y0365878D01*
X0099594Y0365563D01*
X0099034Y0365156D01*
X0098544Y0364666D01*
X0098137Y0364106D01*
X0097822Y0363489D01*
X0097608Y0362830D01*
X0097500Y0362146D01*
X0097500Y0361800D01*
X0104500Y0361800D01*
X0104500Y0357400D01*
X0104500Y0361800D01*
X0104500Y0361800D01*
X0104500Y0361800D01*
X0097500Y0361800D01*
X0097500Y0361454D01*
X0097608Y0360770D01*
X0097822Y0360111D01*
X0098137Y0359494D01*
X0098544Y0358934D01*
X0099034Y0358444D01*
X0099594Y0358037D01*
X0100211Y0357722D01*
X0099276Y0358268D02*
X0020473Y0358268D01*
X0021678Y0359867D02*
X0097947Y0359867D01*
X0097500Y0361465D02*
X0022100Y0361465D01*
X0021956Y0363064D02*
X0097684Y0363064D01*
X0098541Y0364662D02*
X0021143Y0364662D01*
X0018752Y0366261D02*
X0205849Y0366261D01*
X0207448Y0367859D02*
X0168561Y0367859D01*
X0167935Y0367600D02*
X0169479Y0368239D01*
X0170661Y0369421D01*
X0171300Y0370965D01*
X0171300Y0372635D01*
X0170661Y0374179D01*
X0169479Y0375361D01*
X0167935Y0376000D01*
X0161065Y0376000D01*
X0159521Y0375361D01*
X0158339Y0374179D01*
X0157700Y0372635D01*
X0157700Y0370965D01*
X0158339Y0369421D01*
X0159521Y0368239D01*
X0161065Y0367600D01*
X0167935Y0367600D01*
X0167935Y0366000D02*
X0161065Y0366000D01*
X0159521Y0365361D01*
X0158339Y0364179D01*
X0157700Y0362635D01*
X0157700Y0360965D01*
X0158339Y0359421D01*
X0159521Y0358239D01*
X0161065Y0357600D01*
X0167935Y0357600D01*
X0169479Y0358239D01*
X0170661Y0359421D01*
X0171300Y0360965D01*
X0171300Y0362635D01*
X0170661Y0364179D01*
X0169479Y0365361D01*
X0167935Y0366000D01*
X0170178Y0364662D02*
X0204251Y0364662D01*
X0202652Y0363064D02*
X0171123Y0363064D01*
X0171300Y0361465D02*
X0201054Y0361465D01*
X0199455Y0359867D02*
X0170845Y0359867D01*
X0169508Y0358268D02*
X0196861Y0358268D01*
X0196957Y0358499D02*
X0196500Y0357397D01*
X0196500Y0356203D01*
X0196957Y0355101D01*
X0197801Y0354257D01*
X0198420Y0354000D01*
X0184043Y0354000D01*
X0183699Y0354343D01*
X0182597Y0354800D01*
X0181403Y0354800D01*
X0180301Y0354343D01*
X0179457Y0353499D01*
X0179000Y0352397D01*
X0179000Y0351203D01*
X0179457Y0350101D01*
X0180301Y0349257D01*
X0181403Y0348800D01*
X0182597Y0348800D01*
X0183699Y0349257D01*
X0184043Y0349600D01*
X0210477Y0349600D01*
X0212677Y0347400D01*
X0216323Y0347400D01*
X0216623Y0347700D01*
X0222377Y0347700D01*
X0222677Y0347400D01*
X0226323Y0347400D01*
X0228900Y0349977D01*
X0228900Y0353623D01*
X0226323Y0356200D01*
X0222677Y0356200D01*
X0222377Y0355900D01*
X0216623Y0355900D01*
X0216323Y0356200D01*
X0212677Y0356200D01*
X0210477Y0354000D01*
X0200580Y0354000D01*
X0201199Y0354257D01*
X0202043Y0355101D01*
X0202500Y0356203D01*
X0202500Y0356689D01*
X0213211Y0367400D01*
X0216323Y0367400D01*
X0216623Y0367700D01*
X0222377Y0367700D01*
X0222677Y0367400D01*
X0226323Y0367400D01*
X0228900Y0369977D01*
X0228900Y0373623D01*
X0226323Y0376200D01*
X0222677Y0376200D01*
X0222377Y0375900D01*
X0216623Y0375900D01*
X0216323Y0376200D01*
X0212677Y0376200D01*
X0210100Y0373623D01*
X0210100Y0370511D01*
X0199389Y0359800D01*
X0198903Y0359800D01*
X0197801Y0359343D01*
X0196957Y0358499D01*
X0196500Y0356670D02*
X0009900Y0356670D01*
X0009900Y0347078D02*
X0259100Y0347078D01*
X0259100Y0345480D02*
X0227043Y0345480D01*
X0228641Y0343881D02*
X0259100Y0343881D01*
X0259100Y0342283D02*
X0228900Y0342283D01*
X0228900Y0340684D02*
X0259100Y0340684D01*
X0259100Y0339086D02*
X0228008Y0339086D01*
X0226410Y0337487D02*
X0259100Y0337487D01*
X0259100Y0335889D02*
X0226634Y0335889D01*
X0226323Y0336200D02*
X0222677Y0336200D01*
X0222377Y0335900D01*
X0216623Y0335900D01*
X0216323Y0336200D01*
X0212677Y0336200D01*
X0210100Y0333623D01*
X0210100Y0329977D01*
X0212677Y0327400D01*
X0216323Y0327400D01*
X0216623Y0327700D01*
X0222377Y0327700D01*
X0222677Y0327400D01*
X0226323Y0327400D01*
X0228900Y0329977D01*
X0228900Y0333623D01*
X0226323Y0336200D01*
X0228232Y0334290D02*
X0259100Y0334290D01*
X0259100Y0332692D02*
X0228900Y0332692D01*
X0228900Y0331093D02*
X0259100Y0331093D01*
X0259100Y0329495D02*
X0228417Y0329495D01*
X0226819Y0327896D02*
X0259100Y0327896D01*
X0259100Y0326298D02*
X0149609Y0326298D01*
X0151208Y0327896D02*
X0160349Y0327896D01*
X0161065Y0326000D02*
X0159521Y0325361D01*
X0158339Y0324179D01*
X0157700Y0322635D01*
X0157700Y0320965D01*
X0158339Y0319421D01*
X0159521Y0318239D01*
X0161065Y0317600D01*
X0167935Y0317600D01*
X0169479Y0318239D01*
X0170661Y0319421D01*
X0171300Y0320965D01*
X0171300Y0322635D01*
X0170661Y0324179D01*
X0169479Y0325361D01*
X0167935Y0326000D01*
X0161065Y0326000D01*
X0158860Y0324699D02*
X0148011Y0324699D01*
X0146412Y0323101D02*
X0157893Y0323101D01*
X0157700Y0321502D02*
X0144814Y0321502D01*
X0143215Y0319904D02*
X0158139Y0319904D01*
X0159455Y0318305D02*
X0109545Y0318305D01*
X0109731Y0315108D02*
X0159269Y0315108D01*
X0159521Y0315361D02*
X0158339Y0314179D01*
X0157700Y0312635D01*
X0157700Y0310965D01*
X0158339Y0309421D01*
X0159521Y0308239D01*
X0161065Y0307600D01*
X0167935Y0307600D01*
X0169479Y0308239D01*
X0170661Y0309421D01*
X0171300Y0310965D01*
X0171300Y0312635D01*
X0170661Y0314179D01*
X0169479Y0315361D01*
X0167935Y0316000D01*
X0161065Y0316000D01*
X0159521Y0315361D01*
X0158062Y0313510D02*
X0110938Y0313510D01*
X0111300Y0311911D02*
X0157700Y0311911D01*
X0157970Y0310313D02*
X0111030Y0310313D01*
X0109954Y0308714D02*
X0159046Y0308714D01*
X0159899Y0305517D02*
X0109101Y0305517D01*
X0110768Y0303919D02*
X0158232Y0303919D01*
X0158339Y0304179D02*
X0157700Y0302635D01*
X0157700Y0300965D01*
X0158339Y0299421D01*
X0159521Y0298239D01*
X0161065Y0297600D01*
X0167935Y0297600D01*
X0169479Y0298239D01*
X0170661Y0299421D01*
X0171300Y0300965D01*
X0171300Y0302635D01*
X0170661Y0304179D01*
X0169479Y0305361D01*
X0167935Y0306000D01*
X0161065Y0306000D01*
X0159521Y0305361D01*
X0158339Y0304179D01*
X0157700Y0302320D02*
X0111300Y0302320D01*
X0111199Y0300722D02*
X0157801Y0300722D01*
X0158637Y0299123D02*
X0110363Y0299123D01*
X0109479Y0295361D02*
X0110661Y0294179D01*
X0111300Y0292635D01*
X0111300Y0290965D01*
X0110661Y0289421D01*
X0109479Y0288239D01*
X0107935Y0287600D01*
X0101065Y0287600D01*
X0099521Y0288239D01*
X0098339Y0289421D01*
X0097700Y0290965D01*
X0097700Y0292635D01*
X0098339Y0294179D01*
X0099521Y0295361D01*
X0101065Y0296000D01*
X0107935Y0296000D01*
X0109479Y0295361D01*
X0110512Y0294328D02*
X0158488Y0294328D01*
X0158339Y0294179D02*
X0157700Y0292635D01*
X0157700Y0290965D01*
X0158339Y0289421D01*
X0159521Y0288239D01*
X0161065Y0287600D01*
X0167935Y0287600D01*
X0169479Y0288239D01*
X0170661Y0289421D01*
X0171300Y0290965D01*
X0171300Y0292635D01*
X0170661Y0294179D01*
X0169479Y0295361D01*
X0167935Y0296000D01*
X0161065Y0296000D01*
X0159521Y0295361D01*
X0158339Y0294179D01*
X0157739Y0292729D02*
X0111261Y0292729D01*
X0111300Y0291131D02*
X0157700Y0291131D01*
X0158293Y0289532D02*
X0110707Y0289532D01*
X0108741Y0287934D02*
X0160259Y0287934D01*
X0161065Y0286000D02*
X0159521Y0285361D01*
X0158339Y0284179D01*
X0157700Y0282635D01*
X0157700Y0280965D01*
X0158339Y0279421D01*
X0159521Y0278239D01*
X0161065Y0277600D01*
X0167935Y0277600D01*
X0169479Y0278239D01*
X0170240Y0279000D01*
X0185920Y0279000D01*
X0186403Y0278800D01*
X0187597Y0278800D01*
X0188699Y0279257D01*
X0189543Y0280101D01*
X0190000Y0281203D01*
X0190000Y0282397D01*
X0189543Y0283499D01*
X0188699Y0284343D01*
X0187597Y0284800D01*
X0186403Y0284800D01*
X0185920Y0284600D01*
X0170240Y0284600D01*
X0169479Y0285361D01*
X0167935Y0286000D01*
X0161065Y0286000D01*
X0158897Y0284737D02*
X0110103Y0284737D01*
X0111092Y0283138D02*
X0157908Y0283138D01*
X0157700Y0281539D02*
X0111300Y0281539D01*
X0110876Y0279941D02*
X0158124Y0279941D01*
X0159418Y0278342D02*
X0109582Y0278342D01*
X0109694Y0275145D02*
X0159306Y0275145D01*
X0158078Y0273547D02*
X0153364Y0273547D01*
X0154963Y0271948D02*
X0157700Y0271948D01*
X0157955Y0270350D02*
X0156561Y0270350D01*
X0153536Y0267153D02*
X0094200Y0267153D01*
X0094200Y0268751D02*
X0099009Y0268751D01*
X0097955Y0270350D02*
X0094200Y0270350D01*
X0094200Y0271948D02*
X0097700Y0271948D01*
X0098078Y0273547D02*
X0094200Y0273547D01*
X0094200Y0275145D02*
X0099306Y0275145D01*
X0099418Y0278342D02*
X0096654Y0278342D01*
X0095055Y0276744D02*
X0259100Y0276744D01*
X0259100Y0286335D02*
X0089200Y0286335D01*
X0089200Y0284737D02*
X0098897Y0284737D01*
X0100259Y0287934D02*
X0089200Y0287934D01*
X0089200Y0289532D02*
X0098293Y0289532D01*
X0097700Y0291131D02*
X0089442Y0291131D01*
X0091040Y0292729D02*
X0097739Y0292729D01*
X0098488Y0294328D02*
X0092639Y0294328D01*
X0094237Y0295926D02*
X0100886Y0295926D01*
X0098637Y0299123D02*
X0097434Y0299123D01*
X0095836Y0297525D02*
X0259100Y0297525D01*
X0259100Y0299123D02*
X0170363Y0299123D01*
X0171199Y0300722D02*
X0259100Y0300722D01*
X0259100Y0302320D02*
X0171300Y0302320D01*
X0170768Y0303919D02*
X0259100Y0303919D01*
X0259100Y0305517D02*
X0169101Y0305517D01*
X0169954Y0308714D02*
X0211080Y0308714D01*
X0209900Y0309895D02*
X0212595Y0307200D01*
X0214400Y0307200D01*
X0214400Y0311700D01*
X0209900Y0311700D01*
X0209900Y0309895D01*
X0209900Y0310313D02*
X0171030Y0310313D01*
X0171300Y0311911D02*
X0209900Y0311911D01*
X0209900Y0311900D02*
X0214400Y0311900D01*
X0214400Y0316400D01*
X0212595Y0316400D01*
X0209900Y0313705D01*
X0209900Y0311900D01*
X0209900Y0313510D02*
X0170938Y0313510D01*
X0169731Y0315108D02*
X0211303Y0315108D01*
X0212677Y0317400D02*
X0210100Y0319977D01*
X0210100Y0323623D01*
X0212677Y0326200D01*
X0216323Y0326200D01*
X0216623Y0325900D01*
X0222377Y0325900D01*
X0222677Y0326200D01*
X0226323Y0326200D01*
X0228900Y0323623D01*
X0228900Y0319977D01*
X0226323Y0317400D01*
X0222677Y0317400D01*
X0222377Y0317700D01*
X0216623Y0317700D01*
X0216323Y0317400D01*
X0212677Y0317400D01*
X0211772Y0318305D02*
X0169545Y0318305D01*
X0170861Y0319904D02*
X0210174Y0319904D01*
X0210100Y0321502D02*
X0171300Y0321502D01*
X0171107Y0323101D02*
X0210100Y0323101D01*
X0211177Y0324699D02*
X0170140Y0324699D01*
X0168651Y0327896D02*
X0212181Y0327896D01*
X0210583Y0329495D02*
X0170691Y0329495D01*
X0171300Y0331093D02*
X0210100Y0331093D01*
X0210100Y0332692D02*
X0171277Y0332692D01*
X0170549Y0334290D02*
X0210768Y0334290D01*
X0211700Y0335889D02*
X0212366Y0335889D01*
X0216410Y0337487D02*
X0222590Y0337487D01*
X0227599Y0348677D02*
X0259100Y0348677D01*
X0259100Y0350275D02*
X0228900Y0350275D01*
X0228900Y0351874D02*
X0259100Y0351874D01*
X0259100Y0353472D02*
X0228900Y0353472D01*
X0227452Y0355071D02*
X0259100Y0355071D01*
X0259100Y0356670D02*
X0202500Y0356670D01*
X0202014Y0355071D02*
X0211548Y0355071D01*
X0212677Y0357400D02*
X0216323Y0357400D01*
X0216623Y0357700D01*
X0222377Y0357700D01*
X0222677Y0357400D01*
X0226323Y0357400D01*
X0228900Y0359977D01*
X0228900Y0363623D01*
X0226323Y0366200D01*
X0222677Y0366200D01*
X0222377Y0365900D01*
X0216623Y0365900D01*
X0216323Y0366200D01*
X0212677Y0366200D01*
X0210100Y0363623D01*
X0210100Y0359977D01*
X0212677Y0357400D01*
X0211809Y0358268D02*
X0204079Y0358268D01*
X0205678Y0359867D02*
X0210211Y0359867D01*
X0210100Y0361465D02*
X0207276Y0361465D01*
X0208875Y0363064D02*
X0210100Y0363064D01*
X0210473Y0364662D02*
X0211140Y0364662D01*
X0212072Y0366261D02*
X0245791Y0366261D01*
X0244880Y0367859D02*
X0226782Y0367859D01*
X0228380Y0369458D02*
X0244452Y0369458D01*
X0244188Y0371056D02*
X0228900Y0371056D01*
X0228900Y0372655D02*
X0244188Y0372655D01*
X0244482Y0374253D02*
X0228269Y0374253D01*
X0226671Y0375852D02*
X0244932Y0375852D01*
X0245855Y0377450D02*
X0226656Y0377450D01*
X0226405Y0377200D02*
X0229100Y0379895D01*
X0229100Y0381700D01*
X0224600Y0381700D01*
X0224600Y0381900D01*
X0224400Y0381900D01*
X0224400Y0386400D01*
X0222595Y0386400D01*
X0219900Y0383705D01*
X0219900Y0381900D01*
X0224400Y0381900D01*
X0224400Y0381700D01*
X0219900Y0381700D01*
X0219900Y0379895D01*
X0222595Y0377200D01*
X0224400Y0377200D01*
X0224400Y0381700D01*
X0224600Y0381700D01*
X0224600Y0377200D01*
X0226405Y0377200D01*
X0224600Y0377450D02*
X0224400Y0377450D01*
X0224400Y0379049D02*
X0224600Y0379049D01*
X0224600Y0380647D02*
X0224400Y0380647D01*
X0224600Y0381900D02*
X0229100Y0381900D01*
X0229100Y0383705D01*
X0226405Y0386400D01*
X0224600Y0386400D01*
X0224600Y0381900D01*
X0224600Y0382246D02*
X0224400Y0382246D01*
X0224400Y0383844D02*
X0224600Y0383844D01*
X0224600Y0385443D02*
X0224400Y0385443D01*
X0221637Y0385443D02*
X0217363Y0385443D01*
X0216405Y0386400D02*
X0219100Y0383705D01*
X0219100Y0381900D01*
X0214600Y0381900D01*
X0214400Y0381900D01*
X0214400Y0386400D01*
X0212595Y0386400D01*
X0209900Y0383705D01*
X0209900Y0381900D01*
X0214400Y0381900D01*
X0214400Y0381700D01*
X0209900Y0381700D01*
X0209900Y0379895D01*
X0212595Y0377200D01*
X0214400Y0377200D01*
X0214400Y0381700D01*
X0214600Y0381700D01*
X0214600Y0381900D01*
X0214600Y0386400D01*
X0216405Y0386400D01*
X0214600Y0385443D02*
X0214400Y0385443D01*
X0214400Y0383844D02*
X0214600Y0383844D01*
X0214600Y0382246D02*
X0214400Y0382246D01*
X0214600Y0381700D02*
X0219100Y0381700D01*
X0219100Y0379895D01*
X0216405Y0377200D01*
X0214600Y0377200D01*
X0214600Y0381700D01*
X0214600Y0380647D02*
X0214400Y0380647D01*
X0214400Y0379049D02*
X0214600Y0379049D01*
X0214600Y0377450D02*
X0214400Y0377450D01*
X0212344Y0377450D02*
X0019019Y0377450D01*
X0019739Y0375852D02*
X0160706Y0375852D01*
X0161065Y0377600D02*
X0159521Y0378239D01*
X0158339Y0379421D01*
X0157700Y0380965D01*
X0157700Y0382635D01*
X0158339Y0384179D01*
X0159521Y0385361D01*
X0161065Y0386000D01*
X0167935Y0386000D01*
X0169479Y0385361D01*
X0170661Y0384179D01*
X0171300Y0382635D01*
X0171300Y0380965D01*
X0170661Y0379421D01*
X0169479Y0378239D01*
X0167935Y0377600D01*
X0161065Y0377600D01*
X0158712Y0379049D02*
X0021254Y0379049D01*
X0022001Y0380647D02*
X0157831Y0380647D01*
X0157700Y0382246D02*
X0022100Y0382246D01*
X0021632Y0383844D02*
X0158201Y0383844D01*
X0159719Y0385443D02*
X0020363Y0385443D01*
X0021463Y0374253D02*
X0158413Y0374253D01*
X0157708Y0372655D02*
X0022100Y0372655D01*
X0022100Y0371056D02*
X0157700Y0371056D01*
X0158324Y0369458D02*
X0021509Y0369458D01*
X0020006Y0367859D02*
X0160439Y0367859D01*
X0158822Y0364662D02*
X0110459Y0364662D01*
X0111316Y0363064D02*
X0157877Y0363064D01*
X0157700Y0361465D02*
X0111500Y0361465D01*
X0111053Y0359867D02*
X0158155Y0359867D01*
X0159492Y0358268D02*
X0109724Y0358268D01*
X0109769Y0355071D02*
X0158948Y0355071D01*
X0159034Y0355156D02*
X0158544Y0354666D01*
X0158137Y0354106D01*
X0157822Y0353489D01*
X0157608Y0352830D01*
X0157500Y0352146D01*
X0157500Y0351800D01*
X0164500Y0351800D01*
X0164500Y0351800D01*
X0164500Y0356200D01*
X0167446Y0356200D01*
X0168130Y0356092D01*
X0168789Y0355878D01*
X0169406Y0355563D01*
X0169966Y0355156D01*
X0170456Y0354666D01*
X0170863Y0354106D01*
X0171178Y0353489D01*
X0171392Y0352830D01*
X0171500Y0352146D01*
X0171500Y0351800D01*
X0164500Y0351800D01*
X0164500Y0351800D01*
X0164500Y0356200D01*
X0161554Y0356200D01*
X0160870Y0356092D01*
X0160211Y0355878D01*
X0159594Y0355563D01*
X0159034Y0355156D01*
X0157817Y0353472D02*
X0110953Y0353472D01*
X0111300Y0351874D02*
X0157500Y0351874D01*
X0157500Y0351800D02*
X0157500Y0351454D01*
X0157608Y0350770D01*
X0157822Y0350111D01*
X0158137Y0349494D01*
X0158544Y0348934D01*
X0159034Y0348444D01*
X0159594Y0348037D01*
X0160211Y0347722D01*
X0160870Y0347508D01*
X0161554Y0347400D01*
X0164500Y0347400D01*
X0167446Y0347400D01*
X0168130Y0347508D01*
X0168789Y0347722D01*
X0169406Y0348037D01*
X0169966Y0348444D01*
X0170456Y0348934D01*
X0170863Y0349494D01*
X0171178Y0350111D01*
X0171392Y0350770D01*
X0171500Y0351454D01*
X0171500Y0351800D01*
X0164500Y0351800D01*
X0164500Y0347400D01*
X0164500Y0351800D01*
X0164500Y0351800D01*
X0164500Y0351800D01*
X0157500Y0351800D01*
X0157769Y0350275D02*
X0111015Y0350275D01*
X0109917Y0348677D02*
X0158800Y0348677D01*
X0159809Y0345480D02*
X0109191Y0345480D01*
X0110784Y0343881D02*
X0158216Y0343881D01*
X0157700Y0342283D02*
X0111300Y0342283D01*
X0111184Y0340684D02*
X0157816Y0340684D01*
X0158674Y0339086D02*
X0110326Y0339086D01*
X0110140Y0324699D02*
X0141788Y0324699D01*
X0152806Y0329495D02*
X0158309Y0329495D01*
X0157700Y0331093D02*
X0154405Y0331093D01*
X0156003Y0332692D02*
X0157723Y0332692D01*
X0157602Y0334290D02*
X0158451Y0334290D01*
X0170326Y0339086D02*
X0208675Y0339086D01*
X0210100Y0340684D02*
X0171184Y0340684D01*
X0171300Y0342283D02*
X0210100Y0342283D01*
X0210359Y0343881D02*
X0170784Y0343881D01*
X0169191Y0345480D02*
X0211957Y0345480D01*
X0211401Y0348677D02*
X0170199Y0348677D01*
X0171231Y0350275D02*
X0179384Y0350275D01*
X0179000Y0351874D02*
X0171500Y0351874D01*
X0171183Y0353472D02*
X0179446Y0353472D01*
X0170052Y0355071D02*
X0196986Y0355071D01*
X0209046Y0369458D02*
X0170676Y0369458D01*
X0171300Y0371056D02*
X0210100Y0371056D01*
X0210100Y0372655D02*
X0171292Y0372655D01*
X0170587Y0374253D02*
X0210731Y0374253D01*
X0212329Y0375852D02*
X0168294Y0375852D01*
X0170288Y0379049D02*
X0210746Y0379049D01*
X0209900Y0380647D02*
X0171169Y0380647D01*
X0171300Y0382246D02*
X0209900Y0382246D01*
X0210039Y0383844D02*
X0170799Y0383844D01*
X0169281Y0385443D02*
X0211637Y0385443D01*
X0218961Y0383844D02*
X0220039Y0383844D01*
X0219900Y0382246D02*
X0219100Y0382246D01*
X0219100Y0380647D02*
X0219900Y0380647D01*
X0220746Y0379049D02*
X0218254Y0379049D01*
X0216656Y0377450D02*
X0222344Y0377450D01*
X0228254Y0379049D02*
X0247166Y0379049D01*
X0249200Y0380647D02*
X0229100Y0380647D01*
X0229100Y0382246D02*
X0259100Y0382246D01*
X0259100Y0383844D02*
X0228961Y0383844D01*
X0227363Y0385443D02*
X0259100Y0385443D01*
X0247055Y0364662D02*
X0227860Y0364662D01*
X0228900Y0363064D02*
X0249008Y0363064D01*
X0259100Y0361465D02*
X0228900Y0361465D01*
X0228789Y0359867D02*
X0259100Y0359867D01*
X0259100Y0358268D02*
X0227191Y0358268D01*
X0227823Y0324699D02*
X0259100Y0324699D01*
X0259100Y0323101D02*
X0228900Y0323101D01*
X0228900Y0321502D02*
X0259100Y0321502D01*
X0259100Y0319904D02*
X0228826Y0319904D01*
X0227228Y0318305D02*
X0259100Y0318305D01*
X0259100Y0316707D02*
X0077518Y0316707D01*
X0074492Y0319904D02*
X0021694Y0319904D01*
X0022100Y0321502D02*
X0076091Y0321502D01*
X0077690Y0323101D02*
X0021940Y0323101D01*
X0021106Y0324699D02*
X0079288Y0324699D01*
X0080887Y0326298D02*
X0018662Y0326298D01*
X0020096Y0327896D02*
X0082485Y0327896D01*
X0084084Y0329495D02*
X0021524Y0329495D01*
X0022100Y0331093D02*
X0085682Y0331093D01*
X0087281Y0332692D02*
X0022100Y0332692D01*
X0021447Y0334290D02*
X0098451Y0334290D01*
X0098309Y0329495D02*
X0090306Y0329495D01*
X0088708Y0327896D02*
X0100349Y0327896D01*
X0099046Y0308714D02*
X0077025Y0308714D01*
X0075427Y0307116D02*
X0259100Y0307116D01*
X0259100Y0308714D02*
X0227920Y0308714D01*
X0229100Y0309895D02*
X0229100Y0311700D01*
X0224600Y0311700D01*
X0224600Y0311900D01*
X0224400Y0311900D01*
X0224400Y0316400D01*
X0222595Y0316400D01*
X0219900Y0313705D01*
X0219900Y0311900D01*
X0224400Y0311900D01*
X0224400Y0311700D01*
X0219900Y0311700D01*
X0219900Y0309895D01*
X0222595Y0307200D01*
X0224400Y0307200D01*
X0224400Y0311700D01*
X0224600Y0311700D01*
X0224600Y0307200D01*
X0226405Y0307200D01*
X0229100Y0309895D01*
X0229100Y0310313D02*
X0259100Y0310313D01*
X0259100Y0311911D02*
X0229100Y0311911D01*
X0229100Y0311900D02*
X0229100Y0313705D01*
X0226405Y0316400D01*
X0224600Y0316400D01*
X0224600Y0311900D01*
X0229100Y0311900D01*
X0229100Y0313510D02*
X0259100Y0313510D01*
X0259100Y0315108D02*
X0227697Y0315108D01*
X0224600Y0315108D02*
X0224400Y0315108D01*
X0224400Y0313510D02*
X0224600Y0313510D01*
X0224600Y0311911D02*
X0224400Y0311911D01*
X0224400Y0310313D02*
X0224600Y0310313D01*
X0224600Y0308714D02*
X0224400Y0308714D01*
X0221080Y0308714D02*
X0217920Y0308714D01*
X0219100Y0309895D02*
X0219100Y0311700D01*
X0214600Y0311700D01*
X0214600Y0311900D01*
X0214400Y0311900D01*
X0214400Y0311700D01*
X0214600Y0311700D01*
X0214600Y0307200D01*
X0216405Y0307200D01*
X0219100Y0309895D01*
X0219100Y0310313D02*
X0219900Y0310313D01*
X0219900Y0311911D02*
X0219100Y0311911D01*
X0219100Y0311900D02*
X0219100Y0313705D01*
X0216405Y0316400D01*
X0214600Y0316400D01*
X0214600Y0311900D01*
X0219100Y0311900D01*
X0219100Y0313510D02*
X0219900Y0313510D01*
X0221303Y0315108D02*
X0217697Y0315108D01*
X0214600Y0315108D02*
X0214400Y0315108D01*
X0214400Y0313510D02*
X0214600Y0313510D01*
X0214600Y0311911D02*
X0214400Y0311911D01*
X0214400Y0310313D02*
X0214600Y0310313D01*
X0214600Y0308714D02*
X0214400Y0308714D01*
X0207935Y0286000D02*
X0201065Y0286000D01*
X0199521Y0285361D01*
X0198339Y0284179D01*
X0197700Y0282635D01*
X0197700Y0280965D01*
X0198339Y0279421D01*
X0199521Y0278239D01*
X0201065Y0277600D01*
X0207935Y0277600D01*
X0209479Y0278239D01*
X0210661Y0279421D01*
X0211300Y0280965D01*
X0211300Y0282635D01*
X0210661Y0284179D01*
X0209479Y0285361D01*
X0207935Y0286000D01*
X0210103Y0284737D02*
X0248897Y0284737D01*
X0247908Y0283138D02*
X0211092Y0283138D01*
X0211300Y0281539D02*
X0247700Y0281539D01*
X0248124Y0279941D02*
X0210876Y0279941D01*
X0209582Y0278342D02*
X0249418Y0278342D01*
X0249306Y0275145D02*
X0209694Y0275145D01*
X0209479Y0275361D02*
X0207935Y0276000D01*
X0201065Y0276000D01*
X0199521Y0275361D01*
X0198339Y0274179D01*
X0197700Y0272635D01*
X0197700Y0270965D01*
X0198339Y0269421D01*
X0199521Y0268239D01*
X0201065Y0267600D01*
X0207935Y0267600D01*
X0209479Y0268239D01*
X0210661Y0269421D01*
X0211300Y0270965D01*
X0211300Y0272635D01*
X0210661Y0274179D01*
X0209479Y0275361D01*
X0210922Y0273547D02*
X0248078Y0273547D01*
X0247700Y0271948D02*
X0211300Y0271948D01*
X0211045Y0270350D02*
X0247955Y0270350D01*
X0249009Y0268751D02*
X0209991Y0268751D01*
X0209011Y0265554D02*
X0249989Y0265554D01*
X0248247Y0263956D02*
X0210753Y0263956D01*
X0210661Y0264179D02*
X0209479Y0265361D01*
X0207935Y0266000D01*
X0201065Y0266000D01*
X0199521Y0265361D01*
X0198339Y0264179D01*
X0197700Y0262635D01*
X0197700Y0260965D01*
X0198339Y0259421D01*
X0199521Y0258239D01*
X0201065Y0257600D01*
X0207935Y0257600D01*
X0209479Y0258239D01*
X0210661Y0259421D01*
X0211300Y0260965D01*
X0211300Y0262635D01*
X0210661Y0264179D01*
X0211300Y0262357D02*
X0247700Y0262357D01*
X0247785Y0260759D02*
X0211215Y0260759D01*
X0210400Y0259160D02*
X0248600Y0259160D01*
X0250976Y0255963D02*
X0208024Y0255963D01*
X0210475Y0254365D02*
X0248525Y0254365D01*
X0247754Y0252766D02*
X0211246Y0252766D01*
X0211300Y0251168D02*
X0247700Y0251168D01*
X0248278Y0249569D02*
X0210722Y0249569D01*
X0208830Y0247971D02*
X0250170Y0247971D01*
X0248934Y0244774D02*
X0210066Y0244774D01*
X0211076Y0243175D02*
X0247924Y0243175D01*
X0247700Y0241577D02*
X0211300Y0241577D01*
X0210891Y0239978D02*
X0248109Y0239978D01*
X0249381Y0238380D02*
X0209619Y0238380D01*
X0208789Y0235878D02*
X0208130Y0236092D01*
X0207446Y0236200D01*
X0204500Y0236200D01*
X0204500Y0231800D01*
X0204500Y0231800D01*
X0211500Y0231800D01*
X0211500Y0232146D01*
X0211392Y0232830D01*
X0211178Y0233489D01*
X0210863Y0234106D01*
X0210456Y0234666D01*
X0209966Y0235156D01*
X0209406Y0235563D01*
X0208789Y0235878D01*
X0209930Y0235183D02*
X0249070Y0235183D01*
X0249034Y0235156D02*
X0248544Y0234666D01*
X0248137Y0234106D01*
X0247822Y0233489D01*
X0247608Y0232830D01*
X0247500Y0232146D01*
X0247500Y0231800D01*
X0254500Y0231800D01*
X0254500Y0231800D01*
X0254500Y0231800D01*
X0254500Y0236200D01*
X0251554Y0236200D01*
X0250870Y0236092D01*
X0250211Y0235878D01*
X0249594Y0235563D01*
X0249034Y0235156D01*
X0247871Y0233584D02*
X0211129Y0233584D01*
X0211500Y0231986D02*
X0247500Y0231986D01*
X0247500Y0231800D02*
X0247500Y0231454D01*
X0247608Y0230770D01*
X0247822Y0230111D01*
X0248137Y0229494D01*
X0248544Y0228934D01*
X0249034Y0228444D01*
X0249594Y0228037D01*
X0250211Y0227722D01*
X0250870Y0227508D01*
X0251554Y0227400D01*
X0254500Y0227400D01*
X0254500Y0231800D01*
X0247500Y0231800D01*
X0247733Y0230387D02*
X0211267Y0230387D01*
X0211178Y0230111D02*
X0211392Y0230770D01*
X0211500Y0231454D01*
X0211500Y0231800D01*
X0204500Y0231800D01*
X0204500Y0231800D01*
X0204500Y0236200D01*
X0201554Y0236200D01*
X0200870Y0236092D01*
X0200211Y0235878D01*
X0199594Y0235563D01*
X0199034Y0235156D01*
X0198544Y0234666D01*
X0198137Y0234106D01*
X0197822Y0233489D01*
X0197608Y0232830D01*
X0197500Y0232146D01*
X0197500Y0231800D01*
X0204500Y0231800D01*
X0204500Y0227400D01*
X0207446Y0227400D01*
X0208130Y0227508D01*
X0208789Y0227722D01*
X0209406Y0228037D01*
X0209966Y0228444D01*
X0210456Y0228934D01*
X0210863Y0229494D01*
X0211178Y0230111D01*
X0210311Y0228789D02*
X0248689Y0228789D01*
X0254500Y0228789D02*
X0254500Y0228789D01*
X0254500Y0230387D02*
X0254500Y0230387D01*
X0254500Y0231986D02*
X0254500Y0231986D01*
X0254500Y0233584D02*
X0254500Y0233584D01*
X0254500Y0235183D02*
X0254500Y0235183D01*
X0259100Y0236781D02*
X0154200Y0236781D01*
X0154200Y0235183D02*
X0159343Y0235183D01*
X0159521Y0235361D02*
X0158339Y0234179D01*
X0157700Y0232635D01*
X0157700Y0230965D01*
X0158339Y0229421D01*
X0159521Y0228239D01*
X0161065Y0227600D01*
X0167935Y0227600D01*
X0169479Y0228239D01*
X0170661Y0229421D01*
X0171300Y0230965D01*
X0171300Y0232635D01*
X0170661Y0234179D01*
X0169479Y0235361D01*
X0167935Y0236000D01*
X0161065Y0236000D01*
X0159521Y0235361D01*
X0158093Y0233584D02*
X0154200Y0233584D01*
X0154200Y0231986D02*
X0157700Y0231986D01*
X0157939Y0230387D02*
X0154200Y0230387D01*
X0154200Y0228789D02*
X0158972Y0228789D01*
X0160079Y0225592D02*
X0154200Y0225592D01*
X0154200Y0227190D02*
X0259100Y0227190D01*
X0259100Y0225592D02*
X0168921Y0225592D01*
X0169479Y0225361D02*
X0167935Y0226000D01*
X0161065Y0226000D01*
X0159521Y0225361D01*
X0158339Y0224179D01*
X0157700Y0222635D01*
X0157700Y0220965D01*
X0158339Y0219421D01*
X0159521Y0218239D01*
X0161065Y0217600D01*
X0167935Y0217600D01*
X0169479Y0218239D01*
X0170661Y0219421D01*
X0171300Y0220965D01*
X0171300Y0222635D01*
X0170661Y0224179D01*
X0169479Y0225361D01*
X0170738Y0223993D02*
X0259100Y0223993D01*
X0259100Y0222395D02*
X0171300Y0222395D01*
X0171230Y0220796D02*
X0259100Y0220796D01*
X0259100Y0219198D02*
X0170437Y0219198D01*
X0170028Y0228789D02*
X0198689Y0228789D01*
X0198544Y0228934D02*
X0199034Y0228444D01*
X0199594Y0228037D01*
X0200211Y0227722D01*
X0200870Y0227508D01*
X0201554Y0227400D01*
X0204500Y0227400D01*
X0204500Y0231800D01*
X0204500Y0231800D01*
X0204500Y0231800D01*
X0197500Y0231800D01*
X0197500Y0231454D01*
X0197608Y0230770D01*
X0197822Y0230111D01*
X0198137Y0229494D01*
X0198544Y0228934D01*
X0197733Y0230387D02*
X0171061Y0230387D01*
X0171300Y0231986D02*
X0197500Y0231986D01*
X0197871Y0233584D02*
X0170907Y0233584D01*
X0169657Y0235183D02*
X0199070Y0235183D01*
X0199381Y0238380D02*
X0169619Y0238380D01*
X0169479Y0238239D02*
X0170661Y0239421D01*
X0171300Y0240965D01*
X0171300Y0242635D01*
X0170661Y0244179D01*
X0169479Y0245361D01*
X0167935Y0246000D01*
X0161065Y0246000D01*
X0159521Y0245361D01*
X0158339Y0244179D01*
X0157700Y0242635D01*
X0157700Y0240965D01*
X0158339Y0239421D01*
X0159521Y0238239D01*
X0161065Y0237600D01*
X0167935Y0237600D01*
X0169479Y0238239D01*
X0170891Y0239978D02*
X0195711Y0239978D01*
X0194112Y0241577D02*
X0171300Y0241577D01*
X0171076Y0243175D02*
X0192514Y0243175D01*
X0190915Y0244774D02*
X0170066Y0244774D01*
X0168830Y0247971D02*
X0187718Y0247971D01*
X0186119Y0249569D02*
X0170722Y0249569D01*
X0171300Y0251168D02*
X0184521Y0251168D01*
X0182922Y0252766D02*
X0171246Y0252766D01*
X0170475Y0254365D02*
X0181324Y0254365D01*
X0184349Y0257562D02*
X0188127Y0257562D01*
X0186528Y0259160D02*
X0170400Y0259160D01*
X0171215Y0260759D02*
X0184930Y0260759D01*
X0183331Y0262357D02*
X0171300Y0262357D01*
X0170753Y0263956D02*
X0181733Y0263956D01*
X0184758Y0267153D02*
X0259100Y0267153D01*
X0259100Y0265554D02*
X0259011Y0265554D01*
X0259100Y0257562D02*
X0194349Y0257562D01*
X0192751Y0259160D02*
X0198600Y0259160D01*
X0197785Y0260759D02*
X0191152Y0260759D01*
X0189554Y0262357D02*
X0197700Y0262357D01*
X0198247Y0263956D02*
X0187955Y0263956D01*
X0186357Y0265554D02*
X0199989Y0265554D01*
X0199009Y0268751D02*
X0183160Y0268751D01*
X0189384Y0279941D02*
X0198124Y0279941D01*
X0197700Y0281539D02*
X0190000Y0281539D01*
X0189693Y0283138D02*
X0197908Y0283138D01*
X0198897Y0284737D02*
X0187750Y0284737D01*
X0186250Y0284737D02*
X0170103Y0284737D01*
X0168741Y0287934D02*
X0259100Y0287934D01*
X0259100Y0289532D02*
X0170707Y0289532D01*
X0171300Y0291131D02*
X0259100Y0291131D01*
X0259100Y0292729D02*
X0171261Y0292729D01*
X0170512Y0294328D02*
X0259100Y0294328D01*
X0259100Y0295926D02*
X0168114Y0295926D01*
X0160886Y0295926D02*
X0108114Y0295926D01*
X0099899Y0305517D02*
X0073828Y0305517D01*
X0072230Y0303919D02*
X0096007Y0303919D01*
X0094409Y0302320D02*
X0070631Y0302320D01*
X0069033Y0300722D02*
X0092810Y0300722D01*
X0091212Y0299123D02*
X0067434Y0299123D01*
X0065836Y0297525D02*
X0089613Y0297525D01*
X0088015Y0295926D02*
X0064237Y0295926D01*
X0062639Y0294328D02*
X0086416Y0294328D01*
X0084818Y0292729D02*
X0061040Y0292729D01*
X0059442Y0291131D02*
X0084800Y0291131D01*
X0084800Y0289532D02*
X0057843Y0289532D01*
X0056245Y0287934D02*
X0084800Y0287934D01*
X0084800Y0286335D02*
X0054646Y0286335D01*
X0054200Y0284737D02*
X0058897Y0284737D01*
X0058339Y0284179D02*
X0057700Y0282635D01*
X0057700Y0280965D01*
X0058339Y0279421D01*
X0059521Y0278239D01*
X0061065Y0277600D01*
X0067935Y0277600D01*
X0069479Y0278239D01*
X0070661Y0279421D01*
X0071300Y0280965D01*
X0071300Y0282635D01*
X0070661Y0284179D01*
X0069479Y0285361D01*
X0067935Y0286000D01*
X0061065Y0286000D01*
X0059521Y0285361D01*
X0058339Y0284179D01*
X0057908Y0283138D02*
X0054200Y0283138D01*
X0054200Y0281539D02*
X0057700Y0281539D01*
X0058124Y0279941D02*
X0054200Y0279941D01*
X0054200Y0278342D02*
X0059418Y0278342D01*
X0061065Y0276000D02*
X0059521Y0275361D01*
X0058339Y0274179D01*
X0057700Y0272635D01*
X0057700Y0270965D01*
X0058339Y0269421D01*
X0059521Y0268239D01*
X0061065Y0267600D01*
X0067935Y0267600D01*
X0069479Y0268239D01*
X0070661Y0269421D01*
X0071300Y0270965D01*
X0071300Y0272635D01*
X0070661Y0274179D01*
X0069479Y0275361D01*
X0067935Y0276000D01*
X0061065Y0276000D01*
X0059306Y0275145D02*
X0054200Y0275145D01*
X0054200Y0273547D02*
X0058078Y0273547D01*
X0057700Y0271948D02*
X0054200Y0271948D01*
X0054200Y0270350D02*
X0057955Y0270350D01*
X0059009Y0268751D02*
X0054200Y0268751D01*
X0054200Y0267153D02*
X0084800Y0267153D01*
X0084800Y0268751D02*
X0069991Y0268751D01*
X0071045Y0270350D02*
X0084800Y0270350D01*
X0084800Y0271948D02*
X0071300Y0271948D01*
X0070922Y0273547D02*
X0084800Y0273547D01*
X0084800Y0275145D02*
X0069694Y0275145D01*
X0069582Y0278342D02*
X0084800Y0278342D01*
X0084800Y0276744D02*
X0054200Y0276744D01*
X0049800Y0276744D02*
X0049200Y0276744D01*
X0049200Y0278342D02*
X0049800Y0278342D01*
X0049800Y0279941D02*
X0049200Y0279941D01*
X0049200Y0281539D02*
X0049800Y0281539D01*
X0049800Y0283138D02*
X0049200Y0283138D01*
X0049200Y0284737D02*
X0049800Y0284737D01*
X0049800Y0286335D02*
X0049200Y0286335D01*
X0049200Y0287934D02*
X0050022Y0287934D01*
X0050343Y0289532D02*
X0051621Y0289532D01*
X0051942Y0291131D02*
X0053219Y0291131D01*
X0053540Y0292729D02*
X0054818Y0292729D01*
X0055139Y0294328D02*
X0056416Y0294328D01*
X0056737Y0295926D02*
X0058015Y0295926D01*
X0058336Y0297525D02*
X0059613Y0297525D01*
X0059934Y0299123D02*
X0061212Y0299123D01*
X0061533Y0300722D02*
X0062810Y0300722D01*
X0063131Y0302320D02*
X0064409Y0302320D01*
X0064730Y0303919D02*
X0066007Y0303919D01*
X0066328Y0305517D02*
X0067606Y0305517D01*
X0067927Y0307116D02*
X0069204Y0307116D01*
X0069525Y0308714D02*
X0070803Y0308714D01*
X0072894Y0318305D02*
X0020511Y0318305D01*
X0010338Y0326298D02*
X0009900Y0326298D01*
X0009900Y0286335D02*
X0044800Y0286335D01*
X0044800Y0275145D02*
X0019694Y0275145D01*
X0020922Y0273547D02*
X0044800Y0273547D01*
X0044800Y0271948D02*
X0021300Y0271948D01*
X0021045Y0270350D02*
X0044800Y0270350D01*
X0044800Y0268751D02*
X0019991Y0268751D01*
X0049200Y0268751D02*
X0049800Y0268751D01*
X0049800Y0267153D02*
X0049200Y0267153D01*
X0049200Y0265554D02*
X0049800Y0265554D01*
X0049800Y0263956D02*
X0049200Y0263956D01*
X0049200Y0262357D02*
X0049800Y0262357D01*
X0049800Y0260759D02*
X0049200Y0260759D01*
X0049200Y0259160D02*
X0049800Y0259160D01*
X0049800Y0257562D02*
X0049200Y0257562D01*
X0049200Y0255963D02*
X0049800Y0255963D01*
X0049800Y0254365D02*
X0049200Y0254365D01*
X0049200Y0252766D02*
X0049800Y0252766D01*
X0049800Y0251168D02*
X0049200Y0251168D01*
X0049200Y0249569D02*
X0049800Y0249569D01*
X0049800Y0247971D02*
X0049200Y0247971D01*
X0049200Y0246372D02*
X0049800Y0246372D01*
X0049800Y0244774D02*
X0049200Y0244774D01*
X0049200Y0243175D02*
X0049800Y0243175D01*
X0049800Y0241577D02*
X0049200Y0241577D01*
X0049200Y0239978D02*
X0049800Y0239978D01*
X0049800Y0238380D02*
X0049200Y0238380D01*
X0049200Y0236781D02*
X0049800Y0236781D01*
X0049800Y0235183D02*
X0049200Y0235183D01*
X0049200Y0233584D02*
X0049800Y0233584D01*
X0049800Y0231986D02*
X0049200Y0231986D01*
X0049200Y0230387D02*
X0049800Y0230387D01*
X0049800Y0228789D02*
X0049200Y0228789D01*
X0049200Y0227190D02*
X0049800Y0227190D01*
X0049800Y0225592D02*
X0049200Y0225592D01*
X0049200Y0223993D02*
X0049800Y0223993D01*
X0049517Y0222395D02*
X0050794Y0222395D01*
X0051115Y0220796D02*
X0052393Y0220796D01*
X0052714Y0219198D02*
X0053991Y0219198D01*
X0054312Y0217599D02*
X0055590Y0217599D01*
X0055911Y0216001D02*
X0057188Y0216001D01*
X0057509Y0214402D02*
X0058787Y0214402D01*
X0059108Y0212803D02*
X0059800Y0212803D01*
X0059800Y0211205D02*
X0059200Y0211205D01*
X0059200Y0209606D02*
X0059800Y0209606D01*
X0059800Y0208008D02*
X0059200Y0208008D01*
X0059200Y0206409D02*
X0059800Y0206409D01*
X0059800Y0204811D02*
X0059200Y0204811D01*
X0059200Y0203212D02*
X0059800Y0203212D01*
X0059800Y0201614D02*
X0059200Y0201614D01*
X0059200Y0200015D02*
X0059800Y0200015D01*
X0059800Y0198417D02*
X0059200Y0198417D01*
X0059200Y0196818D02*
X0059800Y0196818D01*
X0059800Y0195220D02*
X0059200Y0195220D01*
X0059421Y0193621D02*
X0059579Y0193621D01*
X0064200Y0195220D02*
X0074400Y0195220D01*
X0074400Y0196818D02*
X0064200Y0196818D01*
X0064200Y0198417D02*
X0074400Y0198417D01*
X0074400Y0200015D02*
X0064200Y0200015D01*
X0064200Y0201614D02*
X0074400Y0201614D01*
X0074400Y0203212D02*
X0064200Y0203212D01*
X0064200Y0204811D02*
X0074400Y0204811D01*
X0074400Y0206409D02*
X0064200Y0206409D01*
X0064200Y0208008D02*
X0074400Y0208008D01*
X0074400Y0209606D02*
X0064200Y0209606D01*
X0064200Y0211205D02*
X0074400Y0211205D01*
X0074400Y0212803D02*
X0064200Y0212803D01*
X0064200Y0214402D02*
X0074400Y0214402D01*
X0074400Y0216001D02*
X0063411Y0216001D01*
X0061812Y0217599D02*
X0074400Y0217599D01*
X0074400Y0219198D02*
X0060214Y0219198D01*
X0058615Y0220796D02*
X0074400Y0220796D01*
X0074400Y0222395D02*
X0057017Y0222395D01*
X0055418Y0223993D02*
X0074400Y0223993D01*
X0074400Y0225592D02*
X0054200Y0225592D01*
X0054200Y0227190D02*
X0074400Y0227190D01*
X0074400Y0228789D02*
X0070311Y0228789D01*
X0070456Y0228934D02*
X0070863Y0229494D01*
X0071178Y0230111D01*
X0071392Y0230770D01*
X0071500Y0231454D01*
X0071500Y0231800D01*
X0071500Y0232146D01*
X0071392Y0232830D01*
X0071178Y0233489D01*
X0070863Y0234106D01*
X0070456Y0234666D01*
X0069966Y0235156D01*
X0069406Y0235563D01*
X0068789Y0235878D01*
X0068130Y0236092D01*
X0067446Y0236200D01*
X0064500Y0236200D01*
X0064500Y0231800D01*
X0064500Y0231800D01*
X0071500Y0231800D01*
X0064500Y0231800D01*
X0064500Y0231800D01*
X0064500Y0236200D01*
X0061554Y0236200D01*
X0060870Y0236092D01*
X0060211Y0235878D01*
X0059594Y0235563D01*
X0059034Y0235156D01*
X0058544Y0234666D01*
X0058137Y0234106D01*
X0057822Y0233489D01*
X0057608Y0232830D01*
X0057500Y0232146D01*
X0057500Y0231800D01*
X0064500Y0231800D01*
X0064500Y0227400D01*
X0067446Y0227400D01*
X0068130Y0227508D01*
X0068789Y0227722D01*
X0069406Y0228037D01*
X0069966Y0228444D01*
X0070456Y0228934D01*
X0071267Y0230387D02*
X0074400Y0230387D01*
X0074400Y0231986D02*
X0071500Y0231986D01*
X0071129Y0233584D02*
X0074400Y0233584D01*
X0074400Y0235183D02*
X0069930Y0235183D01*
X0069479Y0238239D02*
X0070661Y0239421D01*
X0071300Y0240965D01*
X0071300Y0242635D01*
X0070661Y0244179D01*
X0069479Y0245361D01*
X0067935Y0246000D01*
X0061065Y0246000D01*
X0059521Y0245361D01*
X0058339Y0244179D01*
X0057700Y0242635D01*
X0057700Y0240965D01*
X0058339Y0239421D01*
X0059521Y0238239D01*
X0061065Y0237600D01*
X0067935Y0237600D01*
X0069479Y0238239D01*
X0069619Y0238380D02*
X0074400Y0238380D01*
X0074400Y0239978D02*
X0070891Y0239978D01*
X0071300Y0241577D02*
X0074400Y0241577D01*
X0074400Y0243175D02*
X0071076Y0243175D01*
X0070066Y0244774D02*
X0074400Y0244774D01*
X0074400Y0246372D02*
X0054200Y0246372D01*
X0054200Y0244774D02*
X0058934Y0244774D01*
X0057924Y0243175D02*
X0054200Y0243175D01*
X0054200Y0241577D02*
X0057700Y0241577D01*
X0058109Y0239978D02*
X0054200Y0239978D01*
X0054200Y0238380D02*
X0059381Y0238380D01*
X0059070Y0235183D02*
X0054200Y0235183D01*
X0054200Y0236781D02*
X0074400Y0236781D01*
X0069479Y0248239D02*
X0067935Y0247600D01*
X0061065Y0247600D01*
X0059521Y0248239D01*
X0058339Y0249421D01*
X0057700Y0250965D01*
X0057700Y0252635D01*
X0058339Y0254179D01*
X0059521Y0255361D01*
X0061065Y0256000D01*
X0067935Y0256000D01*
X0069479Y0255361D01*
X0070661Y0254179D01*
X0071300Y0252635D01*
X0071300Y0250965D01*
X0070661Y0249421D01*
X0069479Y0248239D01*
X0068830Y0247971D02*
X0074400Y0247971D01*
X0074400Y0249569D02*
X0070722Y0249569D01*
X0071300Y0251168D02*
X0074400Y0251168D01*
X0074400Y0252766D02*
X0071246Y0252766D01*
X0070475Y0254365D02*
X0074400Y0254365D01*
X0073124Y0255963D02*
X0068024Y0255963D01*
X0061526Y0257562D02*
X0054200Y0257562D01*
X0054200Y0259160D02*
X0058600Y0259160D01*
X0057785Y0260759D02*
X0054200Y0260759D01*
X0054200Y0262357D02*
X0057700Y0262357D01*
X0058247Y0263956D02*
X0054200Y0263956D01*
X0054200Y0265554D02*
X0059989Y0265554D01*
X0060976Y0255963D02*
X0054200Y0255963D01*
X0054200Y0254365D02*
X0058525Y0254365D01*
X0057754Y0252766D02*
X0054200Y0252766D01*
X0054200Y0251168D02*
X0057700Y0251168D01*
X0058278Y0249569D02*
X0054200Y0249569D01*
X0054200Y0247971D02*
X0060170Y0247971D01*
X0064500Y0235183D02*
X0064500Y0235183D01*
X0064500Y0233584D02*
X0064500Y0233584D01*
X0064500Y0231986D02*
X0064500Y0231986D01*
X0064500Y0231800D02*
X0064500Y0231800D01*
X0064500Y0231800D01*
X0064500Y0227400D01*
X0061554Y0227400D01*
X0060870Y0227508D01*
X0060211Y0227722D01*
X0059594Y0228037D01*
X0059034Y0228444D01*
X0058544Y0228934D01*
X0058137Y0229494D01*
X0057822Y0230111D01*
X0057608Y0230770D01*
X0057500Y0231454D01*
X0057500Y0231800D01*
X0064500Y0231800D01*
X0064500Y0230387D02*
X0064500Y0230387D01*
X0064500Y0228789D02*
X0064500Y0228789D01*
X0058689Y0228789D02*
X0054200Y0228789D01*
X0054200Y0230387D02*
X0057733Y0230387D01*
X0057500Y0231986D02*
X0054200Y0231986D01*
X0054200Y0233584D02*
X0057871Y0233584D01*
X0079557Y0263956D02*
X0084800Y0263956D01*
X0084800Y0265554D02*
X0077958Y0265554D01*
X0081155Y0262357D02*
X0084800Y0262357D01*
X0084800Y0260759D02*
X0082754Y0260759D01*
X0084043Y0259160D02*
X0084800Y0259160D01*
X0084800Y0257562D02*
X0084600Y0257562D01*
X0084600Y0255963D02*
X0084800Y0255963D01*
X0084800Y0254365D02*
X0084600Y0254365D01*
X0084600Y0252766D02*
X0084800Y0252766D01*
X0084800Y0251168D02*
X0084600Y0251168D01*
X0084600Y0249569D02*
X0084800Y0249569D01*
X0084800Y0247971D02*
X0084600Y0247971D01*
X0084600Y0246372D02*
X0084800Y0246372D01*
X0084800Y0244774D02*
X0084600Y0244774D01*
X0084600Y0243175D02*
X0084800Y0243175D01*
X0084800Y0241577D02*
X0084600Y0241577D01*
X0084600Y0236781D02*
X0085276Y0236781D01*
X0084600Y0235183D02*
X0089423Y0235183D01*
X0089000Y0236781D02*
X0088724Y0236781D01*
X0089200Y0241577D02*
X0089800Y0241577D01*
X0089800Y0243175D02*
X0089200Y0243175D01*
X0089200Y0244774D02*
X0089800Y0244774D01*
X0089800Y0246372D02*
X0089200Y0246372D01*
X0089200Y0247971D02*
X0089800Y0247971D01*
X0089800Y0249569D02*
X0089200Y0249569D01*
X0089200Y0251168D02*
X0089800Y0251168D01*
X0089800Y0252766D02*
X0089200Y0252766D01*
X0089200Y0254365D02*
X0089800Y0254365D01*
X0089800Y0255963D02*
X0089200Y0255963D01*
X0089200Y0257562D02*
X0089800Y0257562D01*
X0089800Y0259160D02*
X0089200Y0259160D01*
X0089200Y0260759D02*
X0089800Y0260759D01*
X0089800Y0262357D02*
X0089200Y0262357D01*
X0089200Y0263956D02*
X0089800Y0263956D01*
X0089800Y0265554D02*
X0089200Y0265554D01*
X0089200Y0267153D02*
X0089800Y0267153D01*
X0089800Y0268751D02*
X0089200Y0268751D01*
X0089200Y0270350D02*
X0089800Y0270350D01*
X0089800Y0271948D02*
X0089200Y0271948D01*
X0089200Y0273547D02*
X0089800Y0273547D01*
X0089800Y0275145D02*
X0089200Y0275145D01*
X0089200Y0276744D02*
X0089800Y0276744D01*
X0089200Y0278342D02*
X0090431Y0278342D01*
X0089200Y0279941D02*
X0092030Y0279941D01*
X0093628Y0281539D02*
X0089200Y0281539D01*
X0089200Y0283138D02*
X0095227Y0283138D01*
X0084800Y0283138D02*
X0071092Y0283138D01*
X0071300Y0281539D02*
X0084800Y0281539D01*
X0084800Y0279941D02*
X0070876Y0279941D01*
X0070103Y0284737D02*
X0084800Y0284737D01*
X0094200Y0265554D02*
X0099989Y0265554D01*
X0098247Y0263956D02*
X0094200Y0263956D01*
X0094200Y0262357D02*
X0097700Y0262357D01*
X0097785Y0260759D02*
X0094200Y0260759D01*
X0094200Y0259160D02*
X0098600Y0259160D01*
X0099521Y0255361D02*
X0098339Y0254179D01*
X0097700Y0252635D01*
X0097700Y0250965D01*
X0098339Y0249421D01*
X0099521Y0248239D01*
X0101065Y0247600D01*
X0107935Y0247600D01*
X0109479Y0248239D01*
X0110661Y0249421D01*
X0111300Y0250965D01*
X0111300Y0252635D01*
X0110661Y0254179D01*
X0109479Y0255361D01*
X0107935Y0256000D01*
X0101065Y0256000D01*
X0099521Y0255361D01*
X0098525Y0254365D02*
X0094200Y0254365D01*
X0094200Y0255963D02*
X0100976Y0255963D01*
X0097754Y0252766D02*
X0094200Y0252766D01*
X0094200Y0251168D02*
X0097700Y0251168D01*
X0098278Y0249569D02*
X0094200Y0249569D01*
X0094200Y0247971D02*
X0100170Y0247971D01*
X0101065Y0246000D02*
X0099521Y0245361D01*
X0098339Y0244179D01*
X0097700Y0242635D01*
X0097700Y0240965D01*
X0098339Y0239421D01*
X0099521Y0238239D01*
X0101065Y0237600D01*
X0107935Y0237600D01*
X0109479Y0238239D01*
X0110661Y0239421D01*
X0111300Y0240965D01*
X0111300Y0242635D01*
X0110661Y0244179D01*
X0109479Y0245361D01*
X0107935Y0246000D01*
X0101065Y0246000D01*
X0098934Y0244774D02*
X0094200Y0244774D01*
X0094200Y0246372D02*
X0134800Y0246372D01*
X0134800Y0244774D02*
X0110066Y0244774D01*
X0111076Y0243175D02*
X0134800Y0243175D01*
X0134800Y0241577D02*
X0111300Y0241577D01*
X0110891Y0239978D02*
X0134800Y0239978D01*
X0134800Y0238380D02*
X0109619Y0238380D01*
X0109657Y0235183D02*
X0134800Y0235183D01*
X0134800Y0236781D02*
X0095000Y0236781D01*
X0094593Y0238380D02*
X0099381Y0238380D01*
X0098109Y0239978D02*
X0094200Y0239978D01*
X0094200Y0241577D02*
X0097700Y0241577D01*
X0097924Y0243175D02*
X0094200Y0243175D01*
X0094577Y0235183D02*
X0099343Y0235183D01*
X0098093Y0233584D02*
X0084600Y0233584D01*
X0084600Y0231986D02*
X0097700Y0231986D01*
X0097476Y0230387D02*
X0084600Y0230387D01*
X0084600Y0228789D02*
X0095877Y0228789D01*
X0094279Y0227190D02*
X0084600Y0227190D01*
X0084600Y0225592D02*
X0092680Y0225592D01*
X0092300Y0223993D02*
X0084600Y0223993D01*
X0084600Y0222395D02*
X0092300Y0222395D01*
X0092300Y0220796D02*
X0084600Y0220796D01*
X0084600Y0219198D02*
X0092300Y0219198D01*
X0092300Y0217599D02*
X0084600Y0217599D01*
X0084600Y0216001D02*
X0092300Y0216001D01*
X0092300Y0214402D02*
X0084600Y0214402D01*
X0084600Y0212803D02*
X0092300Y0212803D01*
X0092300Y0211205D02*
X0084600Y0211205D01*
X0084600Y0209606D02*
X0092300Y0209606D01*
X0092300Y0208008D02*
X0084600Y0208008D01*
X0074400Y0193621D02*
X0064421Y0193621D01*
X0065000Y0192023D02*
X0074400Y0192023D01*
X0074550Y0190424D02*
X0064677Y0190424D01*
X0069303Y0185629D02*
X0009900Y0185629D01*
X0009900Y0187227D02*
X0071228Y0187227D01*
X0069000Y0184030D02*
X0009900Y0184030D01*
X0009900Y0182432D02*
X0069626Y0182432D01*
X0069800Y0180833D02*
X0009900Y0180833D01*
X0009900Y0179235D02*
X0069800Y0179235D01*
X0069800Y0177636D02*
X0009900Y0177636D01*
X0009900Y0176038D02*
X0069800Y0176038D01*
X0069800Y0174439D02*
X0009900Y0174439D01*
X0009900Y0172841D02*
X0069800Y0172841D01*
X0069800Y0171242D02*
X0009900Y0171242D01*
X0009900Y0169644D02*
X0069800Y0169644D01*
X0069800Y0168045D02*
X0009900Y0168045D01*
X0009900Y0166447D02*
X0069800Y0166447D01*
X0069800Y0164848D02*
X0009900Y0164848D01*
X0009900Y0163250D02*
X0069800Y0163250D01*
X0069800Y0161651D02*
X0009900Y0161651D01*
X0009900Y0160053D02*
X0069800Y0160053D01*
X0069800Y0158454D02*
X0009900Y0158454D01*
X0009900Y0156856D02*
X0069800Y0156856D01*
X0069800Y0155257D02*
X0009900Y0155257D01*
X0009900Y0153659D02*
X0069800Y0153659D01*
X0069800Y0152060D02*
X0009900Y0152060D01*
X0009900Y0150462D02*
X0069800Y0150462D01*
X0069800Y0148863D02*
X0009900Y0148863D01*
X0009900Y0147265D02*
X0069800Y0147265D01*
X0069800Y0145666D02*
X0009900Y0145666D01*
X0009900Y0144068D02*
X0069800Y0144068D01*
X0069800Y0142469D02*
X0009900Y0142469D01*
X0009900Y0140870D02*
X0069800Y0140870D01*
X0069800Y0139272D02*
X0009900Y0139272D01*
X0009900Y0137673D02*
X0070515Y0137673D01*
X0072114Y0136075D02*
X0009900Y0136075D01*
X0009900Y0134476D02*
X0073712Y0134476D01*
X0075311Y0132878D02*
X0009900Y0132878D01*
X0009900Y0131279D02*
X0076909Y0131279D01*
X0078508Y0129681D02*
X0009900Y0129681D01*
X0009900Y0128082D02*
X0080106Y0128082D01*
X0081705Y0126484D02*
X0009900Y0126484D01*
X0009900Y0124885D02*
X0083303Y0124885D01*
X0084902Y0123287D02*
X0009900Y0123287D01*
X0009900Y0121688D02*
X0086500Y0121688D01*
X0088099Y0120090D02*
X0009900Y0120090D01*
X0009900Y0118491D02*
X0089697Y0118491D01*
X0091296Y0116893D02*
X0009900Y0116893D01*
X0009900Y0115294D02*
X0092894Y0115294D01*
X0094493Y0113696D02*
X0009900Y0113696D01*
X0009900Y0112097D02*
X0096091Y0112097D01*
X0097690Y0110499D02*
X0009900Y0110499D01*
X0009900Y0108900D02*
X0099288Y0108900D01*
X0100887Y0107302D02*
X0009900Y0107302D01*
X0009900Y0105703D02*
X0102485Y0105703D01*
X0104084Y0104105D02*
X0009900Y0104105D01*
X0009900Y0102506D02*
X0105683Y0102506D01*
X0107281Y0100908D02*
X0009900Y0100908D01*
X0009900Y0099309D02*
X0108880Y0099309D01*
X0110478Y0097711D02*
X0009900Y0097711D01*
X0009900Y0096112D02*
X0112077Y0096112D01*
X0113675Y0094514D02*
X0009900Y0094514D01*
X0009900Y0092915D02*
X0115274Y0092915D01*
X0116872Y0091317D02*
X0009900Y0091317D01*
X0009900Y0089718D02*
X0118471Y0089718D01*
X0120069Y0088120D02*
X0009900Y0088120D01*
X0009900Y0086521D02*
X0121668Y0086521D01*
X0123266Y0084923D02*
X0009900Y0084923D01*
X0009900Y0083324D02*
X0124865Y0083324D01*
X0126463Y0081726D02*
X0009900Y0081726D01*
X0009900Y0080127D02*
X0128062Y0080127D01*
X0129660Y0078529D02*
X0009900Y0078529D01*
X0009900Y0076930D02*
X0131259Y0076930D01*
X0132857Y0075332D02*
X0009900Y0075332D01*
X0009900Y0073733D02*
X0134456Y0073733D01*
X0136054Y0072134D02*
X0009900Y0072134D01*
X0009900Y0070536D02*
X0137653Y0070536D01*
X0139251Y0068937D02*
X0009900Y0068937D01*
X0009900Y0067339D02*
X0140850Y0067339D01*
X0142448Y0065740D02*
X0009900Y0065740D01*
X0009900Y0064142D02*
X0144047Y0064142D01*
X0145645Y0062543D02*
X0009900Y0062543D01*
X0009900Y0060945D02*
X0147244Y0060945D01*
X0148842Y0059346D02*
X0009900Y0059346D01*
X0009900Y0057748D02*
X0150441Y0057748D01*
X0155236Y0052952D02*
X0133959Y0052952D01*
X0135557Y0051354D02*
X0156835Y0051354D01*
X0158433Y0049755D02*
X0137156Y0049755D01*
X0138754Y0048157D02*
X0160032Y0048157D01*
X0161630Y0046558D02*
X0140353Y0046558D01*
X0141951Y0044960D02*
X0163229Y0044960D01*
X0164827Y0043361D02*
X0143550Y0043361D01*
X0145148Y0041763D02*
X0166426Y0041763D01*
X0168024Y0040164D02*
X0146747Y0040164D01*
X0148345Y0038566D02*
X0169623Y0038566D01*
X0171221Y0036967D02*
X0149944Y0036967D01*
X0151543Y0035369D02*
X0172820Y0035369D01*
X0174418Y0033770D02*
X0153141Y0033770D01*
X0154740Y0032172D02*
X0176017Y0032172D01*
X0177616Y0030573D02*
X0156338Y0030573D01*
X0157937Y0028975D02*
X0179214Y0028975D01*
X0184043Y0035369D02*
X0244781Y0035369D01*
X0244352Y0033770D02*
X0185641Y0033770D01*
X0187240Y0032172D02*
X0244188Y0032172D01*
X0244188Y0030573D02*
X0188838Y0030573D01*
X0182444Y0036967D02*
X0245576Y0036967D01*
X0246683Y0038566D02*
X0180845Y0038566D01*
X0179247Y0040164D02*
X0248364Y0040164D01*
X0251840Y0041763D02*
X0213823Y0041763D01*
X0200177Y0041763D02*
X0177648Y0041763D01*
X0176050Y0043361D02*
X0197409Y0043361D01*
X0195374Y0044960D02*
X0174451Y0044960D01*
X0172853Y0046558D02*
X0193776Y0046558D01*
X0192591Y0048157D02*
X0171254Y0048157D01*
X0169656Y0049755D02*
X0191668Y0049755D01*
X0190817Y0051354D02*
X0168057Y0051354D01*
X0166459Y0052952D02*
X0190389Y0052952D01*
X0189960Y0054551D02*
X0164860Y0054551D01*
X0163262Y0056149D02*
X0189700Y0056149D01*
X0189700Y0057748D02*
X0161663Y0057748D01*
X0160065Y0059346D02*
X0189700Y0059346D01*
X0189932Y0060945D02*
X0158466Y0060945D01*
X0156868Y0062543D02*
X0190361Y0062543D01*
X0190789Y0064142D02*
X0155269Y0064142D01*
X0153671Y0065740D02*
X0191608Y0065740D01*
X0192531Y0067339D02*
X0152072Y0067339D01*
X0150474Y0068937D02*
X0193672Y0068937D01*
X0195270Y0070536D02*
X0148875Y0070536D01*
X0147277Y0072134D02*
X0197228Y0072134D01*
X0193498Y0148863D02*
X0140502Y0148863D01*
X0139273Y0168045D02*
X0110467Y0168045D01*
X0108869Y0169644D02*
X0138545Y0169644D01*
X0137300Y0171242D02*
X0107270Y0171242D01*
X0105672Y0172841D02*
X0137300Y0172841D01*
X0134500Y0174800D02*
X0134500Y0181800D01*
X0134500Y0181800D01*
X0134500Y0181800D01*
X0130100Y0181800D01*
X0130100Y0184746D01*
X0130208Y0185430D01*
X0130422Y0186089D01*
X0130737Y0186706D01*
X0131144Y0187266D01*
X0131634Y0187756D01*
X0132194Y0188163D01*
X0132811Y0188478D01*
X0133470Y0188692D01*
X0134154Y0188800D01*
X0134500Y0188800D01*
X0134500Y0181800D01*
X0130100Y0181800D01*
X0130100Y0178854D01*
X0130208Y0178170D01*
X0130422Y0177511D01*
X0130737Y0176894D01*
X0131144Y0176334D01*
X0131634Y0175844D01*
X0132194Y0175437D01*
X0132811Y0175122D01*
X0133470Y0174908D01*
X0134154Y0174800D01*
X0134500Y0174800D01*
X0134500Y0176038D02*
X0134500Y0176038D01*
X0134500Y0177636D02*
X0134500Y0177636D01*
X0134500Y0179235D02*
X0134500Y0179235D01*
X0134500Y0180833D02*
X0134500Y0180833D01*
X0134500Y0182432D02*
X0134500Y0182432D01*
X0134500Y0184030D02*
X0134500Y0184030D01*
X0134500Y0185629D02*
X0134500Y0185629D01*
X0134500Y0187227D02*
X0134500Y0187227D01*
X0131115Y0187227D02*
X0127612Y0187227D01*
X0128061Y0186779D02*
X0126879Y0187961D01*
X0125335Y0188600D01*
X0123665Y0188600D01*
X0122121Y0187961D01*
X0120939Y0186779D01*
X0120300Y0185235D01*
X0120300Y0178365D01*
X0120939Y0176821D01*
X0122121Y0175639D01*
X0123665Y0175000D01*
X0125335Y0175000D01*
X0126879Y0175639D01*
X0128061Y0176821D01*
X0128700Y0178365D01*
X0128700Y0185235D01*
X0128061Y0186779D01*
X0128537Y0185629D02*
X0130273Y0185629D01*
X0130100Y0184030D02*
X0128700Y0184030D01*
X0128700Y0182432D02*
X0130100Y0182432D01*
X0130100Y0180833D02*
X0128700Y0180833D01*
X0128700Y0179235D02*
X0130100Y0179235D01*
X0130382Y0177636D02*
X0128398Y0177636D01*
X0127277Y0176038D02*
X0131440Y0176038D01*
X0141700Y0188826D02*
X0251036Y0188826D01*
X0250640Y0189221D02*
X0251921Y0187940D01*
X0253594Y0187247D01*
X0255406Y0187247D01*
X0257079Y0187940D01*
X0258360Y0189221D01*
X0259053Y0190894D01*
X0259053Y0192706D01*
X0258360Y0194379D01*
X0257079Y0195660D01*
X0255406Y0196353D01*
X0253594Y0196353D01*
X0251921Y0195660D01*
X0250640Y0194379D01*
X0249947Y0192706D01*
X0249947Y0190894D01*
X0250640Y0189221D01*
X0250142Y0190424D02*
X0141700Y0190424D01*
X0141700Y0192023D02*
X0157534Y0192023D01*
X0156534Y0193621D02*
X0141700Y0193621D01*
X0141691Y0195220D02*
X0155469Y0195220D01*
X0153870Y0196818D02*
X0140093Y0196818D01*
X0138494Y0198417D02*
X0152272Y0198417D01*
X0150673Y0200015D02*
X0136896Y0200015D01*
X0135297Y0201614D02*
X0149075Y0201614D01*
X0147476Y0203212D02*
X0133699Y0203212D01*
X0132100Y0204811D02*
X0145878Y0204811D01*
X0144279Y0206409D02*
X0130502Y0206409D01*
X0128903Y0208008D02*
X0142681Y0208008D01*
X0141082Y0209606D02*
X0127305Y0209606D01*
X0125706Y0211205D02*
X0139800Y0211205D01*
X0139800Y0212803D02*
X0124832Y0212803D01*
X0123558Y0214402D02*
X0139800Y0214402D01*
X0139800Y0222395D02*
X0139337Y0222395D01*
X0134800Y0228789D02*
X0110028Y0228789D01*
X0111061Y0230387D02*
X0134800Y0230387D01*
X0134800Y0231986D02*
X0111300Y0231986D01*
X0110907Y0233584D02*
X0134800Y0233584D01*
X0134800Y0247971D02*
X0108830Y0247971D01*
X0110722Y0249569D02*
X0134800Y0249569D01*
X0134800Y0251168D02*
X0111300Y0251168D01*
X0111246Y0252766D02*
X0134800Y0252766D01*
X0134800Y0254365D02*
X0110475Y0254365D01*
X0108024Y0255963D02*
X0134099Y0255963D01*
X0134068Y0257562D02*
X0094200Y0257562D01*
X0109011Y0265554D02*
X0155134Y0265554D01*
X0152955Y0263956D02*
X0158247Y0263956D01*
X0157700Y0262357D02*
X0154554Y0262357D01*
X0156152Y0260759D02*
X0157785Y0260759D01*
X0157751Y0259160D02*
X0158600Y0259160D01*
X0158525Y0254365D02*
X0155000Y0254365D01*
X0154725Y0255963D02*
X0154558Y0255963D01*
X0153127Y0257562D02*
X0149932Y0257562D01*
X0148882Y0259160D02*
X0151528Y0259160D01*
X0154612Y0252766D02*
X0157754Y0252766D01*
X0157700Y0251168D02*
X0154200Y0251168D01*
X0154200Y0249569D02*
X0158278Y0249569D01*
X0160170Y0247971D02*
X0154200Y0247971D01*
X0154200Y0246372D02*
X0189316Y0246372D01*
X0192342Y0249569D02*
X0198278Y0249569D01*
X0200170Y0247971D02*
X0193941Y0247971D01*
X0195539Y0246372D02*
X0259100Y0246372D01*
X0259100Y0247971D02*
X0258830Y0247971D01*
X0259100Y0255963D02*
X0258024Y0255963D01*
X0259100Y0217599D02*
X0154200Y0217599D01*
X0154200Y0216001D02*
X0252744Y0216001D01*
X0251921Y0215660D02*
X0250640Y0214379D01*
X0249947Y0212706D01*
X0249947Y0210894D01*
X0250640Y0209221D01*
X0251921Y0207940D01*
X0253594Y0207247D01*
X0255406Y0207247D01*
X0257079Y0207940D01*
X0258360Y0209221D01*
X0259053Y0210894D01*
X0259053Y0212706D01*
X0258360Y0214379D01*
X0257079Y0215660D01*
X0255406Y0216353D01*
X0253594Y0216353D01*
X0251921Y0215660D01*
X0250663Y0214402D02*
X0154200Y0214402D01*
X0154200Y0212803D02*
X0249988Y0212803D01*
X0249947Y0211205D02*
X0155706Y0211205D01*
X0157305Y0209606D02*
X0250481Y0209606D01*
X0251853Y0208008D02*
X0158903Y0208008D01*
X0160502Y0206409D02*
X0259100Y0206409D01*
X0259100Y0204811D02*
X0162100Y0204811D01*
X0163699Y0203212D02*
X0259100Y0203212D01*
X0259100Y0201614D02*
X0166429Y0201614D01*
X0167451Y0200015D02*
X0259100Y0200015D01*
X0259100Y0198417D02*
X0167381Y0198417D01*
X0166261Y0196818D02*
X0259100Y0196818D01*
X0259100Y0195220D02*
X0257519Y0195220D01*
X0258673Y0193621D02*
X0259100Y0193621D01*
X0259053Y0192023D02*
X0259100Y0192023D01*
X0259100Y0190424D02*
X0258858Y0190424D01*
X0259100Y0188826D02*
X0257964Y0188826D01*
X0259100Y0187227D02*
X0157612Y0187227D01*
X0158061Y0186779D02*
X0156879Y0187961D01*
X0155335Y0188600D01*
X0153665Y0188600D01*
X0152121Y0187961D01*
X0150939Y0186779D01*
X0150300Y0185235D01*
X0150300Y0178365D01*
X0150939Y0176821D01*
X0152121Y0175639D01*
X0153665Y0175000D01*
X0155335Y0175000D01*
X0156879Y0175639D01*
X0158061Y0176821D01*
X0158700Y0178365D01*
X0158700Y0185235D01*
X0158061Y0186779D01*
X0158537Y0185629D02*
X0259100Y0185629D01*
X0259100Y0184030D02*
X0158700Y0184030D01*
X0158700Y0182432D02*
X0259100Y0182432D01*
X0259100Y0180833D02*
X0158700Y0180833D01*
X0158700Y0179235D02*
X0259100Y0179235D01*
X0259100Y0177636D02*
X0158398Y0177636D01*
X0157277Y0176038D02*
X0259100Y0176038D01*
X0249947Y0192023D02*
X0166465Y0192023D01*
X0167466Y0193621D02*
X0250327Y0193621D01*
X0251481Y0195220D02*
X0167366Y0195220D01*
X0162534Y0192023D02*
X0161465Y0192023D01*
X0151388Y0187227D02*
X0147612Y0187227D01*
X0148537Y0185629D02*
X0150463Y0185629D01*
X0150300Y0184030D02*
X0148700Y0184030D01*
X0148700Y0182432D02*
X0150300Y0182432D01*
X0150300Y0180833D02*
X0148700Y0180833D01*
X0148700Y0179235D02*
X0150300Y0179235D01*
X0150602Y0177636D02*
X0148398Y0177636D01*
X0147277Y0176038D02*
X0151723Y0176038D01*
X0132272Y0198417D02*
X0117622Y0198417D01*
X0116405Y0197200D02*
X0119100Y0199895D01*
X0119100Y0203705D01*
X0116405Y0206400D01*
X0112595Y0206400D01*
X0109900Y0203705D01*
X0109900Y0199895D01*
X0112595Y0197200D01*
X0116405Y0197200D01*
X0119100Y0200015D02*
X0130673Y0200015D01*
X0129075Y0201614D02*
X0119100Y0201614D01*
X0119100Y0203212D02*
X0127476Y0203212D01*
X0125878Y0204811D02*
X0117994Y0204811D01*
X0111006Y0204811D02*
X0107994Y0204811D01*
X0109100Y0203212D02*
X0109900Y0203212D01*
X0109900Y0201614D02*
X0109100Y0201614D01*
X0109100Y0200015D02*
X0109900Y0200015D01*
X0111378Y0198417D02*
X0107622Y0198417D01*
X0117612Y0187227D02*
X0121388Y0187227D01*
X0120463Y0185629D02*
X0118537Y0185629D01*
X0118700Y0184030D02*
X0120300Y0184030D01*
X0120300Y0182432D02*
X0118700Y0182432D01*
X0118700Y0180833D02*
X0120300Y0180833D01*
X0120300Y0179235D02*
X0118700Y0179235D01*
X0118398Y0177636D02*
X0120602Y0177636D01*
X0121723Y0176038D02*
X0117277Y0176038D01*
X0105633Y0158454D02*
X0079200Y0158454D01*
X0079200Y0156856D02*
X0108110Y0156856D01*
X0108086Y0150462D02*
X0103950Y0150462D01*
X0104035Y0160053D02*
X0079200Y0160053D01*
X0079200Y0161651D02*
X0102436Y0161651D01*
X0100838Y0163250D02*
X0079200Y0163250D01*
X0079200Y0164848D02*
X0099239Y0164848D01*
X0097641Y0166447D02*
X0079200Y0166447D01*
X0079200Y0168045D02*
X0096042Y0168045D01*
X0094444Y0169644D02*
X0079200Y0169644D01*
X0079200Y0171242D02*
X0092845Y0171242D01*
X0087649Y0152060D02*
X0079200Y0152060D01*
X0079200Y0150462D02*
X0086050Y0150462D01*
X0084452Y0148863D02*
X0079200Y0148863D01*
X0079200Y0147265D02*
X0082853Y0147265D01*
X0081255Y0145666D02*
X0079200Y0145666D01*
X0011036Y0188826D02*
X0009900Y0188826D01*
X0009900Y0190424D02*
X0010142Y0190424D01*
X0009947Y0192023D02*
X0009900Y0192023D01*
X0009900Y0193621D02*
X0010327Y0193621D01*
X0049200Y0270350D02*
X0049800Y0270350D01*
X0049800Y0271948D02*
X0049200Y0271948D01*
X0049200Y0273547D02*
X0049800Y0273547D01*
X0049800Y0275145D02*
X0049200Y0275145D01*
X0104500Y0358268D02*
X0104500Y0358268D01*
X0104500Y0359867D02*
X0104500Y0359867D01*
X0104500Y0361465D02*
X0104500Y0361465D01*
X0104500Y0363064D02*
X0104500Y0363064D01*
X0104500Y0364662D02*
X0104500Y0364662D01*
X0164500Y0355071D02*
X0164500Y0355071D01*
X0164500Y0353472D02*
X0164500Y0353472D01*
X0164500Y0351874D02*
X0164500Y0351874D01*
X0164500Y0350275D02*
X0164500Y0350275D01*
X0164500Y0348677D02*
X0164500Y0348677D01*
X0169582Y0278342D02*
X0199418Y0278342D01*
X0199306Y0275145D02*
X0169694Y0275145D01*
X0170922Y0273547D02*
X0198078Y0273547D01*
X0197700Y0271948D02*
X0171300Y0271948D01*
X0171045Y0270350D02*
X0197955Y0270350D01*
X0195948Y0255963D02*
X0200976Y0255963D01*
X0198525Y0254365D02*
X0197546Y0254365D01*
X0194521Y0251168D02*
X0190743Y0251168D01*
X0189145Y0252766D02*
X0192922Y0252766D01*
X0191324Y0254365D02*
X0187546Y0254365D01*
X0185948Y0255963D02*
X0189725Y0255963D01*
X0197138Y0244774D02*
X0198934Y0244774D01*
X0204500Y0235183D02*
X0204500Y0235183D01*
X0204500Y0233584D02*
X0204500Y0233584D01*
X0204500Y0231986D02*
X0204500Y0231986D01*
X0204500Y0230387D02*
X0204500Y0230387D01*
X0204500Y0228789D02*
X0204500Y0228789D01*
X0159381Y0238380D02*
X0154200Y0238380D01*
X0154200Y0239978D02*
X0158109Y0239978D01*
X0157700Y0241577D02*
X0154200Y0241577D01*
X0154200Y0243175D02*
X0157924Y0243175D01*
X0158934Y0244774D02*
X0154200Y0244774D01*
X0154200Y0223993D02*
X0158262Y0223993D01*
X0157700Y0222395D02*
X0154200Y0222395D01*
X0154200Y0220796D02*
X0157770Y0220796D01*
X0158563Y0219198D02*
X0154200Y0219198D01*
X0135118Y0259160D02*
X0110400Y0259160D01*
X0109991Y0268751D02*
X0151937Y0268751D01*
X0256256Y0216001D02*
X0259100Y0216001D01*
X0259100Y0214402D02*
X0258337Y0214402D01*
X0259012Y0212803D02*
X0259100Y0212803D01*
X0259053Y0211205D02*
X0259100Y0211205D01*
X0259100Y0209606D02*
X0258519Y0209606D01*
X0259100Y0208008D02*
X0257147Y0208008D01*
X0258264Y0017785D02*
X0259100Y0017785D01*
X0259096Y0016187D02*
X0259100Y0016187D01*
X0010248Y0366261D02*
X0009900Y0366261D01*
X0009900Y0377450D02*
X0009981Y0377450D01*
D21*
X0244500Y0101800D03*
X0254500Y0091800D03*
D22*
X0209500Y0149300D03*
X0209500Y0174300D03*
X0144500Y0089300D03*
X0127000Y0071800D03*
D23*
X0084500Y0171800D03*
X0064500Y0171800D03*
D24*
X0254500Y0074300D03*
X0254500Y0066800D03*
M02*
