%
M48
M72
T01C0.0120
T02C0.0320
T03C0.0360
T04C0.0394
T05C0.0400
T06C0.0591
T07C0.0787
T08C0.0866
T09C0.1102
T10C0.1300
%
T01
X7450Y10930
X8200Y10930
X9950Y13180
X10450Y11930
X11650Y13380
X12450Y13930
X11650Y14380
X10950Y14780
X9700Y14680
X8050Y14180
X6700Y13680
X7700Y18180
X7200Y18430
X6200Y19180
X5700Y19180
X8700Y23930
X9200Y23680
X12200Y21180
X13700Y22430
X14200Y25430
X14700Y25680
X15200Y25430
X13700Y25680
X16450Y19930
X16450Y19430
X15950Y19430
X14200Y16930
X12350Y15580
X14450Y11930
X13650Y10580
X12450Y9930
X11450Y5180
X10950Y4680
X10450Y4180
X16450Y11930
X15700Y13680
X17750Y13680
X17950Y11930
X22450Y13180
X18700Y28180
X18200Y35180
X19950Y35680
X4200Y26180
T02
X6450Y26180
X6450Y25180
X6450Y24180
X6450Y23180
X6450Y27180
X6450Y28180
X10450Y28180
X10450Y27180
X10450Y26180
X10450Y25180
X10450Y24180
X10450Y23180
X10450Y22180
X10450Y21180
X11450Y18180
X12450Y18180
X13450Y18180
X14450Y18180
X15450Y18180
X16450Y22180
X16450Y23180
X16450Y24180
X16450Y25180
X16450Y26180
X16450Y27180
X16450Y28180
X16450Y29180
X16450Y30180
X16450Y31180
X16450Y32180
X16450Y33180
X16450Y34180
X16450Y35180
X16450Y36180
X16450Y37180
X16450Y38180
X10450Y36180
X10450Y35180
X10450Y34180
X10450Y33180
X10450Y32180
X10450Y31180
X10450Y30180
X10450Y29180
X1450Y28180
X1450Y27180
X1450Y26180
X1450Y25180
X1450Y24180
X1450Y23180
X20450Y23180
X20450Y24180
X20450Y25180
X20450Y26180
X20450Y27180
X20450Y28180
X25450Y28180
X25450Y27180
X25450Y26180
X25450Y25180
X25450Y24180
X25450Y23180
T03
X22450Y31180
X22450Y32180
X22450Y33180
X22450Y34180
X22450Y35180
X22450Y36180
X22450Y37180
X22450Y38180
X21450Y38180
X21450Y37180
X21450Y36180
X21450Y35180
X21450Y34180
X21450Y33180
X21450Y32180
X21450Y31180
T04
X25450Y21180
X25450Y19180
X25450Y16180
X25450Y14180
X25450Y7430
X25450Y6680
X19700Y15180
X13700Y15180
X1450Y19180
X1450Y21180
T05
X1450Y1180
X2450Y1180
X3450Y1180
X4450Y1180
X10450Y1180
X11450Y1180
X12450Y1180
X14450Y1180
X15450Y1180
X16450Y1180
X17450Y1180
X22450Y1180
X23450Y1180
X24450Y1180
X25450Y1180
X21700Y11680
X20700Y11680
X19700Y11680
X11450Y20180
X10450Y20180
X1450Y31180
X1450Y32180
X1450Y33180
X1450Y34180
X1450Y35180
X1450Y36180
X1450Y37180
X1450Y38180
T06
X6450Y17180
X8450Y17180
T07
X24450Y10180
X25450Y9180
T08
X20950Y14930
X20950Y17430
X14450Y8930
X12700Y7180
T09
X1450Y3180
X1450Y29680
X25450Y37180
X25450Y3180
T10
X20700Y5780
M30
