G75*
%MOIN*%
%OFA0B0*%
%FSLAX25Y25*%
%IPPOS*%
%LPD*%
%AMOC8*
5,1,8,0,0,1.08239X$1,22.5*
%
%ADD10C,0.11824*%
%ADD11C,0.06000*%
%ADD12OC8,0.06400*%
%ADD13C,0.06800*%
%ADD14C,0.13800*%
%ADD15OC8,0.06800*%
%ADD16C,0.06706*%
%ADD17C,0.03600*%
%ADD18C,0.12611*%
%ADD19C,0.13461*%
%ADD20C,0.09658*%
%ADD21R,0.06706X0.06706*%
D10*
X0014500Y0031800D03*
X0014500Y0296800D03*
X0254500Y0371800D03*
X0254500Y0031800D03*
D11*
X0154500Y0179200D02*
X0154500Y0184400D01*
X0144500Y0184400D02*
X0144500Y0179200D01*
X0134500Y0179200D02*
X0134500Y0184400D01*
X0124500Y0184400D02*
X0124500Y0179200D01*
X0114500Y0179200D02*
X0114500Y0184400D01*
X0107100Y0211800D02*
X0101900Y0211800D01*
X0101900Y0221800D02*
X0107100Y0221800D01*
X0107100Y0231800D02*
X0101900Y0231800D01*
X0101900Y0241800D02*
X0107100Y0241800D01*
X0107100Y0251800D02*
X0101900Y0251800D01*
X0101900Y0261800D02*
X0107100Y0261800D01*
X0107100Y0271800D02*
X0101900Y0271800D01*
X0101900Y0281800D02*
X0107100Y0281800D01*
X0107100Y0291800D02*
X0101900Y0291800D01*
X0101900Y0301800D02*
X0107100Y0301800D01*
X0107100Y0311800D02*
X0101900Y0311800D01*
X0101900Y0321800D02*
X0107100Y0321800D01*
X0107100Y0331800D02*
X0101900Y0331800D01*
X0101900Y0341800D02*
X0107100Y0341800D01*
X0107100Y0351800D02*
X0101900Y0351800D01*
X0101900Y0361800D02*
X0107100Y0361800D01*
X0067100Y0281800D02*
X0061900Y0281800D01*
X0061900Y0271800D02*
X0067100Y0271800D01*
X0067100Y0261800D02*
X0061900Y0261800D01*
X0061900Y0251800D02*
X0067100Y0251800D01*
X0067100Y0241800D02*
X0061900Y0241800D01*
X0061900Y0231800D02*
X0067100Y0231800D01*
X0017100Y0231800D02*
X0011900Y0231800D01*
X0011900Y0241800D02*
X0017100Y0241800D01*
X0017100Y0251800D02*
X0011900Y0251800D01*
X0011900Y0261800D02*
X0017100Y0261800D01*
X0017100Y0271800D02*
X0011900Y0271800D01*
X0011900Y0281800D02*
X0017100Y0281800D01*
X0161900Y0281800D02*
X0167100Y0281800D01*
X0167100Y0271800D02*
X0161900Y0271800D01*
X0161900Y0261800D02*
X0167100Y0261800D01*
X0167100Y0251800D02*
X0161900Y0251800D01*
X0161900Y0241800D02*
X0167100Y0241800D01*
X0167100Y0231800D02*
X0161900Y0231800D01*
X0161900Y0221800D02*
X0167100Y0221800D01*
X0201900Y0231800D02*
X0207100Y0231800D01*
X0207100Y0241800D02*
X0201900Y0241800D01*
X0201900Y0251800D02*
X0207100Y0251800D01*
X0207100Y0261800D02*
X0201900Y0261800D01*
X0201900Y0271800D02*
X0207100Y0271800D01*
X0207100Y0281800D02*
X0201900Y0281800D01*
X0167100Y0291800D02*
X0161900Y0291800D01*
X0161900Y0301800D02*
X0167100Y0301800D01*
X0167100Y0311800D02*
X0161900Y0311800D01*
X0161900Y0321800D02*
X0167100Y0321800D01*
X0167100Y0331800D02*
X0161900Y0331800D01*
X0161900Y0341800D02*
X0167100Y0341800D01*
X0167100Y0351800D02*
X0161900Y0351800D01*
X0161900Y0361800D02*
X0167100Y0361800D01*
X0167100Y0371800D02*
X0161900Y0371800D01*
X0161900Y0381800D02*
X0167100Y0381800D01*
X0251900Y0281800D02*
X0257100Y0281800D01*
X0257100Y0271800D02*
X0251900Y0271800D01*
X0251900Y0261800D02*
X0257100Y0261800D01*
X0257100Y0251800D02*
X0251900Y0251800D01*
X0251900Y0241800D02*
X0257100Y0241800D01*
X0257100Y0231800D02*
X0251900Y0231800D01*
D12*
X0224500Y0311800D03*
X0224500Y0321800D03*
X0224500Y0331800D03*
X0224500Y0341800D03*
X0224500Y0351800D03*
X0224500Y0361800D03*
X0224500Y0371800D03*
X0224500Y0381800D03*
X0214500Y0381800D03*
X0214500Y0371800D03*
X0214500Y0361800D03*
X0214500Y0351800D03*
X0214500Y0341800D03*
X0214500Y0331800D03*
X0214500Y0321800D03*
X0214500Y0311800D03*
D13*
X0014500Y0014800D02*
X0014500Y0008800D01*
X0024500Y0008800D02*
X0024500Y0014800D01*
X0034500Y0014800D02*
X0034500Y0008800D01*
X0044500Y0008800D02*
X0044500Y0014800D01*
X0104500Y0014800D02*
X0104500Y0008800D01*
X0114500Y0008800D02*
X0114500Y0014800D01*
X0124500Y0014800D02*
X0124500Y0008800D01*
X0144500Y0008800D02*
X0144500Y0014800D01*
X0154500Y0014800D02*
X0154500Y0008800D01*
X0164500Y0008800D02*
X0164500Y0014800D01*
X0174500Y0014800D02*
X0174500Y0008800D01*
X0224500Y0008800D02*
X0224500Y0014800D01*
X0234500Y0014800D02*
X0234500Y0008800D01*
X0244500Y0008800D02*
X0244500Y0014800D01*
X0254500Y0014800D02*
X0254500Y0008800D01*
X0217000Y0113800D02*
X0217000Y0119800D01*
X0207000Y0119800D02*
X0207000Y0113800D01*
X0197000Y0113800D02*
X0197000Y0119800D01*
X0017500Y0311800D02*
X0011500Y0311800D01*
X0011500Y0321800D02*
X0017500Y0321800D01*
X0017500Y0331800D02*
X0011500Y0331800D01*
X0011500Y0341800D02*
X0017500Y0341800D01*
X0017500Y0351800D02*
X0011500Y0351800D01*
X0011500Y0361800D02*
X0017500Y0361800D01*
X0017500Y0371800D02*
X0011500Y0371800D01*
X0011500Y0381800D02*
X0017500Y0381800D01*
D14*
X0207000Y0057800D03*
D15*
X0114500Y0201800D03*
X0104500Y0201800D03*
D16*
X0137000Y0151800D03*
X0197000Y0151800D03*
X0254500Y0141800D03*
X0254500Y0161800D03*
X0254500Y0191800D03*
X0254500Y0211800D03*
X0014500Y0211800D03*
X0014500Y0191800D03*
D17*
X0057000Y0191800D03*
X0062000Y0191800D03*
X0072000Y0184300D03*
X0077000Y0181800D03*
X0097000Y0146800D03*
X0109500Y0147800D03*
X0116500Y0143800D03*
X0124500Y0139300D03*
X0116500Y0133800D03*
X0104500Y0119300D03*
X0099500Y0131800D03*
X0080500Y0141800D03*
X0067000Y0136800D03*
X0074500Y0109300D03*
X0082000Y0109300D03*
X0114500Y0051800D03*
X0109500Y0046800D03*
X0104500Y0041800D03*
X0124500Y0099300D03*
X0136500Y0105800D03*
X0144500Y0119300D03*
X0157000Y0136800D03*
X0164500Y0119300D03*
X0177500Y0136800D03*
X0179500Y0119300D03*
X0142000Y0169300D03*
X0159500Y0194300D03*
X0164500Y0194300D03*
X0164500Y0199300D03*
X0137000Y0224300D03*
X0122000Y0211800D03*
X0092000Y0236800D03*
X0087000Y0239300D03*
X0042000Y0261800D03*
X0123500Y0155800D03*
X0142000Y0254300D03*
X0147000Y0256800D03*
X0152000Y0254300D03*
X0137000Y0256800D03*
X0187000Y0281800D03*
X0182000Y0351800D03*
X0199500Y0356800D03*
X0224500Y0131800D03*
D18*
X0244500Y0101800D03*
X0254500Y0091800D03*
D19*
X0209500Y0149300D03*
X0209500Y0174300D03*
X0144500Y0089300D03*
X0127000Y0071800D03*
D20*
X0084500Y0171800D03*
X0064500Y0171800D03*
D21*
X0254500Y0074300D03*
X0254500Y0066800D03*
M02*
