G75*
%MOIN*%
%OFA0B0*%
%FSLAX25Y25*%
%IPPOS*%
%LPD*%
%AMOC8*
5,1,8,0,0,1.08239X$1,22.5*
%
%ADD10C,0.05200*%
%ADD11OC8,0.05600*%
%ADD12R,0.03543X0.02559*%
%ADD13R,0.06299X0.02362*%
%ADD14C,0.06000*%
%ADD15R,0.05906X0.05118*%
%ADD16R,0.06693X0.07087*%
%ADD17R,0.03150X0.03150*%
%ADD18R,0.04252X0.04134*%
%ADD19OC8,0.06000*%
%ADD20C,0.05906*%
%ADD21C,0.05000*%
%ADD22C,0.10000*%
%ADD23C,0.01200*%
%ADD24C,0.07000*%
%ADD25C,0.02400*%
%ADD26C,0.02800*%
%ADD27C,0.11811*%
%ADD28C,0.12661*%
%ADD29C,0.08858*%
%ADD30R,0.05906X0.05906*%
D10*
X0114500Y0179200D02*
X0114500Y0184400D01*
X0124500Y0184400D02*
X0124500Y0179200D01*
X0134500Y0179200D02*
X0134500Y0184400D01*
X0144500Y0184400D02*
X0144500Y0179200D01*
X0154500Y0179200D02*
X0154500Y0184400D01*
X0161900Y0221800D02*
X0167100Y0221800D01*
X0167100Y0231800D02*
X0161900Y0231800D01*
X0161900Y0241800D02*
X0167100Y0241800D01*
X0167100Y0251800D02*
X0161900Y0251800D01*
X0161900Y0261800D02*
X0167100Y0261800D01*
X0167100Y0271800D02*
X0161900Y0271800D01*
X0161900Y0281800D02*
X0167100Y0281800D01*
X0167100Y0291800D02*
X0161900Y0291800D01*
X0161900Y0301800D02*
X0167100Y0301800D01*
X0167100Y0311800D02*
X0161900Y0311800D01*
X0161900Y0321800D02*
X0167100Y0321800D01*
X0167100Y0331800D02*
X0161900Y0331800D01*
X0161900Y0341800D02*
X0167100Y0341800D01*
X0167100Y0351800D02*
X0161900Y0351800D01*
X0161900Y0361800D02*
X0167100Y0361800D01*
X0167100Y0371800D02*
X0161900Y0371800D01*
X0161900Y0381800D02*
X0167100Y0381800D01*
X0107100Y0361800D02*
X0101900Y0361800D01*
X0101900Y0351800D02*
X0107100Y0351800D01*
X0107100Y0341800D02*
X0101900Y0341800D01*
X0101900Y0331800D02*
X0107100Y0331800D01*
X0107100Y0321800D02*
X0101900Y0321800D01*
X0101900Y0311800D02*
X0107100Y0311800D01*
X0107100Y0301800D02*
X0101900Y0301800D01*
X0101900Y0291800D02*
X0107100Y0291800D01*
X0107100Y0281800D02*
X0101900Y0281800D01*
X0101900Y0271800D02*
X0107100Y0271800D01*
X0107100Y0261800D02*
X0101900Y0261800D01*
X0101900Y0251800D02*
X0107100Y0251800D01*
X0107100Y0241800D02*
X0101900Y0241800D01*
X0101900Y0231800D02*
X0107100Y0231800D01*
X0107100Y0221800D02*
X0101900Y0221800D01*
X0101900Y0211800D02*
X0107100Y0211800D01*
X0067100Y0231800D02*
X0061900Y0231800D01*
X0061900Y0241800D02*
X0067100Y0241800D01*
X0067100Y0251800D02*
X0061900Y0251800D01*
X0061900Y0261800D02*
X0067100Y0261800D01*
X0067100Y0271800D02*
X0061900Y0271800D01*
X0061900Y0281800D02*
X0067100Y0281800D01*
X0017100Y0281800D02*
X0011900Y0281800D01*
X0011900Y0271800D02*
X0017100Y0271800D01*
X0017100Y0261800D02*
X0011900Y0261800D01*
X0011900Y0251800D02*
X0017100Y0251800D01*
X0017100Y0241800D02*
X0011900Y0241800D01*
X0011900Y0231800D02*
X0017100Y0231800D01*
X0201900Y0231800D02*
X0207100Y0231800D01*
X0207100Y0241800D02*
X0201900Y0241800D01*
X0201900Y0251800D02*
X0207100Y0251800D01*
X0207100Y0261800D02*
X0201900Y0261800D01*
X0201900Y0271800D02*
X0207100Y0271800D01*
X0207100Y0281800D02*
X0201900Y0281800D01*
X0251900Y0281800D02*
X0257100Y0281800D01*
X0257100Y0271800D02*
X0251900Y0271800D01*
X0251900Y0261800D02*
X0257100Y0261800D01*
X0257100Y0251800D02*
X0251900Y0251800D01*
X0251900Y0241800D02*
X0257100Y0241800D01*
X0257100Y0231800D02*
X0251900Y0231800D01*
D11*
X0224500Y0311800D03*
X0224500Y0321800D03*
X0224500Y0331800D03*
X0224500Y0341800D03*
X0224500Y0351800D03*
X0224500Y0361800D03*
X0224500Y0371800D03*
X0224500Y0381800D03*
X0214500Y0381800D03*
X0214500Y0371800D03*
X0214500Y0361800D03*
X0214500Y0351800D03*
X0214500Y0341800D03*
X0214500Y0331800D03*
X0214500Y0321800D03*
X0214500Y0311800D03*
D12*
X0136587Y0142843D03*
X0136587Y0136347D03*
X0128319Y0136347D03*
X0128319Y0142843D03*
X0116902Y0123158D03*
X0116902Y0116662D03*
X0108634Y0116662D03*
X0108634Y0123158D03*
X0128319Y0103473D03*
X0128319Y0096977D03*
X0136587Y0096977D03*
X0136587Y0103473D03*
X0148004Y0116662D03*
X0148004Y0123158D03*
X0156272Y0123158D03*
X0156272Y0116662D03*
D13*
X0161551Y0136839D03*
X0161551Y0141839D03*
X0161551Y0146839D03*
X0161551Y0151800D03*
X0182449Y0151800D03*
X0182449Y0146800D03*
X0182449Y0141800D03*
X0182449Y0136800D03*
X0092449Y0136800D03*
X0092449Y0141800D03*
X0092449Y0146800D03*
X0092449Y0151800D03*
X0071551Y0151800D03*
X0071551Y0146839D03*
X0071551Y0141839D03*
X0071551Y0136839D03*
D14*
X0014500Y0014800D02*
X0014500Y0008800D01*
X0024500Y0008800D02*
X0024500Y0014800D01*
X0034500Y0014800D02*
X0034500Y0008800D01*
X0044500Y0008800D02*
X0044500Y0014800D01*
X0104500Y0014800D02*
X0104500Y0008800D01*
X0114500Y0008800D02*
X0114500Y0014800D01*
X0124500Y0014800D02*
X0124500Y0008800D01*
X0144500Y0008800D02*
X0144500Y0014800D01*
X0154500Y0014800D02*
X0154500Y0008800D01*
X0164500Y0008800D02*
X0164500Y0014800D01*
X0174500Y0014800D02*
X0174500Y0008800D01*
X0224500Y0008800D02*
X0224500Y0014800D01*
X0234500Y0014800D02*
X0234500Y0008800D01*
X0244500Y0008800D02*
X0244500Y0014800D01*
X0254500Y0014800D02*
X0254500Y0008800D01*
X0217000Y0113800D02*
X0217000Y0119800D01*
X0207000Y0119800D02*
X0207000Y0113800D01*
X0197000Y0113800D02*
X0197000Y0119800D01*
X0017500Y0311800D02*
X0011500Y0311800D01*
X0011500Y0321800D02*
X0017500Y0321800D01*
X0017500Y0331800D02*
X0011500Y0331800D01*
X0011500Y0341800D02*
X0017500Y0341800D01*
X0017500Y0351800D02*
X0011500Y0351800D01*
X0011500Y0361800D02*
X0017500Y0361800D01*
X0017500Y0371800D02*
X0011500Y0371800D01*
X0011500Y0381800D02*
X0017500Y0381800D01*
D15*
X0224500Y0163040D03*
X0224500Y0155560D03*
D16*
X0254500Y0119871D03*
X0254500Y0103729D03*
D17*
X0224500Y0136347D03*
X0224500Y0142253D03*
D18*
X0187000Y0130245D03*
X0187000Y0123355D03*
X0179500Y0123355D03*
X0179500Y0130245D03*
X0172000Y0130245D03*
X0172000Y0123355D03*
X0164500Y0123355D03*
X0164500Y0130245D03*
X0089500Y0120245D03*
X0089500Y0113355D03*
X0082000Y0113355D03*
X0082000Y0120245D03*
X0074500Y0120245D03*
X0074500Y0113355D03*
X0067000Y0113355D03*
X0067000Y0120245D03*
X0054500Y0243355D03*
X0054500Y0250245D03*
X0244500Y0250245D03*
X0244500Y0243355D03*
D19*
X0114500Y0201800D03*
X0104500Y0201800D03*
D20*
X0137000Y0151800D03*
X0197000Y0151800D03*
X0254500Y0141800D03*
X0254500Y0161800D03*
X0254500Y0191800D03*
X0254500Y0211800D03*
X0014500Y0211800D03*
X0014500Y0191800D03*
D21*
X0052000Y0229300D01*
X0052000Y0236800D01*
X0057000Y0241800D01*
X0064500Y0241800D01*
X0064500Y0251800D02*
X0049500Y0251800D01*
X0034500Y0236800D01*
X0034500Y0231800D01*
X0014500Y0211800D01*
X0104500Y0351800D02*
X0119500Y0351800D01*
X0132000Y0339300D01*
X0132000Y0239300D01*
X0164500Y0206800D01*
X0187000Y0184300D01*
X0197000Y0174300D01*
X0197000Y0151800D01*
X0197000Y0116800D01*
X0189500Y0116800D01*
X0144500Y0071800D01*
X0114500Y0041800D01*
X0217000Y0116800D02*
X0222000Y0116800D01*
X0234500Y0129300D01*
X0234500Y0141800D01*
X0254500Y0161800D01*
X0254500Y0191800D02*
X0232000Y0214300D01*
X0232000Y0241800D01*
X0242000Y0251800D01*
X0254500Y0251800D01*
X0254500Y0241800D02*
X0247000Y0241800D01*
X0242000Y0236800D01*
X0242000Y0224300D01*
X0254500Y0211800D01*
D22*
X0209500Y0174300D02*
X0209500Y0149300D01*
X0244500Y0101800D02*
X0254500Y0091800D01*
X0254500Y0101800D01*
X0244500Y0101800D01*
X0254500Y0121800D02*
X0254500Y0141800D01*
X0144500Y0089300D02*
X0127000Y0071800D01*
X0084500Y0171800D02*
X0064500Y0171800D01*
D23*
X0072000Y0184300D02*
X0099500Y0211800D01*
X0104500Y0211800D01*
X0104500Y0201800D02*
X0097000Y0201800D01*
X0077000Y0181800D01*
X0062000Y0191800D02*
X0057000Y0186800D01*
X0057000Y0099300D01*
X0104500Y0051800D01*
X0114500Y0051800D01*
X0109500Y0046800D02*
X0104500Y0046800D01*
X0054500Y0096800D01*
X0054500Y0189300D01*
X0057000Y0191800D01*
X0052000Y0191800D02*
X0097000Y0236800D01*
X0112000Y0236800D01*
X0117000Y0241800D01*
X0117000Y0281800D01*
X0107000Y0291800D01*
X0104500Y0291800D01*
X0104500Y0251800D02*
X0087000Y0251800D01*
X0072000Y0266800D01*
X0047000Y0266800D01*
X0042000Y0261800D01*
X0027000Y0256800D02*
X0022000Y0251800D01*
X0014500Y0251800D01*
X0027000Y0256800D02*
X0077000Y0256800D01*
X0092000Y0241800D01*
X0104500Y0241800D01*
X0092000Y0236800D02*
X0049500Y0194300D01*
X0049500Y0036800D01*
X0024500Y0011800D01*
X0014500Y0011800D02*
X0047000Y0044300D01*
X0047000Y0196800D01*
X0087000Y0236800D01*
X0087000Y0239300D01*
X0104500Y0221800D02*
X0107000Y0221800D01*
X0124500Y0204300D01*
X0124500Y0181800D01*
X0139500Y0176800D02*
X0119500Y0156800D01*
X0079500Y0156800D01*
X0074500Y0151800D01*
X0069500Y0151800D01*
X0062000Y0144300D01*
X0062000Y0116800D01*
X0067000Y0111800D01*
X0074500Y0111800D02*
X0074500Y0109300D01*
X0082000Y0109300D02*
X0082000Y0111800D01*
X0082000Y0121800D02*
X0089500Y0121800D01*
X0089500Y0114300D02*
X0094500Y0114300D01*
X0099500Y0119300D01*
X0099500Y0131800D01*
X0094500Y0136800D02*
X0117000Y0136800D01*
X0127000Y0146800D01*
X0134500Y0146800D01*
X0137000Y0144300D01*
X0142000Y0141800D02*
X0127000Y0126800D01*
X0117000Y0116800D01*
X0116500Y0123800D02*
X0116500Y0133800D01*
X0116500Y0143800D02*
X0112500Y0147800D01*
X0109500Y0147800D01*
X0097000Y0146800D02*
X0094500Y0146800D01*
X0089500Y0141800D02*
X0082000Y0134300D01*
X0082000Y0121800D01*
X0074500Y0121800D02*
X0067000Y0121800D01*
X0074500Y0121800D02*
X0074500Y0124300D01*
X0064500Y0134300D01*
X0064500Y0141800D01*
X0069500Y0146800D01*
X0073500Y0141800D02*
X0080500Y0141800D01*
X0052000Y0094300D02*
X0052000Y0191800D01*
X0052000Y0094300D02*
X0104500Y0041800D01*
X0137000Y0096800D02*
X0147000Y0106800D01*
X0127000Y0126800D01*
X0142000Y0141800D02*
X0142000Y0169300D01*
X0142000Y0174300D02*
X0123500Y0155800D01*
X0139500Y0176800D02*
X0139500Y0221800D01*
X0137000Y0224300D01*
X0122000Y0211800D02*
X0122000Y0336800D01*
X0117000Y0341800D01*
X0104500Y0341800D01*
X0122000Y0356800D02*
X0054500Y0356800D01*
X0019500Y0321800D01*
X0014500Y0321800D01*
X0014500Y0331800D02*
X0024500Y0331800D01*
X0059500Y0366800D01*
X0117000Y0366800D01*
X0142000Y0341800D01*
X0164500Y0341800D01*
X0169500Y0346800D02*
X0142000Y0346800D01*
X0119500Y0369300D01*
X0057000Y0369300D01*
X0029500Y0341800D01*
X0014500Y0341800D01*
X0014500Y0351800D02*
X0034500Y0351800D01*
X0054500Y0371800D01*
X0122000Y0371800D01*
X0137000Y0356800D01*
X0169500Y0356800D01*
X0174500Y0351800D01*
X0174500Y0271800D01*
X0164500Y0261800D01*
X0164500Y0251800D02*
X0169500Y0251800D01*
X0177000Y0259300D01*
X0177000Y0346800D01*
X0182000Y0351800D01*
X0179500Y0344300D02*
X0197000Y0361800D01*
X0214500Y0361800D01*
X0199500Y0356800D02*
X0182000Y0339300D01*
X0182000Y0244300D01*
X0169500Y0231800D01*
X0164500Y0231800D01*
X0164500Y0241800D02*
X0169500Y0241800D01*
X0179500Y0251800D01*
X0179500Y0344300D01*
X0172000Y0344300D02*
X0169500Y0346800D01*
X0172000Y0344300D02*
X0172000Y0276800D01*
X0167000Y0271800D01*
X0164500Y0271800D01*
X0152000Y0279300D02*
X0152000Y0254300D01*
X0147000Y0256800D02*
X0147000Y0284300D01*
X0164500Y0301800D01*
X0164500Y0291800D02*
X0152000Y0279300D01*
X0142000Y0289300D02*
X0164500Y0311800D01*
X0164500Y0321800D02*
X0137000Y0294300D01*
X0137000Y0256800D01*
X0142000Y0254300D02*
X0142000Y0289300D01*
X0147000Y0331800D02*
X0122000Y0356800D01*
X0147000Y0331800D02*
X0164500Y0331800D01*
X0164500Y0199300D02*
X0174500Y0189300D01*
X0174500Y0150800D01*
X0178500Y0146800D01*
X0179500Y0146800D01*
X0180500Y0146800D01*
X0184500Y0146800D01*
X0189500Y0141800D01*
X0189500Y0134300D01*
X0187000Y0131800D01*
X0184500Y0126800D02*
X0182000Y0126800D01*
X0179500Y0129300D01*
X0179500Y0131800D02*
X0177000Y0131800D01*
X0174500Y0134300D01*
X0174500Y0139300D01*
X0177000Y0141800D01*
X0179500Y0141800D01*
X0180500Y0136800D02*
X0177500Y0136800D01*
X0172000Y0131800D02*
X0172000Y0144300D01*
X0164500Y0151800D01*
X0159500Y0151800D01*
X0154500Y0156800D01*
X0154500Y0164300D01*
X0172000Y0181800D01*
X0172000Y0186800D01*
X0164500Y0194300D01*
X0159500Y0194300D02*
X0167000Y0186800D01*
X0167000Y0181800D01*
X0159500Y0174300D01*
X0142000Y0174300D01*
X0164500Y0146800D02*
X0167000Y0144300D01*
X0167000Y0134300D01*
X0164500Y0131800D01*
X0164500Y0129300D02*
X0167000Y0126800D01*
X0169500Y0126800D01*
X0172000Y0124300D01*
X0164500Y0121800D02*
X0164500Y0119300D01*
X0157000Y0116800D02*
X0147000Y0106800D01*
X0136500Y0105800D02*
X0136500Y0103800D01*
X0155500Y0123800D02*
X0155500Y0132800D01*
X0153500Y0134800D01*
X0153500Y0138800D01*
X0156500Y0141800D01*
X0159500Y0141800D01*
X0179500Y0121800D02*
X0179500Y0119300D01*
X0187000Y0124300D02*
X0184500Y0126800D01*
X0224500Y0131800D02*
X0224500Y0136800D01*
X0224500Y0141800D02*
X0224500Y0154300D01*
X0224500Y0161800D02*
X0254500Y0161800D01*
D24*
X0219500Y0196800D01*
X0219500Y0251800D01*
X0229500Y0261800D01*
X0254500Y0261800D01*
D25*
X0187000Y0304300D02*
X0214500Y0331800D01*
X0187000Y0304300D02*
X0187000Y0281800D01*
X0187000Y0251800D01*
X0187000Y0184300D01*
X0164500Y0206800D02*
X0144500Y0186800D01*
X0144500Y0181800D01*
X0137000Y0151800D02*
X0094500Y0151800D01*
X0107000Y0121800D02*
X0107000Y0119300D01*
X0104500Y0119300D01*
X0107000Y0119300D02*
X0107000Y0116800D01*
X0124500Y0099300D02*
X0127000Y0099300D01*
X0127000Y0101800D01*
X0127000Y0099300D02*
X0127000Y0096800D01*
X0144500Y0119300D02*
X0147000Y0119300D01*
X0147000Y0121800D01*
X0147000Y0119300D02*
X0147000Y0116800D01*
X0157000Y0136800D02*
X0159500Y0136800D01*
X0184500Y0151800D02*
X0197000Y0151800D01*
X0197000Y0116800D02*
X0197000Y0109300D01*
X0244500Y0061800D01*
X0244500Y0011800D01*
X0144500Y0011800D02*
X0144500Y0071800D01*
X0114500Y0041800D02*
X0102000Y0029300D01*
X0047000Y0029300D01*
X0034500Y0016800D01*
X0034500Y0011800D01*
X0114500Y0011800D02*
X0114500Y0041800D01*
X0127000Y0136800D02*
X0127000Y0139300D01*
X0124500Y0139300D01*
X0127000Y0139300D02*
X0127000Y0141800D01*
X0069500Y0136800D02*
X0067000Y0136800D01*
X0022000Y0261800D02*
X0014500Y0261800D01*
X0022000Y0261800D02*
X0087000Y0326800D01*
X0087000Y0339300D01*
X0099500Y0351800D01*
X0104500Y0351800D01*
X0124500Y0374300D02*
X0052000Y0374300D01*
X0039500Y0361800D01*
X0014500Y0361800D01*
X0014500Y0371800D02*
X0044500Y0371800D01*
X0052000Y0379300D01*
X0124500Y0379300D01*
X0132000Y0371800D01*
X0164500Y0371800D01*
X0164500Y0361800D02*
X0137000Y0361800D01*
X0124500Y0374300D01*
X0127000Y0381800D02*
X0124500Y0384300D01*
X0052000Y0384300D01*
X0049500Y0381800D01*
X0014500Y0381800D01*
X0127000Y0381800D02*
X0164500Y0381800D01*
X0197000Y0261800D02*
X0187000Y0251800D01*
X0197000Y0261800D02*
X0204500Y0261800D01*
D26*
X0187000Y0281800D03*
X0152000Y0254300D03*
X0147000Y0256800D03*
X0142000Y0254300D03*
X0137000Y0256800D03*
X0137000Y0224300D03*
X0122000Y0211800D03*
X0142000Y0169300D03*
X0159500Y0194300D03*
X0164500Y0194300D03*
X0164500Y0199300D03*
X0123500Y0155800D03*
X0116500Y0143800D03*
X0109500Y0147800D03*
X0097000Y0146800D03*
X0099500Y0131800D03*
X0104500Y0119300D03*
X0116500Y0133800D03*
X0124500Y0139300D03*
X0144500Y0119300D03*
X0136500Y0105800D03*
X0124500Y0099300D03*
X0114500Y0051800D03*
X0109500Y0046800D03*
X0104500Y0041800D03*
X0082000Y0109300D03*
X0074500Y0109300D03*
X0067000Y0136800D03*
X0080500Y0141800D03*
X0077000Y0181800D03*
X0072000Y0184300D03*
X0062000Y0191800D03*
X0057000Y0191800D03*
X0087000Y0239300D03*
X0092000Y0236800D03*
X0042000Y0261800D03*
X0157000Y0136800D03*
X0164500Y0119300D03*
X0177500Y0136800D03*
X0179500Y0119300D03*
X0224500Y0131800D03*
X0182000Y0351800D03*
X0199500Y0356800D03*
D27*
X0244500Y0101800D03*
X0254500Y0091800D03*
D28*
X0209500Y0149300D03*
X0209500Y0174300D03*
X0144500Y0089300D03*
X0127000Y0071800D03*
D29*
X0084500Y0171800D03*
X0064500Y0171800D03*
D30*
X0254500Y0074300D03*
X0254500Y0066800D03*
M02*
